<svg xmlns="http://www.w3.org/2000/svg" xmlns:xlink="http://www.w3.org/1999/xlink" contentStyleType="text/css" data-diagram-type="ACTIVITY" height="917px" preserveAspectRatio="none" style="width:1726px;height:917px;background:#FFFFFF;" version="1.1" viewBox="0 0 1079 573" width="1726px" zoomAndPan="magnify"><?plantuml 1.2026.6?><defs/><g><rect fill="none" height="21.7793" style="stroke:none;stroke-width:1;" width="1032.9961" x="20" y="17.8418"/><ellipse cx="174.252" cy="54.6211" fill="#222222" rx="10" ry="10" style="stroke:#222222;stroke-width:1;"/><rect fill="#F1F1F1" height="34.5195" rx="12.5" ry="12.5" style="stroke:#181818;stroke-width:0.5;" width="254.6563" x="46.9238" y="84.6211"/><text fill="#000000" font-family="Inter" font-size="12" lengthAdjust="spacing" textLength="234.6563" x="56.9238" y="106.2461">N&#234;u outcome, scope, working agreement</text><rect fill="#F1F1F1" height="34.5195" rx="12.5" ry="12.5" style="stroke:#181818;stroke-width:0.5;" width="190.0215" x="79.2412" y="193.6602"/><text fill="#000000" font-family="Inter" font-size="12" lengthAdjust="spacing" textLength="170.0215" x="89.2412" y="215.2852">Nh&#243;m theme, l&#224;m r&#245; kh&#225;c bi&#7879;t</text><rect fill="#F1F1F1" height="34.5195" rx="12.5" ry="12.5" style="stroke:#181818;stroke-width:0.5;" width="169.7832" x="89.3604" y="248.1797"/><text fill="#000000" font-family="Inter" font-size="12" lengthAdjust="spacing" textLength="149.7832" x="99.3604" y="269.8047">T&#225;ch fact kh&#7887;i assumption</text><rect fill="#F1F1F1" height="34.5195" rx="12.5" ry="12.5" style="stroke:#181818;stroke-width:0.5;" width="296.5039" x="26" y="475.7383"/><text fill="#000000" font-family="Inter" font-size="12" lengthAdjust="spacing" textLength="276.5039" x="36" y="497.3633">Playback decision, dissent, parking lot, next step</text><ellipse cx="174.252" cy="541.2578" fill="none" rx="11" ry="11" style="stroke:#222222;stroke-width:1;"/><ellipse cx="174.252" cy="541.2578" fill="#222222" rx="6" ry="6" style="stroke:#222222;stroke-width:1;"/><line style="stroke:#000000;stroke-width:1.5;" x1="20" x2="20" y1="17.8418" y2="552.2578"/><rect fill="#F1F1F1" height="34.5195" rx="12.5" ry="12.5" style="stroke:#181818;stroke-width:0.5;" width="257.1055" x="332.5039" y="139.1406"/><text fill="#000000" font-family="Inter" font-size="12" lengthAdjust="spacing" textLength="237.1055" x="342.5039" y="160.7656">&#272;&#432;a evidence v&#224; g&#243;c nh&#236;n theo silent-first</text><rect fill="#F1F1F1" height="34.5195" rx="12.5" ry="12.5" style="stroke:#181818;stroke-width:0.5;" width="180.3242" x="370.8945" y="302.6992"/><text fill="#000000" font-family="Inter" font-size="12" lengthAdjust="spacing" textLength="160.3242" x="380.8945" y="324.3242">&#272;&#225;nh gi&#225; option theo criteria</text><line style="stroke:#000000;stroke-width:1.5;" x1="326.5039" x2="326.5039" y1="17.8418" y2="552.2578"/><polygon fill="#F1F1F1" points="727.6753,357.2188,872.7056,357.2188,884.7056,369.2188,872.7056,381.2188,727.6753,381.2188,715.6753,369.2188,727.6753,357.2188" style="stroke:#181818;stroke-width:0.5;stroke-linejoin:miter;stroke-miterlimit:10;"/><text fill="#000000" font-family="Inter" font-size="11" lengthAdjust="spacing" textLength="145.0303" x="727.6753" y="373.2202">&#272;&#7911; evidence &#273;&#7875; quy&#7871;t &#273;&#7883;nh?</text><text fill="#000000" font-family="Inter" font-size="11" lengthAdjust="spacing" textLength="14.6309" x="701.0444" y="366.5654">C&#243;</text><text fill="#000000" font-family="Inter" font-size="11" lengthAdjust="spacing" textLength="33.7358" x="884.7056" y="366.5654">Kh&#244;ng</text><rect fill="#F1F1F1" height="34.5195" rx="12.5" ry="12.5" style="stroke:#181818;stroke-width:0.5;" width="167.2344" x="599.6094" y="391.2188"/><text fill="#000000" font-family="Inter" font-size="12" lengthAdjust="spacing" textLength="147.2344" x="609.6094" y="412.8438">Ch&#7889;t decision v&#224; rationale</text><rect fill="#F1F1F1" height="34.5195" rx="12.5" ry="12.5" style="stroke:#181818;stroke-width:0.5;" width="260.6211" x="786.8438" y="391.2188"/><text fill="#000000" font-family="Inter" font-size="12" lengthAdjust="spacing" textLength="240.6211" x="796.8438" y="412.8438">G&#225;n owner v&#224; due date cho open question</text><polygon fill="#F1F1F1" points="800.1904,431.7383,812.1904,443.7383,800.1904,455.7383,788.1904,443.7383,800.1904,431.7383" style="stroke:#181818;stroke-width:0.5;stroke-linejoin:miter;stroke-miterlimit:10;"/><line style="stroke:#000000;stroke-width:1.5;" x1="593.6094" x2="593.6094" y1="17.8418" y2="552.2578"/><line style="stroke:#000000;stroke-width:1.5;" x1="1051.4648" x2="1051.4648" y1="17.8418" y2="552.2578"/><line style="stroke:#181818;stroke-width:1;" x1="174.252" x2="174.252" y1="64.6211" y2="84.6211"/><polygon fill="#181818" points="170.252,74.6211,174.252,84.6211,178.252,74.6211,174.252,78.6211" style="stroke:#181818;stroke-width:1;stroke-linejoin:miter;stroke-miterlimit:10;"/><line style="stroke:#181818;stroke-width:1;" x1="174.252" x2="174.252" y1="228.1797" y2="248.1797"/><polygon fill="#181818" points="170.252,238.1797,174.252,248.1797,178.252,238.1797,174.252,242.1797" style="stroke:#181818;stroke-width:1;stroke-linejoin:miter;stroke-miterlimit:10;"/><line style="stroke:#181818;stroke-width:1;" x1="174.252" x2="174.252" y1="510.2578" y2="530.2578"/><polygon fill="#181818" points="170.252,520.2578,174.252,530.2578,178.252,520.2578,174.252,524.2578" style="stroke:#181818;stroke-width:1;stroke-linejoin:miter;stroke-miterlimit:10;"/><line style="stroke:#181818;stroke-width:1;" x1="715.6753" x2="683.2266" y1="369.2188" y2="369.2188"/><line style="stroke:#181818;stroke-width:1;" x1="683.2266" x2="683.2266" y1="369.2188" y2="391.2188"/><polygon fill="#181818" points="679.2266,381.2188,683.2266,391.2188,687.2266,381.2188,683.2266,385.2188" style="stroke:#181818;stroke-width:1;stroke-linejoin:miter;stroke-miterlimit:10;"/><line style="stroke:#181818;stroke-width:1;" x1="884.7056" x2="917.1543" y1="369.2188" y2="369.2188"/><line style="stroke:#181818;stroke-width:1;" x1="917.1543" x2="917.1543" y1="369.2188" y2="391.2188"/><polygon fill="#181818" points="913.1543,381.2188,917.1543,391.2188,921.1543,381.2188,917.1543,385.2188" style="stroke:#181818;stroke-width:1;stroke-linejoin:miter;stroke-miterlimit:10;"/><line style="stroke:#181818;stroke-width:1;" x1="683.2266" x2="683.2266" y1="425.7383" y2="443.7383"/><line style="stroke:#181818;stroke-width:1;" x1="683.2266" x2="788.1904" y1="443.7383" y2="443.7383"/><polygon fill="#181818" points="778.1904,439.7383,788.1904,443.7383,778.1904,447.7383,782.1904,443.7383" style="stroke:#181818;stroke-width:1;stroke-linejoin:miter;stroke-miterlimit:10;"/><line style="stroke:#181818;stroke-width:1;" x1="917.1543" x2="917.1543" y1="425.7383" y2="443.7383"/><line style="stroke:#181818;stroke-width:1;" x1="917.1543" x2="812.1904" y1="443.7383" y2="443.7383"/><polygon fill="#181818" points="822.1904,439.7383,812.1904,443.7383,822.1904,447.7383,818.1904,443.7383" style="stroke:#181818;stroke-width:1;stroke-linejoin:miter;stroke-miterlimit:10;"/><line style="stroke:#181818;stroke-width:1;" x1="174.252" x2="174.252" y1="119.1406" y2="124.1406"/><line style="stroke:#181818;stroke-width:1;" x1="174.252" x2="461.0566" y1="124.1406" y2="124.1406"/><line style="stroke:#181818;stroke-width:1;" x1="461.0566" x2="461.0566" y1="124.1406" y2="139.1406"/><polygon fill="#181818" points="457.0566,129.1406,461.0566,139.1406,465.0566,129.1406,461.0566,133.1406" style="stroke:#181818;stroke-width:1;stroke-linejoin:miter;stroke-miterlimit:10;"/><line style="stroke:#181818;stroke-width:1;" x1="461.0566" x2="461.0566" y1="173.6602" y2="178.6602"/><line style="stroke:#181818;stroke-width:1;" x1="461.0566" x2="174.252" y1="178.6602" y2="178.6602"/><line style="stroke:#181818;stroke-width:1;" x1="174.252" x2="174.252" y1="178.6602" y2="193.6602"/><polygon fill="#181818" points="170.252,183.6602,174.252,193.6602,178.252,183.6602,174.252,187.6602" style="stroke:#181818;stroke-width:1;stroke-linejoin:miter;stroke-miterlimit:10;"/><line style="stroke:#181818;stroke-width:1;" x1="174.252" x2="174.252" y1="282.6992" y2="287.6992"/><line style="stroke:#181818;stroke-width:1;" x1="174.252" x2="461.0566" y1="287.6992" y2="287.6992"/><line style="stroke:#181818;stroke-width:1;" x1="461.0566" x2="461.0566" y1="287.6992" y2="302.6992"/><polygon fill="#181818" points="457.0566,292.6992,461.0566,302.6992,465.0566,292.6992,461.0566,296.6992" style="stroke:#181818;stroke-width:1;stroke-linejoin:miter;stroke-miterlimit:10;"/><line style="stroke:#181818;stroke-width:1;" x1="461.0566" x2="461.0566" y1="337.2188" y2="342.2188"/><line style="stroke:#181818;stroke-width:1;" x1="461.0566" x2="800.1904" y1="342.2188" y2="342.2188"/><line style="stroke:#181818;stroke-width:1;" x1="800.1904" x2="800.1904" y1="342.2188" y2="357.2188"/><polygon fill="#181818" points="796.1904,347.2188,800.1904,357.2188,804.1904,347.2188,800.1904,351.2188" style="stroke:#181818;stroke-width:1;stroke-linejoin:miter;stroke-miterlimit:10;"/><line style="stroke:#181818;stroke-width:1;" x1="800.1904" x2="800.1904" y1="455.7383" y2="460.7383"/><line style="stroke:#181818;stroke-width:1;" x1="800.1904" x2="174.252" y1="460.7383" y2="460.7383"/><line style="stroke:#181818;stroke-width:1;" x1="174.252" x2="174.252" y1="460.7383" y2="475.7383"/><polygon fill="#181818" points="170.252,465.7383,174.252,475.7383,178.252,465.7383,174.252,469.7383" style="stroke:#181818;stroke-width:1;stroke-linejoin:miter;stroke-miterlimit:10;"/><text fill="#000000" font-family="Inter" font-size="18" lengthAdjust="spacing" textLength="83.5488" x="131.4775" y="35.2793">Facilitator</text><text fill="#000000" font-family="Inter" font-size="18" lengthAdjust="spacing" textLength="100.4238" x="409.8447" y="35.2793">Participants</text><text fill="#000000" font-family="Inter" font-size="18" lengthAdjust="spacing" textLength="131.9063" x="756.584" y="35.2793">Decision owner</text><?plantuml-src RL6zJjn04Exz55CUqkK5V0K54H52Eb7m0iDwx1sTlMjsn_n8rr5GK0JUWAkGK8f8bpHSGR6dl8VV96CV2WgY6etcc-zd9YxOjHYmWO9Ax6evz4xcs10SEQ6GBG_HSCs2uiCoYu91idoUdZlmdHZVq1IYyQsMIn-KgmAi0b53JcRPyaJXRBX59t6PvTlxFpyHw88BSeRW8Zr2bTO6d4q_78Wb3v5hNVrISeW3mN_g-TocTJFW1jawFJOGqczOsBGoSCRzvbPNybFjB9HeH2VzvZi3njWrhR1tdrbAAsUXuhG2Fs9sFanWZS-e6r_9S1m6_jAHsk0I9jlxVlFqdcJxq6zkuBoxxbzUPUpkdDtV6wWSJ0xIUYy3o0_KpeFeeT_uXlm11qsiQPPH7GacnpRzSjM8_wRMTg8ZjEW82XG2OxrwLURpZk8k5hc2ou_dEgdn-WpDuf_Y50gEKUyx1Vtv-AtQQ-FeIY0AjJFzi6__0W00?></g></svg>