<svg xmlns="http://www.w3.org/2000/svg" xmlns:xlink="http://www.w3.org/1999/xlink" contentStyleType="text/css" data-diagram-type="ACTIVITY" height="482px" preserveAspectRatio="none" style="width:526px;height:482px;background:#FFFFFF;" version="1.1" viewBox="0 0 329 301" width="526px" zoomAndPan="magnify"><?plantuml 1.2026.6?><defs/><g><ellipse cx="185.4263" cy="25" fill="#222222" rx="10" ry="10" style="stroke:#222222;stroke-width:1;"/><rect fill="#F1F1F1" height="36.9395" rx="12.5" ry="12.5" style="stroke:#181818;stroke-width:0.5;" width="191.6367" x="89.6079" y="55"/><text fill="#000000" font-family="Inter" font-size="14" lengthAdjust="spacing" textLength="171.6367" x="99.6079" y="78.5625">Nh&#7853;p th&#244;ng tin &#273;&#259;ng nh&#7853;p</text><polygon fill="#F1F1F1" points="128.1582,111.9395,242.6943,111.9395,254.6943,123.9395,242.6943,135.9395,128.1582,135.9395,116.1582,123.9395,128.1582,111.9395" style="stroke:#181818;stroke-width:0.5;stroke-linejoin:miter;stroke-miterlimit:10;"/><text fill="#000000" font-family="Inter" font-size="14" lengthAdjust="spacing" textLength="114.5361" x="128.1582" y="129.0322">Th&#244;ng tin h&#7907;p l&#7879;?</text><text fill="#000000" font-family="Inter" font-size="14" lengthAdjust="spacing" textLength="35.2393" x="80.9189" y="120.5625">&#272;&#250;ng</text><text fill="#000000" font-family="Inter" font-size="14" lengthAdjust="spacing" textLength="20.2344" x="254.6943" y="120.5625">Sai</text><rect fill="#F1F1F1" height="36.9395" rx="12.5" ry="12.5" style="stroke:#181818;stroke-width:0.5;" width="101.2109" x="55.5527" y="145.9395"/><text fill="#000000" font-family="Inter" font-size="14" lengthAdjust="spacing" textLength="81.2109" x="65.5527" y="169.502">T&#7841;o Session</text><rect fill="#F1F1F1" height="36.9395" rx="12.5" ry="12.5" style="stroke:#181818;stroke-width:0.5;" width="180.3164" x="16" y="202.8789"/><text fill="#000000" font-family="Inter" font-size="14" lengthAdjust="spacing" textLength="160.3164" x="26" y="226.4414">Chuy&#7875;n h&#432;&#7899;ng v&#7873; Home</text><rect fill="#F1F1F1" height="36.9395" rx="12.5" ry="12.5" style="stroke:#181818;stroke-width:0.5;" width="89.5283" x="219.9302" y="145.9395"/><text fill="#000000" font-family="Inter" font-size="14" lengthAdjust="spacing" textLength="69.5283" x="229.9302" y="169.502">Hi&#7875;n th&#7883; l&#7895;i</text><ellipse cx="264.6943" cy="213.8789" fill="none" rx="11" ry="11" style="stroke:#222222;stroke-width:1;"/><ellipse cx="264.6943" cy="213.8789" fill="#222222" rx="6" ry="6" style="stroke:#222222;stroke-width:1;"/><ellipse cx="185.4263" cy="270.8184" fill="none" rx="11" ry="11" style="stroke:#222222;stroke-width:1;"/><ellipse cx="185.4263" cy="270.8184" fill="#222222" rx="6" ry="6" style="stroke:#222222;stroke-width:1;"/><line style="stroke:#181818;stroke-width:1;" x1="185.4263" x2="185.4263" y1="35" y2="55"/><polygon fill="#181818" points="181.4263,45,185.4263,55,189.4263,45,185.4263,49" style="stroke:#181818;stroke-width:1;stroke-linejoin:miter;stroke-miterlimit:10;"/><line style="stroke:#181818;stroke-width:1;" x1="106.1582" x2="106.1582" y1="182.8789" y2="202.8789"/><polygon fill="#181818" points="102.1582,192.8789,106.1582,202.8789,110.1582,192.8789,106.1582,196.8789" style="stroke:#181818;stroke-width:1;stroke-linejoin:miter;stroke-miterlimit:10;"/><line style="stroke:#181818;stroke-width:1;" x1="264.6943" x2="264.6943" y1="182.8789" y2="202.8789"/><polygon fill="#181818" points="260.6943,192.8789,264.6943,202.8789,268.6943,192.8789,264.6943,196.8789" style="stroke:#181818;stroke-width:1;stroke-linejoin:miter;stroke-miterlimit:10;"/><line style="stroke:#181818;stroke-width:1;" x1="116.1582" x2="106.1582" y1="123.9395" y2="123.9395"/><line style="stroke:#181818;stroke-width:1;" x1="106.1582" x2="106.1582" y1="123.9395" y2="145.9395"/><polygon fill="#181818" points="102.1582,135.9395,106.1582,145.9395,110.1582,135.9395,106.1582,139.9395" style="stroke:#181818;stroke-width:1;stroke-linejoin:miter;stroke-miterlimit:10;"/><line style="stroke:#181818;stroke-width:1;" x1="254.6943" x2="264.6943" y1="123.9395" y2="123.9395"/><line style="stroke:#181818;stroke-width:1;" x1="264.6943" x2="264.6943" y1="123.9395" y2="145.9395"/><polygon fill="#181818" points="260.6943,135.9395,264.6943,145.9395,268.6943,135.9395,264.6943,139.9395" style="stroke:#181818;stroke-width:1;stroke-linejoin:miter;stroke-miterlimit:10;"/><line style="stroke:#181818;stroke-width:1;" x1="106.1582" x2="106.1582" y1="239.8184" y2="244.8184"/><line style="stroke:#181818;stroke-width:1;" x1="106.1582" x2="185.4263" y1="244.8184" y2="244.8184"/><line style="stroke:#181818;stroke-width:1;" x1="185.4263" x2="185.4263" y1="244.8184" y2="259.8184"/><polygon fill="#181818" points="181.4263,249.8184,185.4263,259.8184,189.4263,249.8184,185.4263,253.8184" style="stroke:#181818;stroke-width:1;stroke-linejoin:miter;stroke-miterlimit:10;"/><line style="stroke:#181818;stroke-width:1;" x1="185.4263" x2="185.4263" y1="91.9395" y2="111.9395"/><polygon fill="#181818" points="181.4263,101.9395,185.4263,111.9395,189.4263,101.9395,185.4263,105.9395" style="stroke:#181818;stroke-width:1;stroke-linejoin:miter;stroke-miterlimit:10;"/><?plantuml-src ROsXZi9048RzFCN88abEKO4W8M0mvGKsOKedryustU6IEtT18CuS2e4YQ1B4gQwauJtsJMvRS-RSd_dc-t_tobARnbIueTpiIfrRqPMf29UYr83xZsVyGJX-0N1g6eN9gWZjhKOj7Z-oHMN1xjZjOvG1fC0v9ki_MWH_hR4C_Z0THOi4a-xxqSfs18YJTMWl5ZDoZgsa_MLMxDw3tqVnUG_-75lUWl_4XQqe1IeTOP8P7kG53uyQ9xxwXHFt3Kvj3IGRpc68lm00?></g></svg>