<svg xmlns="http://www.w3.org/2000/svg" xmlns:xlink="http://www.w3.org/1999/xlink" contentStyleType="text/css" data-diagram-type="ACTIVITY" height="453px" preserveAspectRatio="none" style="width:1832px;height:453px;background:#FFFFFF;" version="1.1" viewBox="0 0 1145 283" width="1832px" zoomAndPan="magnify"><?plantuml 1.2026.6?><defs/><g><ellipse cx="575.7471" cy="25" fill="#222222" rx="10" ry="10" style="stroke:#222222;stroke-width:1;"/><polygon fill="#F1F1F1" points="50.6479,55,182.6587,55,194.6587,67,182.6587,79,50.6479,79,38.6479,67,50.6479,55" style="stroke:#181818;stroke-width:0.5;stroke-linejoin:miter;stroke-miterlimit:10;"/><text fill="#000000" font-family="Inter" font-size="11" lengthAdjust="spacing" textLength="14.6309" x="120.6533" y="89.6563">C&#243;</text><text fill="#000000" font-family="Inter" font-size="11" lengthAdjust="spacing" textLength="132.0107" x="50.6479" y="71.0015">C&#7847;n th&#7845;y h&#224;nh vi th&#7921;c t&#7871;?</text><rect fill="#F1F1F1" height="34.5195" rx="12.5" ry="12.5" style="stroke:#181818;stroke-width:0.5;" width="201.3066" x="16" y="112.3096"/><text fill="#000000" font-family="Inter" font-size="12" lengthAdjust="spacing" textLength="181.3066" x="26" y="133.9346">Observation / contextual inquiry</text><polygon fill="#F1F1F1" points="249.3066,55,411.5728,55,423.5728,67,411.5728,79,249.3066,79,237.3066,67,249.3066,55" style="stroke:#181818;stroke-width:0.5;stroke-linejoin:miter;stroke-miterlimit:10;"/><text fill="#000000" font-family="Inter" font-size="11" lengthAdjust="spacing" textLength="14.6309" x="334.4397" y="89.6563">C&#243;</text><text fill="#000000" font-family="Inter" font-size="11" lengthAdjust="spacing" textLength="162.2661" x="249.3066" y="71.0015">C&#7847;n t&#7841;o &#273;&#7891;ng thu&#7853;n nhi&#7873;u b&#234;n?</text><rect fill="#F1F1F1" height="34.5195" rx="12.5" ry="12.5" style="stroke:#181818;stroke-width:0.5;" width="137.7969" x="261.5413" y="112.3096"/><text fill="#000000" font-family="Inter" font-size="12" lengthAdjust="spacing" textLength="117.7969" x="271.5413" y="133.9346">Facilitated workshop</text><polygon fill="#F1F1F1" points="455.5728,55,625.1113,55,637.1113,67,625.1113,79,455.5728,79,443.5728,67,455.5728,55" style="stroke:#181818;stroke-width:0.5;stroke-linejoin:miter;stroke-miterlimit:10;"/><text fill="#000000" font-family="Inter" font-size="11" lengthAdjust="spacing" textLength="14.6309" x="544.342" y="89.6563">C&#243;</text><text fill="#000000" font-family="Inter" font-size="11" lengthAdjust="spacing" textLength="169.5386" x="455.5728" y="71.0015">Ch&#7911; &#273;&#7873; c&#225; nh&#226;n ho&#7863;c nh&#7841;y c&#7843;m?</text><rect fill="#F1F1F1" height="34.5195" rx="12.5" ry="12.5" style="stroke:#181818;stroke-width:0.5;" width="88.4961" x="496.094" y="112.3096"/><text fill="#000000" font-family="Inter" font-size="12" lengthAdjust="spacing" textLength="68.4961" x="506.094" y="133.9346">1:1 interview</text><polygon fill="#F1F1F1" points="673.0916,55,845.9065,55,857.9065,67,845.9065,79,673.0916,79,661.0916,67,673.0916,55" style="stroke:#181818;stroke-width:0.5;stroke-linejoin:miter;stroke-miterlimit:10;"/><text fill="#000000" font-family="Inter" font-size="11" lengthAdjust="spacing" textLength="14.6309" x="763.499" y="89.6563">C&#243;</text><text fill="#000000" font-family="Inter" font-size="11" lengthAdjust="spacing" textLength="172.8149" x="673.0916" y="71.0015">C&#7847;n ki&#7875;m tra signal tr&#234;n m&#7851;u l&#7899;n?</text><rect fill="#F1F1F1" height="34.5195" rx="12.5" ry="12.5" style="stroke:#181818;stroke-width:0.5;" width="204.7754" x="657.1113" y="112.3096"/><text fill="#000000" font-family="Inter" font-size="12" lengthAdjust="spacing" textLength="184.7754" x="667.1113" y="133.9346">Survey sau exploratory research</text><rect fill="#F1F1F1" height="34.5195" rx="12.5" ry="12.5" style="stroke:#181818;stroke-width:0.5;" width="253.6074" x="871.8867" y="108.6548"/><text fill="#000000" font-family="Inter" font-size="12" lengthAdjust="spacing" textLength="233.6074" x="881.8867" y="130.2798">Document analysis + interview/prototype</text><rect fill="#F1F1F1" height="34.5195" rx="12.5" ry="12.5" style="stroke:#181818;stroke-width:0.5;" width="197.082" x="477.2061" y="186.8291"/><text fill="#000000" font-family="Inter" font-size="12" lengthAdjust="spacing" textLength="177.082" x="487.2061" y="208.4541">Triangulate b&#7857;ng ngu&#7891;n th&#7913; hai</text><ellipse cx="575.7471" cy="252.3486" fill="none" rx="11" ry="11" style="stroke:#222222;stroke-width:1;"/><ellipse cx="575.7471" cy="252.3486" fill="#222222" rx="6" ry="6" style="stroke:#222222;stroke-width:1;"/><line style="stroke:#181818;stroke-width:1;" x1="116.6533" x2="116.6533" y1="79" y2="112.3096"/><polygon fill="#181818" points="112.6533,102.3096,116.6533,112.3096,120.6533,102.3096,116.6533,106.3096" style="stroke:#181818;stroke-width:1;stroke-linejoin:miter;stroke-miterlimit:10;"/><line style="stroke:#181818;stroke-width:1;" x1="116.6533" x2="116.6533" y1="146.8291" y2="166.8291"/><polygon fill="#181818" points="112.6533,156.8291,116.6533,166.8291,120.6533,156.8291,116.6533,160.8291" style="stroke:#181818;stroke-width:1;stroke-linejoin:miter;stroke-miterlimit:10;"/><line style="stroke:#181818;stroke-width:1;" x1="330.4397" x2="330.4397" y1="79" y2="112.3096"/><polygon fill="#181818" points="326.4397,102.3096,330.4397,112.3096,334.4397,102.3096,330.4397,106.3096" style="stroke:#181818;stroke-width:1;stroke-linejoin:miter;stroke-miterlimit:10;"/><line style="stroke:#181818;stroke-width:1;" x1="330.4397" x2="330.4397" y1="146.8291" y2="166.8291"/><polygon fill="#181818" points="326.4397,156.8291,330.4397,166.8291,334.4397,156.8291,330.4397,160.8291" style="stroke:#181818;stroke-width:1;stroke-linejoin:miter;stroke-miterlimit:10;"/><line style="stroke:#181818;stroke-width:1;" x1="540.342" x2="540.342" y1="79" y2="112.3096"/><polygon fill="#181818" points="536.342,102.3096,540.342,112.3096,544.342,102.3096,540.342,106.3096" style="stroke:#181818;stroke-width:1;stroke-linejoin:miter;stroke-miterlimit:10;"/><line style="stroke:#181818;stroke-width:1;" x1="540.342" x2="540.342" y1="146.8291" y2="166.8291"/><polygon fill="#181818" points="536.342,156.8291,540.342,166.8291,544.342,156.8291,540.342,160.8291" style="stroke:#181818;stroke-width:1;stroke-linejoin:miter;stroke-miterlimit:10;"/><line style="stroke:#181818;stroke-width:1;" x1="759.499" x2="759.499" y1="79" y2="112.3096"/><polygon fill="#181818" points="755.499,102.3096,759.499,112.3096,763.499,102.3096,759.499,106.3096" style="stroke:#181818;stroke-width:1;stroke-linejoin:miter;stroke-miterlimit:10;"/><line style="stroke:#181818;stroke-width:1;" x1="759.499" x2="759.499" y1="146.8291" y2="166.8291"/><polygon fill="#181818" points="755.499,156.8291,759.499,166.8291,763.499,156.8291,759.499,160.8291" style="stroke:#181818;stroke-width:1;stroke-linejoin:miter;stroke-miterlimit:10;"/><line style="stroke:#181818;stroke-width:1;" x1="194.6587" x2="237.3066" y1="67" y2="67"/><polygon fill="#181818" points="227.3066,63,237.3066,67,227.3066,71,231.3066,67" style="stroke:#181818;stroke-width:1;stroke-linejoin:miter;stroke-miterlimit:10;"/><line style="stroke:#181818;stroke-width:1;" x1="423.5728" x2="443.5728" y1="67" y2="67"/><polygon fill="#181818" points="433.5728,63,443.5728,67,433.5728,71,437.5728,67" style="stroke:#181818;stroke-width:1;stroke-linejoin:miter;stroke-miterlimit:10;"/><line style="stroke:#181818;stroke-width:1;" x1="637.1113" x2="661.0916" y1="67" y2="67"/><polygon fill="#181818" points="651.0916,63,661.0916,67,651.0916,71,655.0916,67" style="stroke:#181818;stroke-width:1;stroke-linejoin:miter;stroke-miterlimit:10;"/><line style="stroke:#181818;stroke-width:1;" x1="575.7471" x2="575.7471" y1="35" y2="40"/><line style="stroke:#181818;stroke-width:1;" x1="575.7471" x2="116.6533" y1="40" y2="40"/><line style="stroke:#181818;stroke-width:1;" x1="116.6533" x2="116.6533" y1="40" y2="55"/><polygon fill="#181818" points="112.6533,45,116.6533,55,120.6533,45,116.6533,49" style="stroke:#181818;stroke-width:1;stroke-linejoin:miter;stroke-miterlimit:10;"/><line style="stroke:#181818;stroke-width:1;" x1="857.9065" x2="998.6904" y1="67" y2="67"/><line style="stroke:#181818;stroke-width:1;" x1="998.6904" x2="998.6904" y1="67" y2="108.6548"/><polygon fill="#181818" points="994.6904,98.6548,998.6904,108.6548,1002.6904,98.6548,998.6904,102.6548" style="stroke:#181818;stroke-width:1;stroke-linejoin:miter;stroke-miterlimit:10;"/><line style="stroke:#181818;stroke-width:1;" x1="998.6904" x2="998.6904" y1="143.1743" y2="166.8291"/><polygon fill="#181818" points="994.6904,156.8291,998.6904,166.8291,1002.6904,156.8291,998.6904,160.8291" style="stroke:#181818;stroke-width:1;stroke-linejoin:miter;stroke-miterlimit:10;"/><line style="stroke:#181818;stroke-width:1;" x1="116.6533" x2="998.6904" y1="166.8291" y2="166.8291"/><line style="stroke:#181818;stroke-width:1;" x1="575.7471" x2="575.7471" y1="166.8291" y2="186.8291"/><polygon fill="#181818" points="571.7471,176.8291,575.7471,186.8291,579.7471,176.8291,575.7471,180.8291" style="stroke:#181818;stroke-width:1;stroke-linejoin:miter;stroke-miterlimit:10;"/><line style="stroke:#181818;stroke-width:1;" x1="575.7471" x2="575.7471" y1="221.3486" y2="241.3486"/><polygon fill="#181818" points="571.7471,231.3486,575.7471,241.3486,579.7471,231.3486,575.7471,235.3486" style="stroke:#181818;stroke-width:1;stroke-linejoin:miter;stroke-miterlimit:10;"/><?plantuml-src PP4nJWCn44NxFSMKH1GHRL9GW2BHG04NS1mdjh8xNkpn9bj6d01HqX0GYW1HH1H8te9YkOXlmYGKHAJyqlZDyny_DLWA9meOgR48EGqiqhae59mXAPTv4euoCuQ3anHN2AHJVAv1jm-eeJARtAmbK8fVnnrE2dco_UXa0BsBeLUk4cGiGXSaWzMSWiZ1u7KmhkvdAlTgXvtYqiBtRMhkSCAiaE8x0cgJcaM0OVkAUoi6GfhSa20rWfbrKwzjkODbkTKMk03PBXdLFY9ec-AdvC3hQf0fFXLxtAFU4Ljo0PLHi_-UKnQwAO2S06yco1yYnt9GfFWM84_D_RxePN2Lgi6B06fUvjO9igu6fxmIJkhV5Pl1Koj3eP10CBZsniFXdqctT9OirQNY1pWouwntvOp0ISYv0XYckERcE6ugtDxc1RGmVJwZBNy0?></g></svg>