<svg xmlns="http://www.w3.org/2000/svg" xmlns:xlink="http://www.w3.org/1999/xlink" contentStyleType="text/css" data-diagram-type="DESCRIPTION" height="384px" preserveAspectRatio="none" style="width:2213px;height:384px;background:#FFFFFF;" version="1.1" viewBox="0 0 1383 240" width="2213px" zoomAndPan="magnify"><?plantuml 1.2026.6?><defs/><g><!--entity S--><g class="entity" data-qualified-name="S" data-source-line="3" id="ent0001"><rect fill="#F1F1F1" height="53.8789" rx="2.5" ry="2.5" style="stroke:#181818;stroke-width:0.5;" width="84.7021" x="101" y="173"/><text fill="#000000" font-family="Inter" font-size="14" lengthAdjust="spacing" textLength="64.7021" x="111" y="196.5625">Observed</text><text fill="#000000" font-family="Inter" font-size="14" lengthAdjust="spacing" textLength="61.332" x="111" y="213.502">symptom</text></g><!--entity E--><g class="entity" data-qualified-name="E" data-source-line="4" id="ent0002"><rect fill="#F1F1F1" height="53.8789" rx="2.5" ry="2.5" style="stroke:#181818;stroke-width:0.5;" width="80.8398" x="498" y="64"/><text fill="#000000" font-family="Inter" font-size="14" lengthAdjust="spacing" textLength="60.8398" x="508" y="87.5625">Evidence</text><text fill="#000000" font-family="Inter" font-size="14" lengthAdjust="spacing" textLength="58.6934" x="508" y="104.502">+ source</text></g><!--entity C--><g class="entity" data-qualified-name="C" data-source-line="5" id="ent0003"><rect fill="#FFFFE0" height="53.8789" rx="2.5" ry="2.5" style="stroke:#181818;stroke-width:0.5;" width="97.0752" x="95" y="7"/><text fill="#000000" font-family="Inter" font-size="14" lengthAdjust="spacing" textLength="41.918" x="105" y="30.5625">Cause</text><text fill="#000000" font-family="Inter" font-size="14" lengthAdjust="spacing" textLength="77.0752" x="105" y="47.502">hypotheses</text></g><!--entity P--><g class="entity" data-qualified-name="P" data-source-line="6" id="ent0004"><rect fill="#F1F1F1" height="53.8789" rx="2.5" ry="2.5" style="stroke:#181818;stroke-width:0.5;" width="85.8506" x="769" y="64"/><text fill="#000000" font-family="Inter" font-size="14" lengthAdjust="spacing" textLength="54.9951" x="779" y="87.5625">Problem</text><text fill="#000000" font-family="Inter" font-size="14" lengthAdjust="spacing" textLength="65.8506" x="779" y="104.502">statement</text></g><!--entity O--><g class="entity" data-qualified-name="O" data-source-line="7" id="ent0005"><rect fill="#F1F1F1" height="53.8789" rx="2.5" ry="2.5" style="stroke:#181818;stroke-width:0.5;" width="80.5186" x="1019" y="64"/><text fill="#000000" font-family="Inter" font-size="14" lengthAdjust="spacing" textLength="59.4316" x="1029" y="87.5625">Business</text><text fill="#000000" font-family="Inter" font-size="14" lengthAdjust="spacing" textLength="60.5186" x="1029" y="104.502">objective</text></g><!--entity M--><g class="entity" data-qualified-name="M" data-source-line="8" id="ent0006"><rect fill="#F1F1F1" height="53.8789" rx="2.5" ry="2.5" style="stroke:#181818;stroke-width:0.5;" width="131.1934" x="1238" y="64"/><text fill="#000000" font-family="Inter" font-size="14" lengthAdjust="spacing" textLength="111.1934" x="1248" y="87.5625">Baseline &#183; Target</text><text fill="#000000" font-family="Inter" font-size="14" lengthAdjust="spacing" textLength="88.6279" x="1248" y="104.502">Time &#183; Owner</text></g><g class="entity" data-qualified-name="GMN13" data-source-line="16" id="ent0014"><path d="M6,96.5 L6,137.959 A0,0 0 0 0 6,137.959 L280.8809,137.959 A0,0 0 0 0 280.8809,137.959 L280.8809,106.5 L270.8809,96.5 L147.5,96.5 L143.5,61.23 L139.5,96.5 L6,96.5 A0,0 0 0 0 6,96.5" fill="#FEFFDD" style="stroke:#181818;stroke-width:0.5;"/><path d="M270.8809,96.5 L270.8809,106.5 L280.8809,106.5 L270.8809,96.5" fill="#FEFFDD" style="stroke:#181818;stroke-width:0.5;"/><text fill="#000000" font-family="Inter" font-size="13" lengthAdjust="spacing" textLength="164.1821" x="12" y="114.0938">Hypothesis ch&#432;a ph&#7843;i fact.</text><text fill="#000000" font-family="Inter" font-size="13" lengthAdjust="spacing" textLength="253.8809" x="12" y="129.8232">Gi&#7919; nhi&#7873;u gi&#7843; thuy&#7871;t &#273;&#7871;n khi c&#243; evidence.</text></g><!--link S to E--><g class="link" data-entity-1="ent0001" data-entity-2="ent0002" data-link-type="dependency" data-source-line="9" id="lnk7"><path d="M186.01,193.81 C248.46,183.76 369.75,161.39 468,126 C477.91,122.43 483.7604,120.0111 493.3204,115.2711" fill="none" id="S-to-E" style="stroke:#181818;stroke-width:1;"/><polygon fill="#181818" points="497.8,113.05,487.9599,113.4642,493.3204,115.2711,491.5136,120.6316,497.8,113.05" style="stroke:#181818;stroke-width:1;stroke-linejoin:miter;stroke-miterlimit:10;"/><text fill="#000000" font-family="Inter" font-size="13" lengthAdjust="spacing" textLength="49.353" x="365" y="122.5938">ki&#7875;m tra</text></g><!--link E to C--><g class="link" data-entity-1="ent0002" data-entity-2="ent0003" data-link-type="dependency" data-source-line="10" id="lnk8"><path d="M497.82,93.01 C488.07,93.42 477.66,93.79 468,94 C398.24,95.5 378.91,110.03 311,94 C296.49,90.58 294.78,84.68 281,79 C252.05,67.06 223.4581,57.4931 196.9581,49.3231" fill="none" id="E-to-C" style="stroke:#181818;stroke-width:1;"/><polygon fill="#181818" points="192.18,47.85,199.6021,54.324,196.9581,49.3231,201.959,46.6791,192.18,47.85" style="stroke:#181818;stroke-width:1;stroke-linejoin:miter;stroke-miterlimit:10;"/><text fill="#000000" font-family="Inter" font-size="13" lengthAdjust="spacing" textLength="97.481" x="341" y="90.5938">gi&#7843;i th&#237;ch c&#243; th&#7875;</text></g><!--link C to E--><g class="link" data-entity-1="ent0003" data-entity-2="ent0002" data-link-type="dependency" data-source-line="11" id="lnk9"><path d="M192.22,37.75 C255.6,43.18 370.86,54.65 468,73 C477.68,74.83 483.1562,76.0002 492.8062,78.4702" fill="none" id="C-to-E" style="stroke:#181818;stroke-width:1;"/><polygon fill="#181818" points="497.65,79.71,489.9229,73.6032,492.8062,78.4702,487.9392,81.3534,497.65,79.71" style="stroke:#181818;stroke-width:1;stroke-linejoin:miter;stroke-miterlimit:10;"/><text fill="#000000" font-family="Inter" font-size="13" lengthAdjust="spacing" textLength="155.4668" x="312" y="46.5938">t&#236;m evidence ph&#7843;n ch&#7913;ng</text></g><!--link E to P--><g class="link" data-entity-1="ent0002" data-entity-2="ent0004" data-link-type="dependency" data-source-line="12" id="lnk10"><path d="M579.27,91 C629.94,91 712.13,91 763.89,91" fill="none" id="E-to-P" style="stroke:#181818;stroke-width:1;"/><polygon fill="#181818" points="768.89,91,759.89,87,763.89,91,759.89,95,768.89,91" style="stroke:#181818;stroke-width:1;stroke-linejoin:miter;stroke-miterlimit:10;"/><text fill="#000000" font-family="Inter" font-size="13" lengthAdjust="spacing" textLength="128.2861" x="610" y="87.5938">ch&#7889;t impact c&#243; c&#417; s&#7903;</text></g><!--link P to O--><g class="link" data-entity-1="ent0004" data-entity-2="ent0005" data-link-type="dependency" data-source-line="13" id="lnk11"><path d="M855.2,91 C901.13,91 968.99,91 1013.88,91" fill="none" id="P-to-O" style="stroke:#181818;stroke-width:1;"/><polygon fill="#181818" points="1018.88,91,1009.88,87,1013.88,91,1009.88,95,1018.88,91" style="stroke:#181818;stroke-width:1;stroke-linejoin:miter;stroke-miterlimit:10;"/><text fill="#000000" font-family="Inter" font-size="13" lengthAdjust="spacing" textLength="102.5464" x="886" y="87.5938">outcome c&#7847;n &#273;&#7893;i</text></g><!--link O to M--><g class="link" data-entity-1="ent0005" data-entity-2="ent0006" data-link-type="dependency" data-source-line="14" id="lnk12"><path d="M1100.19,91 C1137.47,91 1188.91,91 1232.71,91" fill="none" id="O-to-M" style="stroke:#181818;stroke-width:1;"/><polygon fill="#181818" points="1237.71,91,1228.71,87,1232.71,91,1228.71,95,1237.71,91" style="stroke:#181818;stroke-width:1;stroke-linejoin:miter;stroke-miterlimit:10;"/><text fill="#000000" font-family="Inter" font-size="13" lengthAdjust="spacing" textLength="76.1021" x="1131" y="87.5938">l&#224;m &#273;o &#273;&#432;&#7907;c</text></g><?plantuml-src LP6zRXin3CTtFGMHZaNo01awzE1-04dEGB84y2Bhw3l59-eWyHnu3F846JAtHOQYG8C4w5307WB4WT_ZtYGysIdSGQ14_iW_ISMffKO7xQ30YMvh_kI9JxH3-4gCGTKuOM0FmPOLGs436hQUL6yrbJN2NZwE66POZ2ZENSFUxO6ESBgB36QsG38uelSGVHiC9cQmosIwZG9KyyPpXH5ZGZ9uTzHBdsDT-yjTVXZyk4OdggmP7HAdXE4kyx6DbZ364VdnHT_vR2ES_mVfYBLWyFmNpdGeaKTqPbrwvvU48QKSgrFOt_y00pY4gUsMrmuuQ3L8paoSfUqMTnQuMjsR2ipgZrm5Kzc_D5xzTe3RLK1J2KzW1Ff5vRRGKB3USyDWNQCDfq9c_GDYj_ocXWdA1V8j6oyzccxna-3bfblUMfMdyB64wzLt9rulP_tOBU-C8iy8Oy_oF-0daAalsqNRA8hhHxrfoC94L0_KPndn0QWISzLkPfDvsdctUE9URl54CAriQkzjf0E5L40lz0e0?></g></svg>