<svg xmlns="http://www.w3.org/2000/svg" xmlns:xlink="http://www.w3.org/1999/xlink" contentStyleType="text/css" data-diagram-type="ACTIVITY" height="941px" preserveAspectRatio="none" style="width:598px;height:941px;background:#FFFFFF;" version="1.1" viewBox="0 0 374 588" width="598px" zoomAndPan="magnify"><?plantuml 1.2026.6?><defs/><g><ellipse cx="171.8896" cy="25" fill="#222222" rx="10" ry="10" style="stroke:#222222;stroke-width:1;"/><rect fill="#F1F1F1" height="34.5195" rx="12.5" ry="12.5" style="stroke:#181818;stroke-width:0.5;" width="231.7871" x="55.9961" y="55"/><text fill="#000000" font-family="Inter" font-size="12" lengthAdjust="spacing" textLength="211.7871" x="65.9961" y="76.625">M&#7903; &#273;&#7847;u: purpose, consent, th&#7901;i l&#432;&#7907;ng</text><rect fill="#F1F1F1" height="34.5195" rx="12.5" ry="12.5" style="stroke:#181818;stroke-width:0.5;" width="164.7734" x="89.5029" y="109.5195"/><text fill="#000000" font-family="Inter" font-size="12" lengthAdjust="spacing" textLength="144.7734" x="99.5029" y="131.1445">Warm-up: role v&#224; context</text><rect fill="#F1F1F1" height="34.5195" rx="12.5" ry="12.5" style="stroke:#181818;stroke-width:0.5;" width="160.8477" x="91.4658" y="164.0391"/><text fill="#000000" font-family="Inter" font-size="12" lengthAdjust="spacing" textLength="140.8477" x="101.4658" y="185.6641">M&#7903; r&#7897;ng: k&#7875; l&#7847;n g&#7847;n nh&#7845;t</text><rect fill="#F1F1F1" height="34.5195" rx="12.5" ry="12.5" style="stroke:#181818;stroke-width:0.5;" width="311.7793" x="16" y="262.5586"/><text fill="#000000" font-family="Inter" font-size="12" lengthAdjust="spacing" textLength="291.7793" x="26" y="284.1836">Probe behavior, evidence, exception, consequence</text><polygon fill="#F1F1F1" points="171.8896,218.5586,183.8896,230.5586,171.8896,242.5586,159.8896,230.5586,171.8896,218.5586" style="stroke:#181818;stroke-width:0.5;stroke-linejoin:miter;stroke-miterlimit:10;"/><polygon fill="#F1F1F1" points="117.2952,317.0781,226.4841,317.0781,238.4841,329.0781,226.4841,341.0781,117.2952,341.0781,105.2952,329.0781,117.2952,317.0781" style="stroke:#181818;stroke-width:0.5;stroke-linejoin:miter;stroke-miterlimit:10;"/><text fill="#000000" font-family="Inter" font-size="11" lengthAdjust="spacing" textLength="109.189" x="117.2952" y="333.0796">C&#242;n gap quan tr&#7885;ng?</text><text fill="#000000" font-family="Inter" font-size="11" lengthAdjust="spacing" textLength="14.6309" x="238.4841" y="326.4248">C&#243;</text><rect fill="#F1F1F1" height="34.5195" rx="12.5" ry="12.5" style="stroke:#181818;stroke-width:0.5;" width="280.9531" x="31.4131" y="383.041"/><text fill="#000000" font-family="Inter" font-size="12" lengthAdjust="spacing" textLength="260.9531" x="41.4131" y="404.666">Playback fact, interpretation v&#224; open question</text><rect fill="#F1F1F1" height="34.5195" rx="12.5" ry="12.5" style="stroke:#181818;stroke-width:0.5;" width="190.666" x="76.5566" y="437.5605"/><text fill="#000000" font-family="Inter" font-size="12" lengthAdjust="spacing" textLength="170.666" x="86.5566" y="459.1855">Participant s&#7917;a ho&#7863;c x&#225;c nh&#7853;n</text><rect fill="#F1F1F1" height="34.5195" rx="12.5" ry="12.5" style="stroke:#181818;stroke-width:0.5;" width="177.5586" x="83.1104" y="492.0801"/><text fill="#000000" font-family="Inter" font-size="12" lengthAdjust="spacing" textLength="157.5586" x="93.1104" y="513.7051">Ch&#7889;t next step v&#224; follow-up</text><ellipse cx="171.8896" cy="557.5996" fill="none" rx="11" ry="11" style="stroke:#222222;stroke-width:1;"/><ellipse cx="171.8896" cy="557.5996" fill="#222222" rx="6" ry="6" style="stroke:#222222;stroke-width:1;"/><line style="stroke:#181818;stroke-width:1;" x1="171.8896" x2="171.8896" y1="35" y2="55"/><polygon fill="#181818" points="167.8896,45,171.8896,55,175.8896,45,171.8896,49" style="stroke:#181818;stroke-width:1;stroke-linejoin:miter;stroke-miterlimit:10;"/><line style="stroke:#181818;stroke-width:1;" x1="171.8896" x2="171.8896" y1="89.5195" y2="109.5195"/><polygon fill="#181818" points="167.8896,99.5195,171.8896,109.5195,175.8896,99.5195,171.8896,103.5195" style="stroke:#181818;stroke-width:1;stroke-linejoin:miter;stroke-miterlimit:10;"/><line style="stroke:#181818;stroke-width:1;" x1="171.8896" x2="171.8896" y1="144.0391" y2="164.0391"/><polygon fill="#181818" points="167.8896,154.0391,171.8896,164.0391,175.8896,154.0391,171.8896,158.0391" style="stroke:#181818;stroke-width:1;stroke-linejoin:miter;stroke-miterlimit:10;"/><line style="stroke:#181818;stroke-width:1;" x1="171.8896" x2="171.8896" y1="242.5586" y2="262.5586"/><polygon fill="#181818" points="167.8896,252.5586,171.8896,262.5586,175.8896,252.5586,171.8896,256.5586" style="stroke:#181818;stroke-width:1;stroke-linejoin:miter;stroke-miterlimit:10;"/><line style="stroke:#181818;stroke-width:1;" x1="238.4841" x2="339.7793" y1="329.0781" y2="329.0781"/><polygon fill="#181818" points="335.7793,289.8184,339.7793,279.8184,343.7793,289.8184,339.7793,285.8184" style="stroke:#181818;stroke-width:1;stroke-linejoin:miter;stroke-miterlimit:10;"/><line style="stroke:#181818;stroke-width:1;" x1="339.7793" x2="339.7793" y1="230.5586" y2="329.0781"/><line style="stroke:#181818;stroke-width:1;" x1="339.7793" x2="183.8896" y1="230.5586" y2="230.5586"/><polygon fill="#181818" points="193.8896,226.5586,183.8896,230.5586,193.8896,234.5586,189.8896,230.5586" style="stroke:#181818;stroke-width:1;stroke-linejoin:miter;stroke-miterlimit:10;"/><line style="stroke:#181818;stroke-width:1;" x1="171.8896" x2="171.8896" y1="297.0781" y2="317.0781"/><polygon fill="#181818" points="167.8896,307.0781,171.8896,317.0781,175.8896,307.0781,171.8896,311.0781" style="stroke:#181818;stroke-width:1;stroke-linejoin:miter;stroke-miterlimit:10;"/><line style="stroke:#181818;stroke-width:1;" x1="171.8896" x2="171.8896" y1="198.5586" y2="218.5586"/><polygon fill="#181818" points="167.8896,208.5586,171.8896,218.5586,175.8896,208.5586,171.8896,212.5586" style="stroke:#181818;stroke-width:1;stroke-linejoin:miter;stroke-miterlimit:10;"/><line style="stroke:#181818;stroke-width:1;" x1="171.8896" x2="171.8896" y1="341.0781" y2="383.041"/><polygon fill="#181818" points="167.8896,373.041,171.8896,383.041,175.8896,373.041,171.8896,377.041" style="stroke:#181818;stroke-width:1;stroke-linejoin:miter;stroke-miterlimit:10;"/><text fill="#000000" font-family="Inter" font-size="11" lengthAdjust="spacing" textLength="33.7358" x="175.8896" y="362.8877">Kh&#244;ng</text><line style="stroke:#181818;stroke-width:1;" x1="171.8896" x2="171.8896" y1="417.5605" y2="437.5605"/><polygon fill="#181818" points="167.8896,427.5605,171.8896,437.5605,175.8896,427.5605,171.8896,431.5605" style="stroke:#181818;stroke-width:1;stroke-linejoin:miter;stroke-miterlimit:10;"/><line style="stroke:#181818;stroke-width:1;" x1="171.8896" x2="171.8896" y1="472.0801" y2="492.0801"/><polygon fill="#181818" points="167.8896,482.0801,171.8896,492.0801,175.8896,482.0801,171.8896,486.0801" style="stroke:#181818;stroke-width:1;stroke-linejoin:miter;stroke-miterlimit:10;"/><line style="stroke:#181818;stroke-width:1;" x1="171.8896" x2="171.8896" y1="526.5996" y2="546.5996"/><polygon fill="#181818" points="167.8896,536.5996,171.8896,546.5996,175.8896,536.5996,171.8896,540.5996" style="stroke:#181818;stroke-width:1;stroke-linejoin:miter;stroke-miterlimit:10;"/><?plantuml-src DP2nIWD148RxUuef3IGlS04j0eA8aivwifdSBRdCRdRdabXRMwIq41KHgu2e8EJAaxp7lecxHsoscFtd_-V__5opHOSBcD8CwqhE3SirBWWkMCXbNj19bb-5vWb-js7_NkTWQsUDfpuemvvO-Y1bQ1urL8UFqBnoCSpo6tIBGMrpSAOYMBNFIIoqaU7Hp8NcWOiSvg6vWoeQCnJTosNOlqMP8qie6K0-TcP2CA4ILzguFj1AJubLF80sYgnemyTRbdMQ_-_2kjGn_6JKVaPpjB2iaK5YyZqNPptGFlrzzRB1ALoMxNTt-BZ2smcgESnGnMOwKR2E15DCLyHOucX5FatIHYIabRR80ZuqEuJIXFsFWatxehewkoGRHKPR0OuCm0lPpcjcgigi8wXX96ti7m00?></g></svg>