<svg xmlns="http://www.w3.org/2000/svg" xmlns:xlink="http://www.w3.org/1999/xlink" contentStyleType="text/css" data-diagram-type="ACTIVITY" height="722px" preserveAspectRatio="none" style="width:1115px;height:722px;background:#FFFFFF;" version="1.1" viewBox="0 0 697 451" width="1115px" zoomAndPan="magnify"><?plantuml 1.2026.6?><defs/><g><ellipse cx="356.9113" cy="25" fill="#222222" rx="10" ry="10" style="stroke:#222222;stroke-width:1;"/><rect fill="#F1F1F1" height="38.1494" rx="12.5" ry="12.5" style="stroke:#181818;stroke-width:0.5;" width="226.228" x="243.7972" y="55"/><text fill="#000000" font-family="Inter" font-size="15" lengthAdjust="spacing" textLength="206.228" x="253.7972" y="79.5313">Stakeholder y&#234;u c&#7847;u thay &#273;&#7893;i</text><rect fill="#F1F1F1" height="38.1494" rx="12.5" ry="12.5" style="stroke:#181818;stroke-width:0.5;" width="229.3628" x="242.2299" y="113.1494"/><text fill="#000000" font-family="Inter" font-size="15" lengthAdjust="spacing" textLength="209.3628" x="252.2299" y="137.6807">BA ph&#226;n t&#237;ch impact (6 chi&#7873;u)</text><rect fill="#F1F1F1" height="38.1494" rx="12.5" ry="12.5" style="stroke:#181818;stroke-width:0.5;" width="349.458" x="182.1823" y="171.2988"/><text fill="#000000" font-family="Inter" font-size="15" lengthAdjust="spacing" textLength="329.458" x="192.1823" y="195.8301">BA &#273;&#432;a 3 option (l&#224;m ngay / ho&#227;n / kh&#244;ng l&#224;m)</text><polygon fill="#F1F1F1" points="258.8656,229.4482,454.9569,229.4482,466.9569,241.4482,454.9569,253.4482,258.8656,253.4482,246.8656,241.4482,258.8656,229.4482" style="stroke:#181818;stroke-width:0.5;stroke-linejoin:miter;stroke-miterlimit:10;"/><text fill="#000000" font-family="Inter" font-size="15" lengthAdjust="spacing" textLength="196.0913" x="258.8656" y="246.9048">Decision owner ch&#7845;p nh&#7853;n?</text><text fill="#000000" font-family="Inter" font-size="15" lengthAdjust="spacing" textLength="19.9512" x="226.9144" y="237.8301">C&#243;</text><text fill="#000000" font-family="Inter" font-size="15" lengthAdjust="spacing" textLength="46.0034" x="466.9569" y="237.8301">Kh&#244;ng</text><rect fill="#F1F1F1" height="38.1494" rx="12.5" ry="12.5" style="stroke:#181818;stroke-width:0.5;" width="267.6245" x="52.8152" y="263.4482"/><text fill="#000000" font-family="Inter" font-size="15" lengthAdjust="spacing" textLength="247.6245" x="62.8152" y="287.9795">C&#7853;p nh&#7853;t backlog (story/AC/sprint)</text><rect fill="#F1F1F1" height="38.1494" rx="12.5" ry="12.5" style="stroke:#181818;stroke-width:0.5;" width="341.2549" x="16" y="321.5977"/><text fill="#000000" font-family="Inter" font-size="15" lengthAdjust="spacing" textLength="321.2549" x="26" y="346.1289">Th&#244;ng b&#225;o team v&#224; stakeholder b&#7883; &#7843;nh h&#432;&#7903;ng</text><rect fill="#F1F1F1" height="38.1494" rx="12.5" ry="12.5" style="stroke:#181818;stroke-width:0.5;" width="299.8804" x="377.2549" y="263.4482"/><text fill="#000000" font-family="Inter" font-size="15" lengthAdjust="spacing" textLength="279.8804" x="387.2549" y="287.9795">Ghi rationale + ng&#432;&#7901;i quy&#7871;t &#273;&#7883;nh + ng&#224;y</text><rect fill="#F1F1F1" height="38.1494" rx="12.5" ry="12.5" style="stroke:#181818;stroke-width:0.5;" width="173.0029" x="440.6936" y="321.5977"/><text fill="#000000" font-family="Inter" font-size="15" lengthAdjust="spacing" textLength="153.0029" x="450.6936" y="346.1289">&#272;&#243;ng change request</text><polygon fill="#F1F1F1" points="356.9113,365.7471,368.9113,377.7471,356.9113,389.7471,344.9113,377.7471,356.9113,365.7471" style="stroke:#181818;stroke-width:0.5;stroke-linejoin:miter;stroke-miterlimit:10;"/><ellipse cx="356.9113" cy="420.7471" fill="none" rx="11" ry="11" style="stroke:#222222;stroke-width:1;"/><ellipse cx="356.9113" cy="420.7471" fill="#222222" rx="6" ry="6" style="stroke:#222222;stroke-width:1;"/><line style="stroke:#181818;stroke-width:1;" x1="356.9113" x2="356.9113" y1="35" y2="55"/><polygon fill="#181818" points="352.9113,45,356.9113,55,360.9113,45,356.9113,49" style="stroke:#181818;stroke-width:1;stroke-linejoin:miter;stroke-miterlimit:10;"/><line style="stroke:#181818;stroke-width:1;" x1="356.9113" x2="356.9113" y1="93.1494" y2="113.1494"/><polygon fill="#181818" points="352.9113,103.1494,356.9113,113.1494,360.9113,103.1494,356.9113,107.1494" style="stroke:#181818;stroke-width:1;stroke-linejoin:miter;stroke-miterlimit:10;"/><line style="stroke:#181818;stroke-width:1;" x1="356.9113" x2="356.9113" y1="151.2988" y2="171.2988"/><polygon fill="#181818" points="352.9113,161.2988,356.9113,171.2988,360.9113,161.2988,356.9113,165.2988" style="stroke:#181818;stroke-width:1;stroke-linejoin:miter;stroke-miterlimit:10;"/><line style="stroke:#181818;stroke-width:1;" x1="186.6274" x2="186.6274" y1="301.5977" y2="321.5977"/><polygon fill="#181818" points="182.6274,311.5977,186.6274,321.5977,190.6274,311.5977,186.6274,315.5977" style="stroke:#181818;stroke-width:1;stroke-linejoin:miter;stroke-miterlimit:10;"/><line style="stroke:#181818;stroke-width:1;" x1="527.1951" x2="527.1951" y1="301.5977" y2="321.5977"/><polygon fill="#181818" points="523.1951,311.5977,527.1951,321.5977,531.1951,311.5977,527.1951,315.5977" style="stroke:#181818;stroke-width:1;stroke-linejoin:miter;stroke-miterlimit:10;"/><line style="stroke:#181818;stroke-width:1;" x1="246.8656" x2="186.6274" y1="241.4482" y2="241.4482"/><line style="stroke:#181818;stroke-width:1;" x1="186.6274" x2="186.6274" y1="241.4482" y2="263.4482"/><polygon fill="#181818" points="182.6274,253.4482,186.6274,263.4482,190.6274,253.4482,186.6274,257.4482" style="stroke:#181818;stroke-width:1;stroke-linejoin:miter;stroke-miterlimit:10;"/><line style="stroke:#181818;stroke-width:1;" x1="466.9569" x2="527.1951" y1="241.4482" y2="241.4482"/><line style="stroke:#181818;stroke-width:1;" x1="527.1951" x2="527.1951" y1="241.4482" y2="263.4482"/><polygon fill="#181818" points="523.1951,253.4482,527.1951,263.4482,531.1951,253.4482,527.1951,257.4482" style="stroke:#181818;stroke-width:1;stroke-linejoin:miter;stroke-miterlimit:10;"/><line style="stroke:#181818;stroke-width:1;" x1="186.6274" x2="186.6274" y1="359.7471" y2="377.7471"/><line style="stroke:#181818;stroke-width:1;" x1="186.6274" x2="344.9113" y1="377.7471" y2="377.7471"/><polygon fill="#181818" points="334.9113,373.7471,344.9113,377.7471,334.9113,381.7471,338.9113,377.7471" style="stroke:#181818;stroke-width:1;stroke-linejoin:miter;stroke-miterlimit:10;"/><line style="stroke:#181818;stroke-width:1;" x1="527.1951" x2="527.1951" y1="359.7471" y2="377.7471"/><line style="stroke:#181818;stroke-width:1;" x1="527.1951" x2="368.9113" y1="377.7471" y2="377.7471"/><polygon fill="#181818" points="378.9113,373.7471,368.9113,377.7471,378.9113,381.7471,374.9113,377.7471" style="stroke:#181818;stroke-width:1;stroke-linejoin:miter;stroke-miterlimit:10;"/><line style="stroke:#181818;stroke-width:1;" x1="356.9113" x2="356.9113" y1="209.4482" y2="229.4482"/><polygon fill="#181818" points="352.9113,219.4482,356.9113,229.4482,360.9113,219.4482,356.9113,223.4482" style="stroke:#181818;stroke-width:1;stroke-linejoin:miter;stroke-miterlimit:10;"/><line style="stroke:#181818;stroke-width:1;" x1="356.9113" x2="356.9113" y1="389.7471" y2="409.7471"/><polygon fill="#181818" points="352.9113,399.7471,356.9113,409.7471,360.9113,399.7471,356.9113,403.7471" style="stroke:#181818;stroke-width:1;stroke-linejoin:miter;stroke-miterlimit:10;"/><?plantuml-src RL2nIWD15EplAwQyO154j4WAYH5519lu0vlBvdQvkztBxfvoTjPfJ64fHeC8WX28LQwms93_s3znxs9XOVNWpRoPDwCJBdAYI8OH7PCYDMTIc2kIKLm8GrMW_yC7_8vY_p3GXYWJT0Q699J9T4GLIljH87BhzmA6aHARcQiUUJVedFIGC_igOEndnC2pd4G6uH4YnbrrNxHsdCrikoGuWCmDbm9XQkSPHEoLsc3IBeIV2RDV8aOD-Ii-HdXA8wvhlhmL_ec8kVLR3k77fpXk-K-eb-hRLIi0Eds__GKDXYHAKXaZr4QgijthjtMkk31Us5ElTqv3-o9Xg2_XniwX_yGTkceAjru81hPTkkfPnDs0ffeYl6nk6yTpng587OYa57i-JyrzufWKfLj_cwQbgTUe8Jil6-_DWrrvxuWH4LCeEYceDbvSZFZODo_p7m00?></g></svg>