<svg xmlns="http://www.w3.org/2000/svg" xmlns:xlink="http://www.w3.org/1999/xlink" contentStyleType="text/css" data-diagram-type="DESCRIPTION" height="869px" preserveAspectRatio="none" style="width:1299px;height:869px;background:#FFFFFF;" version="1.1" viewBox="0 0 812 543" width="1299px" zoomAndPan="magnify"><?plantuml 1.2026.6?><defs/><g><!--entity Employee--><g class="entity" data-qualified-name="Employee" data-source-line="3" id="ent0001"><ellipse cx="764.6143" cy="238" fill="#F1F1F1" rx="8" ry="8" style="stroke:#181818;stroke-width:0.5;"/><path d="M764.6143,246 L764.6143,273 M751.6143,254 L777.6143,254 M764.6143,273 L751.6143,288 M764.6143,273 L777.6143,288" fill="none" style="stroke:#181818;stroke-width:0.5;"/><text fill="#000000" font-family="Inter" font-size="14" lengthAdjust="spacing" textLength="65.2285" x="732" y="303.0625">Employee</text></g><!--entity Manager--><g class="entity" data-qualified-name="Manager" data-source-line="4" id="ent0002"><ellipse cx="48.8296" cy="14" fill="#F1F1F1" rx="8" ry="8" style="stroke:#181818;stroke-width:0.5;"/><path d="M48.8296,22 L48.8296,49 M35.8296,30 L61.8296,30 M48.8296,49 L35.8296,64 M48.8296,49 L61.8296,64" fill="none" style="stroke:#181818;stroke-width:0.5;"/><text fill="#000000" font-family="Inter" font-size="14" lengthAdjust="spacing" textLength="58.6592" x="19.5" y="79.0625">Manager</text></g><!--entity Procurement--><g class="entity" data-qualified-name="Procurement" data-source-line="5" id="ent0003"><ellipse cx="48.7964" cy="126" fill="#F1F1F1" rx="8" ry="8" style="stroke:#181818;stroke-width:0.5;"/><path d="M48.7964,134 L48.7964,161 M35.7964,142 L61.7964,142 M48.7964,161 L35.7964,176 M48.7964,161 L61.7964,176" fill="none" style="stroke:#181818;stroke-width:0.5;"/><text fill="#000000" font-family="Inter" font-size="14" lengthAdjust="spacing" textLength="85.5928" x="6" y="191.0625">Procurement</text></g><!--entity Finance--><g class="entity" data-qualified-name="Finance" data-source-line="6" id="ent0004"><ellipse cx="49.1099" cy="238" fill="#F1F1F1" rx="8" ry="8" style="stroke:#181818;stroke-width:0.5;"/><path d="M49.1099,246 L49.1099,273 M36.1099,254 L62.1099,254 M49.1099,273 L36.1099,288 M49.1099,273 L62.1099,288" fill="none" style="stroke:#181818;stroke-width:0.5;"/><text fill="#000000" font-family="Inter" font-size="14" lengthAdjust="spacing" textLength="52.2197" x="23" y="303.0625">Finance</text></g><!--entity IT--><g class="entity" data-qualified-name="IT" data-source-line="7" id="ent0005"><ellipse cx="49" cy="350" fill="#F1F1F1" rx="8" ry="8" style="stroke:#181818;stroke-width:0.5;"/><path d="M49,358 L49,385 M36,366 L62,366 M49,385 L36,400 M49,385 L62,400" fill="none" style="stroke:#181818;stroke-width:0.5;"/><text fill="#000000" font-family="Inter" font-size="14" lengthAdjust="spacing" textLength="12.7969" x="42.6016" y="415.0625">IT</text></g><!--entity Security--><g class="entity" data-qualified-name="Security" data-source-line="8" id="ent0006"><ellipse cx="48.7651" cy="462" fill="#F1F1F1" rx="8" ry="8" style="stroke:#181818;stroke-width:0.5;"/><path d="M48.7651,470 L48.7651,497 M35.7651,478 L61.7651,478 M48.7651,497 L35.7651,512 M48.7651,497 L61.7651,512" fill="none" style="stroke:#181818;stroke-width:0.5;"/><text fill="#000000" font-family="Inter" font-size="14" lengthAdjust="spacing" textLength="54.5303" x="21.5" y="527.0625">Security</text></g><!--entity Scope--><g class="entity" data-qualified-name="Scope" data-source-line="9" id="ent0007"><rect fill="#ADD8E6" height="53.8789" rx="2.5" ry="2.5" style="stroke:#181818;stroke-width:0.5;" width="155.1875" x="355" y="241"/><text fill="#000000" font-family="Inter" font-size="14" lengthAdjust="spacing" textLength="135.1875" x="365" y="264.5625">Y&#234;u c&#7847;u mua thi&#7871;t b&#7883;</text><text fill="#000000" font-family="Inter" font-size="14" lengthAdjust="spacing" textLength="119.5811" x="365" y="281.502">(scope discovery)</text></g><g class="entity" data-qualified-name="GMN15" data-source-line="18" id="ent0016"><path d="M303,330.5 L303,371.959 A0,0 0 0 0 303,371.959 L562.2021,371.959 A0,0 0 0 0 562.2021,371.959 L562.2021,340.5 L552.2021,330.5 L436.5,330.5 L432.5,295.23 L428.5,330.5 L303,330.5 A0,0 0 0 0 303,330.5" fill="#FEFFDD" style="stroke:#181818;stroke-width:0.5;"/><path d="M552.2021,330.5 L552.2021,340.5 L562.2021,340.5 L552.2021,330.5" fill="#FEFFDD" style="stroke:#181818;stroke-width:0.5;"/><text fill="#000000" font-family="Inter" font-size="13" lengthAdjust="spacing" textLength="188.4619" x="309" y="348.0938">BA c&#7847;n c&#7843; ng&#432;&#7901;i bi&#7871;t quy tr&#236;nh,</text><text fill="#000000" font-family="Inter" font-size="13" lengthAdjust="spacing" textLength="238.2021" x="309" y="363.8232">ng&#432;&#7901;i quy&#7871;t &#273;&#7883;nh v&#224; ng&#432;&#7901;i ch&#7883;u impact.</text></g><!--link Employee to Scope--><g class="link" data-entity-1="ent0001" data-entity-2="ent0007" data-link-type="dependency" data-source-line="10" id="lnk8"><path d="M731.71,287.55 C722.46,292.24 712.12,296.59 702,299 C638.32,314.14 569.1768,304.7264 515.0068,291.9664" fill="none" id="Employee-to-Scope" style="stroke:#181818;stroke-width:1;"/><polygon fill="#181818" points="510.14,290.82,517.9831,296.777,515.0068,291.9664,519.8174,288.9901,510.14,290.82" style="stroke:#181818;stroke-width:1;stroke-linejoin:miter;stroke-miterlimit:10;"/><text fill="#000000" font-family="Inter" font-size="13" lengthAdjust="spacing" textLength="108.8179" x="593" y="295.5938">need &#183; status pain</text></g><!--link Scope to Employee--><g class="link" data-entity-1="ent0007" data-entity-2="ent0001" data-link-type="dependency" data-source-line="16" id="lnk14"><path d="M510.04,268 C580.3,268 675.94,268 726.67,268" fill="none" id="Scope-to-Employee" style="stroke:#181818;stroke-width:1;"/><polygon fill="#181818" points="731.67,268,722.67,264,726.67,268,722.67,272,731.67,268" style="stroke:#181818;stroke-width:1;stroke-linejoin:miter;stroke-miterlimit:10;"/><text fill="#000000" font-family="Inter" font-size="13" lengthAdjust="spacing" textLength="102.1973" x="596" y="264.5938">outcome &#183; status</text></g><!--link Manager to Scope--><g class="link" data-entity-1="ent0002" data-entity-2="ent0007" data-link-type="dependency" data-source-line="11" id="lnk9"><path d="M78.63,56.08 C121.89,74.76 205.96,112.71 273,153 C318.02,180.06 362.4935,213.2572 393.8035,237.7772" fill="none" id="Manager-to-Scope" style="stroke:#181818;stroke-width:1;"/><polygon fill="#181818" points="397.74,240.86,393.1205,232.1617,393.8035,237.7772,388.188,238.4601,397.74,240.86" style="stroke:#181818;stroke-width:1;stroke-linejoin:miter;stroke-miterlimit:10;"/><text fill="#000000" font-family="Inter" font-size="13" lengthAdjust="spacing" textLength="80.6279" x="157.5" y="74.5938">approval rule</text></g><!--link Procurement to Scope--><g class="link" data-entity-1="ent0003" data-entity-2="ent0007" data-link-type="dependency" data-source-line="12" id="lnk10"><path d="M92.28,168.41 C155.53,186.98 270.9624,220.8717 349.9624,244.0617" fill="none" id="Procurement-to-Scope" style="stroke:#181818;stroke-width:1;"/><polygon fill="#181818" points="354.76,245.47,347.251,239.097,349.9624,244.0617,344.9977,246.7731,354.76,245.47" style="stroke:#181818;stroke-width:1;stroke-linejoin:miter;stroke-miterlimit:10;"/><text fill="#000000" font-family="Inter" font-size="13" lengthAdjust="spacing" textLength="134.1196" x="130.5" y="174.5938">process &#183; vendor data</text></g><!--link Finance to Scope--><g class="link" data-entity-1="ent0004" data-entity-2="ent0007" data-link-type="dependency" data-source-line="13" id="lnk11"><path d="M75.03,268 C130.9,268 262.65,268 349.61,268" fill="none" id="Finance-to-Scope" style="stroke:#181818;stroke-width:1;"/><polygon fill="#181818" points="354.61,268,345.61,264,349.61,268,345.61,272,354.61,268" style="stroke:#181818;stroke-width:1;stroke-linejoin:miter;stroke-miterlimit:10;"/><text fill="#000000" font-family="Inter" font-size="13" lengthAdjust="spacing" textLength="90.0605" x="152.5" y="264.5938">budget control</text></g><!--link IT to Scope--><g class="link" data-entity-1="ent0005" data-entity-2="ent0007" data-link-type="dependency" data-source-line="14" id="lnk12"><path d="M62.69,376.27 C107.49,363.12 255.7725,319.5885 350.0525,291.9085" fill="none" id="IT-to-Scope" style="stroke:#181818;stroke-width:1;"/><polygon fill="#181818" points="354.85,290.5,345.0877,289.1973,350.0525,291.9085,347.3413,296.8733,354.85,290.5" style="stroke:#181818;stroke-width:1;stroke-linejoin:miter;stroke-miterlimit:10;"/><text fill="#000000" font-family="Inter" font-size="13" lengthAdjust="spacing" textLength="98.8647" x="148.5" y="314.5938">device standard</text></g><!--link Security to Scope--><g class="link" data-entity-1="ent0006" data-entity-2="ent0007" data-link-type="dependency" data-source-line="15" id="lnk13"><path d="M76.69,485.7 C122.64,473.56 217.15,442.79 273,384 C296.59,359.16 278.03,336.45 303,313 C317.39,299.49 331.351,291.6909 349.981,285.0409" fill="none" id="Security-to-Scope" style="stroke:#181818;stroke-width:1;"/><polygon fill="#181818" points="354.69,283.36,344.8691,282.6184,349.981,285.0409,347.5585,290.1528,354.69,283.36" style="stroke:#181818;stroke-width:1;stroke-linejoin:miter;stroke-miterlimit:10;"/><text fill="#000000" font-family="Inter" font-size="13" lengthAdjust="spacing" textLength="149.811" x="123" y="380.5938">access &#183; audit constraint</text></g><?plantuml-src LL71IWCn4BtdAmQzA5W_e0V1WeM2Yj1U12_JPBeRt9sisSb2ly6J7o087WJnu4re3u8L_wD_OhRThUuboSoycRptfhorNA3770pDC6GoT2oNc1ECMCYhZ6O2ui3R91KmrfCMwrYX5kVXB2yoDoTgmWjaJ6BJDhhoJWTFER4qcQ5bPDsYHvFcCQQ8ip9NzN3a92FOkrwz1j3hnKk0F218QjUBJu7fUdb_mmUbTWL5Dl6koCyFzm1B66-I--Srqq4MIBNieDSxQQfzO283NnzG2aeeeK3Bgk7TmM5HU5TX1ZvafFvfwQ0YHbDPrWChOXF561HKZT0ET1fCGW8w-kjTfaQJJjLGPMD3PCK6lL6j9rrEklqCWx6RMQNug43K5bA3Twhxu89e5rUvawlO2S7KYRWSt6mxM0rEDqvpVJu39p_lw-MZXUdMyhim1_6hDqwFrAuMavlYzqDS2ATGhPx-6dKQam5iNiJz7gle2zJ__W80?></g></svg>