<svg xmlns="http://www.w3.org/2000/svg" xmlns:xlink="http://www.w3.org/1999/xlink" contentStyleType="text/css" data-diagram-type="DESCRIPTION" height="552px" preserveAspectRatio="none" style="width:1024px;height:552px;background:#FFFFFF;" version="1.1" viewBox="0 0 640 345" width="1024px" zoomAndPan="magnify"><?plantuml 1.2026.6?><defs/><g><!--entity Symptom--><g class="entity" data-qualified-name="Symptom" data-source-line="3" id="ent0001"><rect fill="#D3D3D3" height="56.2988" rx="2.5" ry="2.5" style="stroke:#181818;stroke-width:0.5;" width="221.145" x="181.5" y="7"/><text fill="#000000" font-family="Inter" font-size="15" lengthAdjust="spacing" textLength="71.7407" x="191.5" y="31.5313">Symptom:</text><text fill="#000000" font-family="Inter" font-size="15" lengthAdjust="spacing" textLength="201.145" x="191.5" y="49.6807">order v&#432;&#7907;t stock 3 l&#7847;n/th&#225;ng</text></g><!--entity H1--><g class="entity" data-qualified-name="H1" data-source-line="4" id="ent0002"><rect fill="#FFFFE0" height="74.4482" rx="2.5" ry="2.5" style="stroke:#181818;stroke-width:0.5;" width="176.1377" x="7" y="123"/><text fill="#000000" font-family="Inter" font-size="15" lengthAdjust="spacing" textLength="94.3872" x="17" y="147.5313">Hypothesis 1:</text><text fill="#000000" font-family="Inter" font-size="15" lengthAdjust="spacing" textLength="117.6855" x="17" y="165.6807">kh&#244;ng bi&#7871;t stock</text><text fill="#000000" font-family="Inter" font-size="15" lengthAdjust="spacing" textLength="156.1377" x="17" y="183.8301">th&#7921;c t&#7871; khi nh&#7853;n order</text></g><!--entity H2--><g class="entity" data-qualified-name="H2" data-source-line="5" id="ent0003"><rect fill="#FFFFE0" height="74.4482" rx="2.5" ry="2.5" style="stroke:#181818;stroke-width:0.5;" width="147.6099" x="218" y="123"/><text fill="#000000" font-family="Inter" font-size="15" lengthAdjust="spacing" textLength="97.4341" x="228" y="147.5313">Hypothesis 2:</text><text fill="#000000" font-family="Inter" font-size="15" lengthAdjust="spacing" textLength="126.189" x="228" y="165.6807">kh&#225;ch kh&#244;ng th&#7845;y</text><text fill="#000000" font-family="Inter" font-size="15" lengthAdjust="spacing" textLength="127.6099" x="228" y="183.8301">s&#7843;n ph&#7849;m c&#242;n/h&#7871;t</text></g><!--entity H3--><g class="entity" data-qualified-name="H3" data-source-line="6" id="ent0004"><rect fill="#FFFFE0" height="74.4482" rx="2.5" ry="2.5" style="stroke:#181818;stroke-width:0.5;" width="160.1636" x="401" y="123"/><text fill="#000000" font-family="Inter" font-size="15" lengthAdjust="spacing" textLength="97.5513" x="411" y="147.5313">Hypothesis 3:</text><text fill="#000000" font-family="Inter" font-size="15" lengthAdjust="spacing" textLength="109.6729" x="411" y="165.6807">quy tr&#236;nh ghi s&#7893;</text><text fill="#000000" font-family="Inter" font-size="15" lengthAdjust="spacing" textLength="140.1636" x="411" y="183.8301">ch&#7853;m h&#417;n b&#225;n h&#224;ng</text></g><!--entity Evidence--><g class="entity" data-qualified-name="Evidence" data-source-line="7" id="ent0005"><rect fill="#ADD8E6" height="74.4482" rx="2.5" ry="2.5" style="stroke:#181818;stroke-width:0.5;" width="166.8726" x="208.5" y="257"/><text fill="#000000" font-family="Inter" font-size="15" lengthAdjust="spacing" textLength="69.5068" x="218.5" y="281.5313">Evidence:</text><text fill="#000000" font-family="Inter" font-size="15" lengthAdjust="spacing" textLength="144.9023" x="218.5" y="299.6807">ki&#7875;m tra observation</text><text fill="#000000" font-family="Inter" font-size="15" lengthAdjust="spacing" textLength="146.8726" x="218.5" y="317.8301">+ document analysis</text></g><g class="entity" data-qualified-name="GMN12" data-source-line="17" id="ent0013"><path d="M410.5,262 L410.5,290 L375.87,294 L410.5,298 L410.5,326.4482 A0,0 0 0 0 410.5,326.4482 L625.2476,326.4482 A0,0 0 0 0 625.2476,326.4482 L625.2476,272 L615.2476,262 L410.5,262 A0,0 0 0 0 410.5,262" fill="#FEFFDD" style="stroke:#181818;stroke-width:0.5;"/><path d="M615.2476,262 L615.2476,272 L625.2476,272 L615.2476,262" fill="#FEFFDD" style="stroke:#181818;stroke-width:0.5;"/><text fill="#000000" font-family="Inter" font-size="15" lengthAdjust="spacing" textLength="193.7476" x="416.5" y="281.5313">Kh&#244;ng ch&#7889;t hypothesis n&#224;o</text><text fill="#000000" font-family="Inter" font-size="15" lengthAdjust="spacing" textLength="164.0112" x="416.5" y="299.6807">cho t&#7899;i khi c&#243; evidence</text><text fill="#000000" font-family="Inter" font-size="15" lengthAdjust="spacing" textLength="145.2026" x="416.5" y="317.8301">&#7911;ng h&#7897; ho&#7863;c b&#225;c b&#7887;.</text></g><!--link Symptom to H1--><g class="link" data-entity-1="ent0001" data-entity-2="ent0002" data-link-type="dependency" data-source-line="9" id="lnk6"><path d="M248.28,63.3 C220.17,80.85 187.5709,101.2015 157.0509,120.2615" fill="none" id="Symptom-to-H1" style="stroke:#181818;stroke-width:1;"/><polygon fill="#181818" points="152.81,122.91,162.5625,121.5355,157.0509,120.2615,158.3249,114.75,152.81,122.91" style="stroke:#181818;stroke-width:1;stroke-linejoin:miter;stroke-miterlimit:10;"/></g><!--link Symptom to H2--><g class="link" data-entity-1="ent0001" data-entity-2="ent0003" data-link-type="dependency" data-source-line="10" id="lnk7"><path d="M292,63.3 C292,80.85 292,98.85 292,117.91" fill="none" id="Symptom-to-H2" style="stroke:#181818;stroke-width:1;"/><polygon fill="#181818" points="292,122.91,296,113.91,292,117.91,288,113.91,292,122.91" style="stroke:#181818;stroke-width:1;stroke-linejoin:miter;stroke-miterlimit:10;"/></g><!--link Symptom to H3--><g class="link" data-entity-1="ent0001" data-entity-2="ent0004" data-link-type="dependency" data-source-line="11" id="lnk8"><path d="M333.95,63.3 C360.92,80.85 392.0696,101.1222 421.3496,120.1822" fill="none" id="Symptom-to-H3" style="stroke:#181818;stroke-width:1;"/><polygon fill="#181818" points="425.54,122.91,420.1795,114.6477,421.3496,120.1822,415.8151,121.3523,425.54,122.91" style="stroke:#181818;stroke-width:1;stroke-linejoin:miter;stroke-miterlimit:10;"/></g><!--link H1 to Evidence--><g class="link" data-entity-1="ent0002" data-entity-2="ent0005" data-link-type="dependency" data-source-line="12" id="lnk9"><path d="M148.83,197.07 C176.63,215.69 206.2967,235.5662 234.0767,254.1862" fill="none" id="H1-to-Evidence" style="stroke:#181818;stroke-width:1;"/><polygon fill="#181818" points="238.23,256.97,232.9811,248.6364,234.0767,254.1862,228.5269,255.2818,238.23,256.97" style="stroke:#181818;stroke-width:1;stroke-linejoin:miter;stroke-miterlimit:10;"/></g><!--link H2 to Evidence--><g class="link" data-entity-1="ent0003" data-entity-2="ent0005" data-link-type="dependency" data-source-line="13" id="lnk10"><path d="M292,197.07 C292,215.69 292,233.35 292,251.97" fill="none" id="H2-to-Evidence" style="stroke:#181818;stroke-width:1;"/><polygon fill="#181818" points="292,256.97,296,247.97,292,251.97,288,247.97,292,256.97" style="stroke:#181818;stroke-width:1;stroke-linejoin:miter;stroke-miterlimit:10;"/></g><!--link H3 to Evidence--><g class="link" data-entity-1="ent0004" data-entity-2="ent0005" data-link-type="dependency" data-source-line="14" id="lnk11"><path d="M429.35,197.07 C402.69,215.69 374.3392,235.487 347.6792,254.107" fill="none" id="H3-to-Evidence" style="stroke:#181818;stroke-width:1;"/><polygon fill="#181818" points="343.58,256.97,353.2489,255.096,347.6792,254.107,348.6682,248.5373,343.58,256.97" style="stroke:#181818;stroke-width:1;stroke-linejoin:miter;stroke-miterlimit:10;"/></g><?plantuml-src ZP7DQXH158Nt_HI7k9GOPXetMRWGr175JLP2RsggArt5TDyQgsf6sgqF85ba8Tba21840_w1qBrmqP3tg3VnzamFuu01DqMTAivtBkVwcQ6vSA92hax5eWnFBOLNeb9uJa6vnF_h_yIyKnWzJ9oIGL1HAXoSrDKysEeu8-jovR2y_HhRgm0Vh9mXHHcRQpeAkbjHSG3XCHXmxwKfT7ZcHFqtRbBFRT3A6uyHCsUw-qa5fYOslmTcHa77zfj4u3VCj07fsDmGrldhYCbeeBzMPMdVti4VR_WhgJ74CBZvL6VaOtD5cBFwN45st-b8z_aRzlX_s2cptong1DTz8Os2f_InFSz8zhDMqBShmfGxWUukXs8cwPta9qkJAvAgdzZ4zdt5O04xzSejHJ2MChgFtCf5fIX0a2Xhdc9DtLe7zkDoeP9akuF3mqTSrhuSxyiquJRxsnQKS0FxEjtN2TcWuFeqsDFTE_1YKpDtq9u5w5rTr5rQ_fVQybRR2xDUg-n-GEtCiRrcBri_GjlO_99zVtp4ziE3H56EFlOF?></g></svg>