<svg xmlns="http://www.w3.org/2000/svg" xmlns:xlink="http://www.w3.org/1999/xlink" contentStyleType="text/css" data-diagram-type="ACTIVITY" height="1307.2px" preserveAspectRatio="none" style="width:504px;height:1307px;background:#FFFFFF;" version="1.1" viewBox="0 0 504 1307" width="504px" zoomAndPan="magnify"><?plantuml 1.2026.6?><defs/><g><rect fill="none" height="535.2594" style="stroke:#000000;stroke-width:2.4;" width="371.6031" x="63.4703" y="25.6"/><path d="M217.9828,25.6 L217.9828,41.5031 L201.9828,57.5031 L63.4703,57.5031" fill="none" style="stroke:#000000;stroke-width:2.4;"/><text fill="#000000" font-family="Inter" font-size="22.4" lengthAdjust="spacing" textLength="138.5125" x="68.2703" y="48.9">Current state</text><ellipse cx="249.2719" cy="89.5031" fill="#222222" rx="16" ry="16" style="stroke:#222222;stroke-width:1.6;"/><rect fill="#F1F1F1" height="55.2313" rx="20" ry="20" style="stroke:#181818;stroke-width:0.8;" width="208.6719" x="144.9359" y="137.5031"/><text fill="#000000" font-family="Inter" font-size="19.2" lengthAdjust="spacing" textLength="176.6719" x="160.9359" y="172.1031">Employee g&#7917;i email</text><rect fill="#F1F1F1" height="55.2313" rx="20" ry="20" style="stroke:#181818;stroke-width:0.8;" width="273.8281" x="112.3578" y="224.7344"/><text fill="#000000" font-family="Inter" font-size="19.2" lengthAdjust="spacing" textLength="241.8281" x="128.3578" y="259.3344">Manager forward approval</text><rect fill="#F1F1F1" height="55.2313" rx="20" ry="20" style="stroke:#181818;stroke-width:0.8;" width="314.5813" x="91.9813" y="311.9656"/><text fill="#000000" font-family="Inter" font-size="19.2" lengthAdjust="spacing" textLength="282.5813" x="107.9813" y="346.5656">Procurement h&#7887;i m&#227; ng&#226;n s&#225;ch</text><rect fill="#F1F1F1" height="55.2313" rx="20" ry="20" style="stroke:#181818;stroke-width:0.8;" width="339.6031" x="79.4703" y="399.1969"/><text fill="#000000" font-family="Inter" font-size="19.2" lengthAdjust="spacing" textLength="307.6031" x="95.4703" y="433.7969">Finance ki&#7875;m tra qua spreadsheet</text><rect fill="#F1F1F1" height="55.2313" rx="20" ry="20" style="stroke:#181818;stroke-width:0.8;" width="332.9563" x="82.7938" y="486.4281"/><text fill="#000000" font-family="Inter" font-size="19.2" lengthAdjust="spacing" textLength="300.9563" x="98.7938" y="521.0281">Requester h&#7887;i tr&#7841;ng th&#225;i qua chat</text><rect fill="none" height="220.7656" style="stroke:#000000;stroke-width:2.4;" width="333.2406" x="82.6516" y="576.8594"/><path d="M141.6578,576.8594 L141.6578,592.7625 L125.6578,608.7625 L82.6516,608.7625" fill="none" style="stroke:#000000;stroke-width:2.4;"/><text fill="#000000" font-family="Inter" font-size="22.4" lengthAdjust="spacing" textLength="43.0063" x="87.4516" y="600.1594">Gap</text><rect fill="#F1F1F1" height="55.2313" rx="20" ry="20" style="stroke:#181818;stroke-width:0.8;" width="243.5938" x="127.475" y="635.9625"/><text fill="#000000" font-family="Inter" font-size="19.2" lengthAdjust="spacing" textLength="211.5938" x="143.475" y="670.5625">Thi&#7871;u status ownership</text><rect fill="#F1F1F1" height="55.2313" rx="20" ry="20" style="stroke:#181818;stroke-width:0.8;" width="301.2406" x="98.6516" y="723.1938"/><text fill="#000000" font-family="Inter" font-size="19.2" lengthAdjust="spacing" textLength="269.2406" x="114.6516" y="757.7938">Rule v&#224; data kh&#244;ng nh&#7845;t qu&#225;n</text><rect fill="none" height="462.4281" style="stroke:#000000;stroke-width:2.4;" width="447.3438" x="25.6" y="813.625"/><path d="M218.0109,813.625 L218.0109,829.5281 L202.0109,845.5281 L25.6,845.5281" fill="none" style="stroke:#000000;stroke-width:2.4;"/><text fill="#000000" font-family="Inter" font-size="22.4" lengthAdjust="spacing" textLength="176.4109" x="30.4" y="836.925">Future capability</text><rect fill="#F1F1F1" height="55.2313" rx="20" ry="20" style="stroke:#181818;stroke-width:0.8;" width="346.5313" x="76.0063" y="872.7281"/><text fill="#000000" font-family="Inter" font-size="19.2" lengthAdjust="spacing" textLength="314.5313" x="92.0063" y="907.3281">M&#7897;t request ID v&#224; tr&#7841;ng th&#225;i chung</text><rect fill="#F1F1F1" height="55.2313" rx="20" ry="20" style="stroke:#181818;stroke-width:0.8;" width="363.5563" x="67.4938" y="959.9594"/><text fill="#000000" font-family="Inter" font-size="19.2" lengthAdjust="spacing" textLength="331.5563" x="83.4938" y="994.5594">Rule x&#225;c &#273;&#7883;nh action/owner ti&#7871;p theo</text><rect fill="#F1F1F1" height="55.2313" rx="20" ry="20" style="stroke:#181818;stroke-width:0.8;" width="415.3438" x="41.6" y="1047.1906"/><text fill="#000000" font-family="Inter" font-size="19.2" lengthAdjust="spacing" textLength="383.3438" x="57.6" y="1081.7906">Requester t&#7921; xem status v&#224; missing action</text><rect fill="#F1F1F1" height="55.2313" rx="20" ry="20" style="stroke:#181818;stroke-width:0.8;" width="233.2344" x="132.6547" y="1134.4219"/><text fill="#000000" font-family="Inter" font-size="19.2" lengthAdjust="spacing" textLength="201.2344" x="148.6547" y="1169.0219">D&#7919; li&#7879;u &#273;&#7911; cho &#273;o SLA</text><ellipse cx="249.2719" cy="1239.2531" fill="none" rx="17.6" ry="17.6" style="stroke:#222222;stroke-width:1.6;"/><ellipse cx="249.2719" cy="1239.2531" fill="#222222" rx="9.6" ry="9.6" style="stroke:#222222;stroke-width:1.6;"/><line style="stroke:#181818;stroke-width:1.6;" x1="249.2719" x2="249.2719" y1="105.5031" y2="137.5031"/><polygon fill="#181818" points="242.8719,121.5031,249.2719,137.5031,255.6719,121.5031,249.2719,127.9031" style="stroke:#181818;stroke-width:1.6;stroke-linejoin:miter;stroke-miterlimit:10;"/><line style="stroke:#181818;stroke-width:1.6;" x1="249.2719" x2="249.2719" y1="192.7344" y2="224.7344"/><polygon fill="#181818" points="242.8719,208.7344,249.2719,224.7344,255.6719,208.7344,249.2719,215.1344" style="stroke:#181818;stroke-width:1.6;stroke-linejoin:miter;stroke-miterlimit:10;"/><line style="stroke:#181818;stroke-width:1.6;" x1="249.2719" x2="249.2719" y1="279.9656" y2="311.9656"/><polygon fill="#181818" points="242.8719,295.9656,249.2719,311.9656,255.6719,295.9656,249.2719,302.3656" style="stroke:#181818;stroke-width:1.6;stroke-linejoin:miter;stroke-miterlimit:10;"/><line style="stroke:#181818;stroke-width:1.6;" x1="249.2719" x2="249.2719" y1="367.1969" y2="399.1969"/><polygon fill="#181818" points="242.8719,383.1969,249.2719,399.1969,255.6719,383.1969,249.2719,389.5969" style="stroke:#181818;stroke-width:1.6;stroke-linejoin:miter;stroke-miterlimit:10;"/><line style="stroke:#181818;stroke-width:1.6;" x1="249.2719" x2="249.2719" y1="454.4281" y2="486.4281"/><polygon fill="#181818" points="242.8719,470.4281,249.2719,486.4281,255.6719,470.4281,249.2719,476.8281" style="stroke:#181818;stroke-width:1.6;stroke-linejoin:miter;stroke-miterlimit:10;"/><line style="stroke:#181818;stroke-width:1.6;" x1="249.2719" x2="249.2719" y1="691.1938" y2="723.1938"/><polygon fill="#181818" points="242.8719,707.1938,249.2719,723.1938,255.6719,707.1938,249.2719,713.5938" style="stroke:#181818;stroke-width:1.6;stroke-linejoin:miter;stroke-miterlimit:10;"/><line style="stroke:#181818;stroke-width:1.6;" x1="249.2719" x2="249.2719" y1="541.6594" y2="635.9625"/><polygon fill="#181818" points="242.8719,619.9625,249.2719,635.9625,255.6719,619.9625,249.2719,626.3625" style="stroke:#181818;stroke-width:1.6;stroke-linejoin:miter;stroke-miterlimit:10;"/><line style="stroke:#181818;stroke-width:1.6;" x1="249.2719" x2="249.2719" y1="927.9594" y2="959.9594"/><polygon fill="#181818" points="242.8719,943.9594,249.2719,959.9594,255.6719,943.9594,249.2719,950.3594" style="stroke:#181818;stroke-width:1.6;stroke-linejoin:miter;stroke-miterlimit:10;"/><line style="stroke:#181818;stroke-width:1.6;" x1="249.2719" x2="249.2719" y1="1015.1906" y2="1047.1906"/><polygon fill="#181818" points="242.8719,1031.1906,249.2719,1047.1906,255.6719,1031.1906,249.2719,1037.5906" style="stroke:#181818;stroke-width:1.6;stroke-linejoin:miter;stroke-miterlimit:10;"/><line style="stroke:#181818;stroke-width:1.6;" x1="249.2719" x2="249.2719" y1="1102.4219" y2="1134.4219"/><polygon fill="#181818" points="242.8719,1118.4219,249.2719,1134.4219,255.6719,1118.4219,249.2719,1124.8219" style="stroke:#181818;stroke-width:1.6;stroke-linejoin:miter;stroke-miterlimit:10;"/><line style="stroke:#181818;stroke-width:1.6;" x1="249.2719" x2="249.2719" y1="1189.6531" y2="1221.6531"/><polygon fill="#181818" points="242.8719,1205.6531,249.2719,1221.6531,255.6719,1205.6531,249.2719,1212.0531" style="stroke:#181818;stroke-width:1.6;stroke-linejoin:miter;stroke-miterlimit:10;"/><line style="stroke:#181818;stroke-width:1.6;" x1="249.2719" x2="249.2719" y1="778.425" y2="872.7281"/><polygon fill="#181818" points="242.8719,856.7281,249.2719,872.7281,255.6719,856.7281,249.2719,863.1281" style="stroke:#181818;stroke-width:1.6;stroke-linejoin:miter;stroke-miterlimit:10;"/><?plantuml-src NP4zIWH148NpFKNX0HGJ0ur4NLbG4VK2vMmvtUpqZztL_Y161WO6OcZcAc8a8XZj10RZHVeczlIig1jrGLLzxxrgNs15i3Y_rFCZgIqwL32a8mmLzutc7LG40ytaUgd7agNHCBSMd2FDu1cPvk2Y1stfEBtB6yfMvfm8obY_IY25ibff6zkeiIG7HyQTeXi2MklC2NRDNMUAu4YrL17hMmcgUG9TDeyQV3CkH9xgIusw81Z9M5yfO8Tm712yTOH3BuWuZ-tHSI2VF4zHxE9ah4jWqOnbtYW4fj7BlvasqNP9bW-4Z9FFaDC53-PKa_D2seuTqhbEcWSO8YECHFEHm5h4oJCdSZFMCzX-u9GB2hHuA2l9vrEHxLZVCxZEAGpMC_E_qK84NVwAdgKpmDTTh6-q02nQ_4Bs1jpwjMcBp4n-ZlKxd97woTAAAEczJ28T8Y-in_eDgdJKwv0LNfAsIPM1_QtLbVoxnlOklm40?></g></svg>