<svg xmlns="http://www.w3.org/2000/svg" xmlns:xlink="http://www.w3.org/1999/xlink" contentStyleType="text/css" data-diagram-type="STATE" height="634px" preserveAspectRatio="none" style="width:795px;height:634px;background:#FFFFFF;" version="1.1" viewBox="0 0 497 396" width="795px" zoomAndPan="magnify"><?plantuml 1.2026.6?><defs/><g><g class="start_entity" data-qualified-name=".start." data-source-line="4" id="ent0001"><ellipse cx="208" cy="16" fill="#222222" rx="10" ry="10" style="stroke:#222222;stroke-width:1;"/></g><g class="entity" data-qualified-name="Active" data-source-line="4" id="ent0002"><rect fill="#F1F1F1" height="50" rx="12.5" ry="12.5" style="stroke:#181818;stroke-width:0.5;" width="61.6582" x="177" y="104"/><line style="stroke:#181818;stroke-width:0.5;" x1="177" x2="238.6582" y1="130.9395" y2="130.9395"/><text fill="#000000" font-family="Inter" font-size="14" lengthAdjust="spacing" textLength="41.6582" x="187" y="122.5625">Active</text></g><g class="entity" data-qualified-name="Locked" data-source-line="5" id="ent0004"><rect fill="#F1F1F1" height="50" rx="12.5" ry="12.5" style="stroke:#181818;stroke-width:0.5;" width="68.7266" x="173.5" y="232"/><line style="stroke:#181818;stroke-width:0.5;" x1="173.5" x2="242.2266" y1="258.9395" y2="258.9395"/><text fill="#000000" font-family="Inter" font-size="14" lengthAdjust="spacing" textLength="48.7266" x="183.5" y="250.5625">Locked</text></g><g class="end_entity" data-qualified-name=".end." data-source-line="7" id="ent0007"><ellipse cx="208" cy="371" fill="none" rx="11" ry="11" style="stroke:#222222;stroke-width:1;"/><ellipse cx="208" cy="371" fill="#222222" rx="6" ry="6" style="stroke:#222222;stroke-width:1;"/></g><g class="entity" data-qualified-name="GMN9" data-source-line="9" id="ent0010"><path d="M6,115.5 L6,142.4395 A0,0 0 0 0 6,142.4395 L142.3906,142.4395 A0,0 0 0 0 142.3906,142.4395 L142.3906,133.5 L176.83,129 L142.3906,125.5 L142.3906,125.5 L132.3906,115.5 L6,115.5 A0,0 0 0 0 6,115.5" fill="#FEFFDD" style="stroke:#181818;stroke-width:0.5;"/><path d="M132.3906,115.5 L132.3906,125.5 L142.3906,125.5 L132.3906,115.5" fill="#FEFFDD" style="stroke:#181818;stroke-width:0.5;"/><text fill="#000000" font-family="Inter" font-size="14" lengthAdjust="spacing" textLength="115.3906" x="12" y="134.0625">Tr&#7841;ng th&#225;i (State)</text></g><g class="entity" data-qualified-name="GMN12" data-source-line="10" id="ent0013"><path d="M277.5,243.5 L277.5,253 L242.6,257 L277.5,261 L277.5,270.4395 A0,0 0 0 0 277.5,270.4395 L482.6396,270.4395 A0,0 0 0 0 482.6396,270.4395 L482.6396,253.5 L472.6396,243.5 L277.5,243.5 A0,0 0 0 0 277.5,243.5" fill="#FEFFDD" style="stroke:#181818;stroke-width:0.5;"/><path d="M472.6396,243.5 L472.6396,253.5 L482.6396,253.5 L472.6396,243.5" fill="#FEFFDD" style="stroke:#181818;stroke-width:0.5;"/><text fill="#000000" font-family="Inter" font-size="14" lengthAdjust="spacing" textLength="184.1396" x="283.5" y="262.0625">[*] l&#224; &#272;i&#7875;m b&#7855;t &#273;&#7847;u/K&#7871;t th&#250;c</text></g><!--link *start* to Active--><g class="link" data-entity-1="ent0001" data-entity-2="ent0002" data-link-type="dependency" data-source-line="4" id="lnk3"><path d="M208,26.08 C208,42.86 208,74.22 208,98.65" fill="none" id="*start*-to-Active" style="stroke:#181818;stroke-width:1;"/><polygon fill="#181818" points="208,103.65,212,94.65,208,98.65,204,94.65,208,103.65" style="stroke:#181818;stroke-width:1;stroke-linejoin:miter;stroke-miterlimit:10;"/><text fill="#000000" font-family="Inter" font-size="14" lengthAdjust="spacing" textLength="117.4346" x="209" y="70.5625">T&#7841;o m&#7899;i t&#224;i kho&#7843;n</text></g><!--link Active to Locked--><g class="link" data-entity-1="ent0002" data-entity-2="ent0004" data-link-type="dependency" data-source-line="5" id="lnk5"><path d="M176.92,147.09 C152.93,160.6 123.28,178.13 120,184 C104.62,211.48 137.9149,230.8352 168.7049,242.9052" fill="none" id="Active-to-Locked" style="stroke:#181818;stroke-width:1;"/><polygon fill="#181818" points="173.36,244.73,166.4407,237.7212,168.7049,242.9052,163.5209,245.1694,173.36,244.73" style="stroke:#181818;stroke-width:1;stroke-linejoin:miter;stroke-miterlimit:10;"/><text fill="#000000" font-family="Inter" font-size="14" lengthAdjust="spacing" textLength="128.8984" x="121" y="198.5625">Nh&#7853;p sai pass 5 l&#7847;n</text></g><!--link Locked to Active--><g class="link" data-entity-1="ent0004" data-entity-2="ent0002" data-link-type="dependency" data-source-line="6" id="lnk6"><path d="M234.9,231.82 C242.58,223.25 249.96,212.98 254,202 C260.3,184.88 253.3445,171.2425 240.8645,157.8925" fill="none" id="Locked-to-Active" style="stroke:#181818;stroke-width:1;"/><polygon fill="#181818" points="237.45,154.24,240.6741,163.5462,240.8645,157.8925,246.5182,158.083,237.45,154.24" style="stroke:#181818;stroke-width:1;stroke-linejoin:miter;stroke-miterlimit:10;"/><text fill="#000000" font-family="Inter" font-size="14" lengthAdjust="spacing" textLength="102.8672" x="256" y="198.5625">Admin m&#7903; kh&#243;a</text></g><!--link Locked to *end*--><g class="link" data-entity-1="ent0004" data-entity-2="ent0007" data-link-type="dependency" data-source-line="7" id="lnk8"><path d="M208,282.03 C208,306.19 208,337.31 208,354.79" fill="none" id="Locked-to-*end*" style="stroke:#181818;stroke-width:1;"/><polygon fill="#181818" points="208,359.79,212,350.79,208,354.79,204,350.79,208,359.79" style="stroke:#181818;stroke-width:1;stroke-linejoin:miter;stroke-miterlimit:10;"/><text fill="#000000" font-family="Inter" font-size="14" lengthAdjust="spacing" textLength="90.002" x="209" y="326.5625">X&#243;a t&#224;i kho&#7843;n</text></g><?plantuml-src ROwnIWD154Nx-OfRgX14q2Q5a4OG9Kqi0i5Yt9tDFdPdPjbvIM6R7z3QmWGBAx6mcnGMcn-PFt7614d0zht3kSTLP1hPIerS5N9MyvKrF9HQuTgmQeNxxp-YHuMpSo4c9_VezIuno9Zc2dtS1R-oq67zGk1kIQXA6_oR4JiYmRSsgrGUuM4P_4S39mcDT0uNg8D_Ds8778W7kIQJnAzHsNt9VIXLz36EryDDOImhrAfWs6AliOsHPWekknNXQCIIrV6MRMbQ_i9_ZSbTTqjidYYi5neFmNyoDiynT7Pw4_mt9u_FVW00?></g></svg>