<svg xmlns="http://www.w3.org/2000/svg" xmlns:xlink="http://www.w3.org/1999/xlink" contentStyleType="text/css" data-diagram-type="STATE" height="1054px" preserveAspectRatio="none" style="width:1440px;height:1054px;background:#FFFFFF;" version="1.1" viewBox="0 0 900 659" width="1440px" zoomAndPan="magnify"><?plantuml 1.2026.6?><defs/><g><g class="start_entity" data-qualified-name=".start." data-source-line="2" id="ent0001"><ellipse cx="672" cy="16" fill="#222222" rx="10" ry="10" style="stroke:#222222;stroke-width:1;"/></g><g class="entity" data-qualified-name="Draft" data-source-line="2" id="ent0002"><rect fill="#F1F1F1" height="50" rx="12.5" ry="12.5" style="stroke:#181818;stroke-width:0.5;" width="52.9971" x="645.5" y="87"/><line style="stroke:#181818;stroke-width:0.5;" x1="645.5" x2="698.4971" y1="113.9395" y2="113.9395"/><text fill="#000000" font-family="Inter" font-size="14" lengthAdjust="spacing" textLength="32.9971" x="655.5" y="105.5625">Draft</text></g><g class="entity" data-qualified-name="Reviewed" data-source-line="3" id="ent0004"><rect fill="#F1F1F1" height="50" rx="12.5" ry="12.5" style="stroke:#181818;stroke-width:0.5;" width="84.7842" x="527.5" y="214"/><line style="stroke:#181818;stroke-width:0.5;" x1="527.5" x2="612.2842" y1="240.9395" y2="240.9395"/><text fill="#000000" font-family="Inter" font-size="14" lengthAdjust="spacing" textLength="64.7842" x="537.5" y="232.5625">Reviewed</text></g><g class="entity" data-qualified-name="NeedsRework" data-source-line="4" id="ent0006"><rect fill="#F1F1F1" height="50" rx="12.5" ry="12.5" style="stroke:#181818;stroke-width:0.5;" width="112.8115" x="357.5" y="595"/><line style="stroke:#181818;stroke-width:0.5;" x1="357.5" x2="470.3115" y1="621.9395" y2="621.9395"/><text fill="#000000" font-family="Inter" font-size="14" lengthAdjust="spacing" textLength="92.8115" x="367.5" y="613.5625">NeedsRework</text></g><g class="entity" data-qualified-name="Validated" data-source-line="6" id="ent0009"><rect fill="#F1F1F1" height="50" rx="12.5" ry="12.5" style="stroke:#181818;stroke-width:0.5;" width="82.0498" x="217" y="341"/><line style="stroke:#181818;stroke-width:0.5;" x1="217" x2="299.0498" y1="367.9395" y2="367.9395"/><text fill="#000000" font-family="Inter" font-size="14" lengthAdjust="spacing" textLength="62.0498" x="227" y="359.5625">Validated</text></g><g class="entity" data-qualified-name="Approved" data-source-line="8" id="ent0012"><rect fill="#F1F1F1" height="50" rx="12.5" ry="12.5" style="stroke:#181818;stroke-width:0.5;" width="85.0713" x="29.5" y="468"/><line style="stroke:#181818;stroke-width:0.5;" x1="29.5" x2="114.5713" y1="494.9395" y2="494.9395"/><text fill="#000000" font-family="Inter" font-size="14" lengthAdjust="spacing" textLength="65.0713" x="39.5" y="486.5625">Approved</text></g><g class="end_entity" data-qualified-name=".end." data-source-line="10" id="ent0015"><ellipse cx="17" cy="620" fill="none" rx="11" ry="11" style="stroke:#222222;stroke-width:1;"/><ellipse cx="17" cy="620" fill="#222222" rx="6" ry="6" style="stroke:#222222;stroke-width:1;"/></g><!--link *start* to Draft--><g class="link" data-entity-1="ent0001" data-entity-2="ent0002" data-link-type="dependency" data-source-line="2" id="lnk3"><path d="M672,26.01 C672,39.89 672,61.97 672,81.84" fill="none" id="*start*-to-Draft" style="stroke:#181818;stroke-width:1;"/><polygon fill="#181818" points="672,86.84,676,77.84,672,81.84,668,77.84,672,86.84" style="stroke:#181818;stroke-width:1;stroke-linejoin:miter;stroke-miterlimit:10;"/></g><!--link Draft to Reviewed--><g class="link" data-entity-1="ent0002" data-entity-2="ent0004" data-link-type="dependency" data-source-line="3" id="lnk5"><path d="M645.44,124.68 C627.62,133.79 604.94,148.09 591,167 C580.93,180.66 576.578,194.195 573.838,208.865" fill="none" id="Draft-to-Reviewed" style="stroke:#181818;stroke-width:1;"/><polygon fill="#181818" points="572.92,213.78,578.5044,205.6674,573.838,208.865,570.6404,204.1986,572.92,213.78" style="stroke:#181818;stroke-width:1;stroke-linejoin:miter;stroke-miterlimit:10;"/><text fill="#000000" font-family="Inter" font-size="13" lengthAdjust="spacing" textLength="155.3208" x="592" y="180.5938">peer/dev/test verification</text></g><!--link Reviewed to NeedsRework--><g class="link" data-entity-1="ent0004" data-entity-2="ent0006" data-link-type="dependency" data-source-line="4" id="lnk7"><path d="M569.22,264.24 C567,327.83 560.05,496.04 548,518 C529.36,551.97 498.2562,575.4105 468.5062,592.4905" fill="none" id="Reviewed-to-NeedsRework" style="stroke:#181818;stroke-width:1;"/><polygon fill="#181818" points="464.17,594.98,473.9667,593.9679,468.5062,592.4905,469.9835,587.03,464.17,594.98" style="stroke:#181818;stroke-width:1;stroke-linejoin:miter;stroke-miterlimit:10;"/><text fill="#000000" font-family="Inter" font-size="13" lengthAdjust="spacing" textLength="179.8735" x="562" y="434.5938">ambiguity, conflict, infeasible</text></g><!--link NeedsRework to Draft--><g class="link" data-entity-1="ent0006" data-entity-2="ent0002" data-link-type="dependency" data-source-line="5" id="lnk8"><path d="M470.65,611.32 C572.03,595.97 774,557.43 774,494 C774,238 774,238 774,238 C774,204.96 771.7,193.52 752,167 C738.21,148.43 720.4683,136.5116 702.9583,127.3316" fill="none" id="NeedsRework-to-Draft" style="stroke:#181818;stroke-width:1;"/><polygon fill="#181818" points="698.53,125.01,704.6437,132.7316,702.9583,127.3316,708.3583,125.6463,698.53,125.01" style="stroke:#181818;stroke-width:1;stroke-linejoin:miter;stroke-miterlimit:10;"/><text fill="#000000" font-family="Inter" font-size="13" lengthAdjust="spacing" textLength="109.5415" x="775" y="371.0938">revise + evidence</text></g><!--link Reviewed to Validated--><g class="link" data-entity-1="ent0004" data-entity-2="ent0009" data-link-type="dependency" data-source-line="6" id="lnk10"><path d="M527.25,241.15 C474.98,244.29 385.4,255.43 320,294 C300.55,305.47 286.9252,321.1193 275.8552,336.8693" fill="none" id="Reviewed-to-Validated" style="stroke:#181818;stroke-width:1;"/><polygon fill="#181818" points="272.98,340.96,281.4278,335.8969,275.8552,336.8693,274.8827,331.2967,272.98,340.96" style="stroke:#181818;stroke-width:1;stroke-linejoin:miter;stroke-miterlimit:10;"/><text fill="#000000" font-family="Inter" font-size="13" lengthAdjust="spacing" textLength="222.917" x="321" y="307.5938">stakeholder confirms need/outcome</text></g><!--link Validated to NeedsRework--><g class="link" data-entity-1="ent0009" data-entity-2="ent0006" data-link-type="dependency" data-source-line="7" id="lnk11"><path d="M257.18,391.06 C257.2,422.49 261.04,478.18 285,518 C304.87,551.02 335.5883,574.765 364.1083,592.265" fill="none" id="Validated-to-NeedsRework" style="stroke:#181818;stroke-width:1;"/><polygon fill="#181818" points="368.37,594.88,362.791,586.7637,364.1083,592.265,358.607,593.5824,368.37,594.88" style="stroke:#181818;stroke-width:1;stroke-linejoin:miter;stroke-miterlimit:10;"/><text fill="#000000" font-family="Inter" font-size="13" lengthAdjust="spacing" textLength="257.5562" x="286" y="498.0938">critical open question / changed evidence</text></g><!--link Validated to Approved--><g class="link" data-entity-1="ent0009" data-entity-2="ent0012" data-link-type="dependency" data-source-line="8" id="lnk13"><path d="M216.89,372.92 C166.84,381.06 86.78,397.43 69,421 C59.04,434.2 59.1941,448.1607 62.6841,463.1207" fill="none" id="Validated-to-Approved" style="stroke:#181818;stroke-width:1;"/><polygon fill="#181818" points="63.82,467.99,65.6707,458.3166,62.6841,463.1207,57.8799,460.1341,63.82,467.99" style="stroke:#181818;stroke-width:1;stroke-linejoin:miter;stroke-miterlimit:10;"/><text fill="#000000" font-family="Inter" font-size="13" lengthAdjust="spacing" textLength="161.7002" x="70" y="434.5938">authority accepts baseline</text></g><!--link Approved to NeedsRework--><g class="link" data-entity-1="ent0012" data-entity-2="ent0006" data-link-type="dependency" data-source-line="9" id="lnk14"><path d="M64.75,518.11 C61.78,533.3 61.19,552.35 72,565 C108.02,607.16 264.7613,616.4869 352.3013,618.4669" fill="none" id="Approved-to-NeedsRework" style="stroke:#181818;stroke-width:1;"/><polygon fill="#181818" points="357.3,618.58,348.3928,614.3775,352.3013,618.4669,348.2119,622.3755,357.3,618.58" style="stroke:#181818;stroke-width:1;stroke-linejoin:miter;stroke-miterlimit:10;"/><text fill="#000000" font-family="Inter" font-size="13" lengthAdjust="spacing" textLength="158.5264" x="73" y="561.5938">approved change request</text></g><!--link Approved to *end*--><g class="link" data-entity-1="ent0012" data-entity-2="ent0015" data-link-type="dependency" data-source-line="10" id="lnk16"><path d="M55.55,518.03 C49.79,527.14 43.62,537.79 39,548 C29.54,568.93 23.7644,590.2175 20.4144,604.2075" fill="none" id="Approved-to-*end*" style="stroke:#181818;stroke-width:1;"/><polygon fill="#181818" points="19.25,609.07,25.2359,601.2489,20.4144,604.2075,17.4558,599.3859,19.25,609.07" style="stroke:#181818;stroke-width:1;stroke-linejoin:miter;stroke-miterlimit:10;"/></g><?plantuml-src RL4zJyCm4DtzAsw6LjaPa90G4ak73Yo8uMA_DASwjh4lgVhlCKO48bXyilm-VUKi8N7cYHm6dhq-nQ07da3FGP7DwyqRxVVtz9XvKDFETZzY4LpWw8uIa3k7fLCKfGLP1h6i4eDPKP-K0-3A4PUOpvN5Ko-dMVIw8nl3uCNgZYGCu2AzX_cDNWDKNgwI1NHBTJe4Ywt92tjnh2rOKJvZZDuXDm_9Kw5GTRiuguqJp0_wRq2RHMiFJp4XqFjSozLAr94TEPmgPGsmLNb8ASUb1U1PnrXbhiJM8ccXdWky19WLzS_FV3zz6TN6pNnBgNlv0000?></g></svg>