<svg xmlns="http://www.w3.org/2000/svg" xmlns:xlink="http://www.w3.org/1999/xlink" contentStyleType="text/css" data-diagram-type="ACTIVITY" height="1065.6px" preserveAspectRatio="none" style="width:920px;height:1065px;background:#FFFFFF;" version="1.1" viewBox="0 0 920 1065" width="920px" zoomAndPan="magnify"><?plantuml 1.2026.6?><defs/><g><ellipse cx="481.3258" cy="40" fill="#222222" rx="16" ry="16" style="stroke:#222222;stroke-width:1.6;"/><rect fill="#F1F1F1" height="55.2313" rx="20" ry="20" style="stroke:#181818;stroke-width:0.8;" width="325.4" x="318.6258" y="88"/><text fill="#000000" font-family="Inter" font-size="19.2" lengthAdjust="spacing" textLength="293.4" x="334.6258" y="122.6">X&#225;c &#273;&#7883;nh objective v&#224; unknowns</text><rect fill="#F1F1F1" height="55.2313" rx="20" ry="20" style="stroke:#181818;stroke-width:0.8;" width="388.0438" x="287.3039" y="175.2313"/><text fill="#000000" font-family="Inter" font-size="19.2" lengthAdjust="spacing" textLength="356.0438" x="303.3039" y="209.8313">Ch&#7885;n stakeholder, source v&#224; technique</text><rect fill="#F1F1F1" height="55.2313" rx="20" ry="20" style="stroke:#181818;stroke-width:0.8;" width="383.8063" x="289.4227" y="262.4625"/><text fill="#000000" font-family="Inter" font-size="19.2" lengthAdjust="spacing" textLength="351.8063" x="305.4227" y="297.0625">Chu&#7849;n b&#7883; agenda v&#224; c&#225;ch ghi evidence</text><rect fill="#F1F1F1" height="55.2313" rx="20" ry="20" style="stroke:#181818;stroke-width:0.8;" width="201.6031" x="380.5242" y="349.6938"/><text fill="#000000" font-family="Inter" font-size="19.2" lengthAdjust="spacing" textLength="169.6031" x="396.5242" y="384.2938">Conduct elicitation</text><rect fill="#F1F1F1" height="55.2313" rx="20" ry="20" style="stroke:#181818;stroke-width:0.8;" width="393.0969" x="284.7773" y="436.925"/><text fill="#000000" font-family="Inter" font-size="19.2" lengthAdjust="spacing" textLength="361.0969" x="300.7773" y="471.525">Capture fact, quote, rule v&#224; observation</text><rect fill="#F1F1F1" height="78.4625" rx="20" ry="20" style="stroke:#181818;stroke-width:0.8;" width="368.7313" x="296.9602" y="524.1563"/><text fill="#000000" font-family="Inter" font-size="19.2" lengthAdjust="spacing" textLength="336.7313" x="312.9602" y="558.7563">Synthesize requirement, assumption,</text><text fill="#000000" font-family="Inter" font-size="19.2" lengthAdjust="spacing" textLength="252.3281" x="312.9602" y="581.9875">constraint v&#224; open question</text><rect fill="#F1F1F1" height="55.2313" rx="20" ry="20" style="stroke:#181818;stroke-width:0.8;" width="342.7531" x="309.9492" y="634.6188"/><text fill="#000000" font-family="Inter" font-size="19.2" lengthAdjust="spacing" textLength="310.7531" x="325.9492" y="669.2188">Playback &#273;&#7875; stakeholder x&#225;c nh&#7853;n</text><polygon fill="#F1F1F1" points="350.3785,721.85,612.273,721.85,631.473,741.05,612.273,760.25,350.3785,760.25,331.1785,741.05,350.3785,721.85" style="stroke:#181818;stroke-width:0.8;stroke-linejoin:miter;stroke-miterlimit:10;"/><text fill="#000000" font-family="Inter" font-size="17.6" lengthAdjust="spacing" textLength="261.8945" x="350.3785" y="747.4523">C&#242;n open question quan tr&#7885;ng?</text><text fill="#000000" font-family="Inter" font-size="17.6" lengthAdjust="spacing" textLength="23.4094" x="307.7691" y="736.8047">C&#243;</text><text fill="#000000" font-family="Inter" font-size="17.6" lengthAdjust="spacing" textLength="53.9773" x="631.473" y="736.8047">Kh&#244;ng</text><rect fill="#F1F1F1" height="55.2313" rx="20" ry="20" style="stroke:#181818;stroke-width:0.8;" width="221.4875" x="146.725" y="776.25"/><text fill="#000000" font-family="Inter" font-size="19.2" lengthAdjust="spacing" textLength="189.4875" x="162.725" y="810.85">G&#225;n owner, due date</text><rect fill="#F1F1F1" height="55.2313" rx="20" ry="20" style="stroke:#181818;stroke-width:0.8;" width="463.7375" x="25.6" y="863.4813"/><text fill="#000000" font-family="Inter" font-size="19.2" lengthAdjust="spacing" textLength="431.7375" x="41.6" y="898.0813">-&gt; [V&#242;ng m&#7899;i] X&#225;c &#273;&#7883;nh objective v&#224; unknowns;</text><rect fill="#F1F1F1" height="55.2313" rx="20" ry="20" style="stroke:#181818;stroke-width:0.8;" width="367.6906" x="521.3375" y="776.25"/><text fill="#000000" font-family="Inter" font-size="19.2" lengthAdjust="spacing" textLength="335.6906" x="537.3375" y="810.85">Handoff sang analysis / specification</text><polygon fill="#F1F1F1" points="481.3258,928.3125,500.5258,947.5125,481.3258,966.7125,462.1258,947.5125,481.3258,928.3125" style="stroke:#181818;stroke-width:0.8;stroke-linejoin:miter;stroke-miterlimit:10;"/><ellipse cx="481.3258" cy="1016.3125" fill="none" rx="17.6" ry="17.6" style="stroke:#222222;stroke-width:1.6;"/><ellipse cx="481.3258" cy="1016.3125" fill="#222222" rx="9.6" ry="9.6" style="stroke:#222222;stroke-width:1.6;"/><line style="stroke:#181818;stroke-width:1.6;" x1="481.3258" x2="481.3258" y1="56" y2="88"/><polygon fill="#181818" points="474.9258,72,481.3258,88,487.7258,72,481.3258,78.4" style="stroke:#181818;stroke-width:1.6;stroke-linejoin:miter;stroke-miterlimit:10;"/><line style="stroke:#181818;stroke-width:1.6;" x1="481.3258" x2="481.3258" y1="143.2313" y2="175.2313"/><polygon fill="#181818" points="474.9258,159.2313,481.3258,175.2313,487.7258,159.2313,481.3258,165.6313" style="stroke:#181818;stroke-width:1.6;stroke-linejoin:miter;stroke-miterlimit:10;"/><line style="stroke:#181818;stroke-width:1.6;" x1="481.3258" x2="481.3258" y1="230.4625" y2="262.4625"/><polygon fill="#181818" points="474.9258,246.4625,481.3258,262.4625,487.7258,246.4625,481.3258,252.8625" style="stroke:#181818;stroke-width:1.6;stroke-linejoin:miter;stroke-miterlimit:10;"/><line style="stroke:#181818;stroke-width:1.6;" x1="481.3258" x2="481.3258" y1="317.6938" y2="349.6938"/><polygon fill="#181818" points="474.9258,333.6938,481.3258,349.6938,487.7258,333.6938,481.3258,340.0938" style="stroke:#181818;stroke-width:1.6;stroke-linejoin:miter;stroke-miterlimit:10;"/><line style="stroke:#181818;stroke-width:1.6;" x1="481.3258" x2="481.3258" y1="404.925" y2="436.925"/><polygon fill="#181818" points="474.9258,420.925,481.3258,436.925,487.7258,420.925,481.3258,427.325" style="stroke:#181818;stroke-width:1.6;stroke-linejoin:miter;stroke-miterlimit:10;"/><line style="stroke:#181818;stroke-width:1.6;" x1="481.3258" x2="481.3258" y1="492.1563" y2="524.1563"/><polygon fill="#181818" points="474.9258,508.1563,481.3258,524.1563,487.7258,508.1563,481.3258,514.5563" style="stroke:#181818;stroke-width:1.6;stroke-linejoin:miter;stroke-miterlimit:10;"/><line style="stroke:#181818;stroke-width:1.6;" x1="481.3258" x2="481.3258" y1="602.6188" y2="634.6188"/><polygon fill="#181818" points="474.9258,618.6188,481.3258,634.6188,487.7258,618.6188,481.3258,625.0188" style="stroke:#181818;stroke-width:1.6;stroke-linejoin:miter;stroke-miterlimit:10;"/><line style="stroke:#181818;stroke-width:1.6;" x1="257.4688" x2="257.4688" y1="831.4813" y2="863.4813"/><polygon fill="#181818" points="251.0688,847.4813,257.4688,863.4813,263.8688,847.4813,257.4688,853.8813" style="stroke:#181818;stroke-width:1.6;stroke-linejoin:miter;stroke-miterlimit:10;"/><line style="stroke:#181818;stroke-width:1.6;" x1="331.1785" x2="257.4688" y1="741.05" y2="741.05"/><line style="stroke:#181818;stroke-width:1.6;" x1="257.4688" x2="257.4688" y1="741.05" y2="776.25"/><polygon fill="#181818" points="251.0688,760.25,257.4688,776.25,263.8688,760.25,257.4688,766.65" style="stroke:#181818;stroke-width:1.6;stroke-linejoin:miter;stroke-miterlimit:10;"/><line style="stroke:#181818;stroke-width:1.6;" x1="631.473" x2="705.1828" y1="741.05" y2="741.05"/><line style="stroke:#181818;stroke-width:1.6;" x1="705.1828" x2="705.1828" y1="741.05" y2="776.25"/><polygon fill="#181818" points="698.7828,760.25,705.1828,776.25,711.5828,760.25,705.1828,766.65" style="stroke:#181818;stroke-width:1.6;stroke-linejoin:miter;stroke-miterlimit:10;"/><line style="stroke:#181818;stroke-width:1.6;" x1="257.4688" x2="257.4688" y1="918.7125" y2="947.5125"/><line style="stroke:#181818;stroke-width:1.6;" x1="257.4688" x2="462.1258" y1="947.5125" y2="947.5125"/><polygon fill="#181818" points="446.1258,941.1125,462.1258,947.5125,446.1258,953.9125,452.5258,947.5125" style="stroke:#181818;stroke-width:1.6;stroke-linejoin:miter;stroke-miterlimit:10;"/><line style="stroke:#181818;stroke-width:1.6;" x1="705.1828" x2="705.1828" y1="831.4813" y2="947.5125"/><line style="stroke:#181818;stroke-width:1.6;" x1="705.1828" x2="500.5258" y1="947.5125" y2="947.5125"/><polygon fill="#181818" points="516.5258,941.1125,500.5258,947.5125,516.5258,953.9125,510.1258,947.5125" style="stroke:#181818;stroke-width:1.6;stroke-linejoin:miter;stroke-miterlimit:10;"/><line style="stroke:#181818;stroke-width:1.6;" x1="481.3258" x2="481.3258" y1="689.85" y2="721.85"/><polygon fill="#181818" points="474.9258,705.85,481.3258,721.85,487.7258,705.85,481.3258,712.25" style="stroke:#181818;stroke-width:1.6;stroke-linejoin:miter;stroke-miterlimit:10;"/><line style="stroke:#181818;stroke-width:1.6;" x1="481.3258" x2="481.3258" y1="966.7125" y2="998.7125"/><polygon fill="#181818" points="474.9258,982.7125,481.3258,998.7125,487.7258,982.7125,481.3258,989.1125" style="stroke:#181818;stroke-width:1.6;stroke-linejoin:miter;stroke-miterlimit:10;"/><?plantuml-src ZP6nRjH048PxFyLV9jA5Y8RY8a4HYO2G418IGefIpAt7tkNiMT_kx8LBcpAYeAOXPOeq95MkD2_YDydQ5oJew5QZRxxP-ISQQXZFdxqeuj99Hu5Qb5nHQlIr5trFBUEjA8SYAWKjvf_xQuFVtuVjbLZunHSswjQCTVyJIPRYpoKU5VDZEso_2NBFagrlIWupH9-2sP7AnefR9PxGD3pS21PP2QfPIfeOamTPrDQ1rwvaCHFifKn6mOqpJacTbx5AdQR0gCZe3AlabMS8gTaDyul8OVs7_RWHjHpT1IFmAhd0BKlkeXXJsutGh31UeWPoeZj1nvAj79yK7nhQBCWifnWk_ruINyTqn0uFjnbq5VQE-r_oho0_IA1X3AX-jO_y6ncvk_q2c9_qrva_bp6mCZ5AqhmtS73m4gUVign6Esn_k3Fyro6uYOozTxQ_btholo4fVLKXKZQHKBE9Bk8GiMFZAcUUOifNS5K-kUyU0G00?></g></svg>