<svg xmlns="http://www.w3.org/2000/svg" xmlns:xlink="http://www.w3.org/1999/xlink" contentStyleType="text/css" data-diagram-type="STATE" height="1173px" preserveAspectRatio="none" style="width:1374px;height:1173px;background:#FFFFFF;" version="1.1" viewBox="0 0 859 733" width="1374px" zoomAndPan="magnify"><?plantuml 1.2026.6?><defs/><g><g class="entity" data-qualified-name="Draft" data-source-line="7" id="ent0001"><rect fill="#F1F1F1" height="50" rx="12.5" ry="12.5" style="stroke:#181818;stroke-width:0.5;" width="55.354" x="198.9" y="106"/><line style="stroke:#181818;stroke-width:0.5;" x1="198.9" x2="254.254" y1="134.1494" y2="134.1494"/><text fill="#000000" font-family="Inter" font-size="15" lengthAdjust="spacing" textLength="35.354" x="208.9" y="125.5313">Draft</text></g><g class="entity" data-qualified-name="CanCancel" id="ent0002"><polygon fill="#F1F1F1" points="190.4,484,202.4,496,190.4,508,178.4,496,190.4,484" style="stroke:#181818;stroke-width:0.5;stroke-linejoin:miter;stroke-miterlimit:10;"/></g><g class="start_entity" data-qualified-name=".start." data-source-line="5" id="ent0003"><ellipse cx="226.4" cy="16" fill="#222222" rx="10" ry="10" style="stroke:#222222;stroke-width:1;"/></g><rect fill="#F1F1F1" height="40" rx="12.5" ry="12.5" style="stroke:#181818;stroke-width:0.5;" width="136.9946" x="43.9" y="236"/><text fill="#000000" font-family="Inter" font-size="15" lengthAdjust="spacing" textLength="126.9946" x="48.9" y="261.4565">Pending_Payment</text><rect fill="#F1F1F1" height="40" rx="12.5" ry="12.5" style="stroke:#181818;stroke-width:0.5;" width="89.0649" x="295.9" y="356"/><text fill="#000000" font-family="Inter" font-size="15" lengthAdjust="spacing" textLength="79.0649" x="300.9" y="381.4565">Processing</text><rect fill="#F1F1F1" height="40" rx="12.5" ry="12.5" style="stroke:#181818;stroke-width:0.5;" width="80.752" x="86.9" y="596"/><text fill="#000000" font-family="Inter" font-size="15" lengthAdjust="spacing" textLength="70.752" x="91.9" y="621.4565">Cancelled</text><rect fill="#F1F1F1" height="40" rx="12.5" ry="12.5" style="stroke:#181818;stroke-width:0.5;" width="68.4253" x="510.4" y="476"/><text fill="#000000" font-family="Inter" font-size="15" lengthAdjust="spacing" textLength="58.4253" x="515.4" y="501.4565">Shipped</text><rect fill="#F1F1F1" height="40" rx="12.5" ry="12.5" style="stroke:#181818;stroke-width:0.5;" width="77.5879" x="496.4" y="596"/><text fill="#000000" font-family="Inter" font-size="15" lengthAdjust="spacing" textLength="67.5879" x="501.4" y="621.4565">Delivered</text><rect fill="#F1F1F1" height="40" rx="12.5" ry="12.5" style="stroke:#181818;stroke-width:0.5;" width="74.6143" x="274.9" y="596"/><text fill="#000000" font-family="Inter" font-size="15" lengthAdjust="spacing" textLength="64.6143" x="279.9" y="621.4565">Returned</text><g class="end_entity" data-qualified-name=".end." data-source-line="21" id="ent0018"><ellipse cx="312.4" cy="708" fill="none" rx="11" ry="11" style="stroke:#222222;stroke-width:1;"/><ellipse cx="312.4" cy="708" fill="#222222" rx="6" ry="6" style="stroke:#222222;stroke-width:1;"/></g><g class="entity" data-qualified-name="GMN25" data-source-line="9" id="ent0026"><path d="M289.4,108 L289.4,127 L253.94,131 L289.4,135 L289.4,154.2988 A0,0 0 0 0 289.4,154.2988 L507.6192,154.2988 A0,0 0 0 0 507.6192,154.2988 L507.6192,118 L497.6192,108 L289.4,108 A0,0 0 0 0 289.4,108" fill="#FEFFDD" style="stroke:#181818;stroke-width:0.5;"/><path d="M497.6192,108 L497.6192,118 L507.6192,118 L497.6192,108" fill="#FEFFDD" style="stroke:#181818;stroke-width:0.5;"/><text fill="#000000" font-family="Inter" font-size="15" lengthAdjust="spacing" textLength="143.0127" x="295.4" y="127.5313">&#272;&#417;n nh&#225;p, &#273;ang ch&#7901;</text><text fill="#000000" font-family="Inter" font-size="15" lengthAdjust="spacing" textLength="197.2192" x="295.4" y="145.6807">nh&#7853;p th&#7867;/ch&#7885;n ph&#432;&#417;ng th&#7913;c</text></g><!--link *start* to Draft--><g class="link" data-entity-1="ent0003" data-entity-2="ent0001" data-link-type="dependency" data-source-line="5" id="lnk4"><path d="M226.4,26.25 C226.4,43.43 226.4,75.79 226.4,100.67" fill="none" id="*start*-to-Draft" style="stroke:#181818;stroke-width:1;"/><polygon fill="#181818" points="226.4,105.67,230.4,96.67,226.4,100.67,222.4,96.67,226.4,105.67" style="stroke:#181818;stroke-width:1;stroke-linejoin:miter;stroke-miterlimit:10;"/><text fill="#000000" font-family="Inter" font-size="15" lengthAdjust="spacing" textLength="152.1387" x="227.4" y="71.5313">Kh&#225;ch b&#7845;m Checkout</text></g><!--link Draft to Pending_Payment--><g class="link" data-entity-1="ent0001" data-entity-2="ent0005" data-link-type="dependency" data-source-line="11" id="lnk6"><path d="M204.15,156.01 C182.5,179.36 153.4483,210.7024 133.5083,232.2224" fill="none" id="Draft-to-Pending_Payment" style="stroke:#181818;stroke-width:1;"/><polygon fill="#181818" points="130.11,235.89,139.1611,232.007,133.5083,232.2224,133.2929,226.5696,130.11,235.89" style="stroke:#181818;stroke-width:1;stroke-linejoin:miter;stroke-miterlimit:10;"/><text fill="#000000" font-family="Inter" font-size="15" lengthAdjust="spacing" textLength="89.9854" x="177.4" y="201.5313">Ch&#7885;n VNPay</text></g><!--link Draft to Processing--><g class="link" data-entity-1="ent0001" data-entity-2="ent0007" data-link-type="dependency" data-source-line="12" id="lnk8"><path d="M252.06,156.16 C260.34,164.96 269.01,175.36 275.4,186 C309.59,242.98 327.95,315.5815 335.56,351.0115" fill="none" id="Draft-to-Processing" style="stroke:#181818;stroke-width:1;"/><polygon fill="#181818" points="336.61,355.9,338.6308,346.2607,335.56,351.0115,330.8092,347.9407,336.61,355.9" style="stroke:#181818;stroke-width:1;stroke-linejoin:miter;stroke-miterlimit:10;"/><text fill="#000000" font-family="Inter" font-size="15" lengthAdjust="spacing" textLength="75.1538" x="316.4" y="261.5313">Ch&#7885;n COD</text></g><!--link Pending_Payment to Processing--><g class="link" data-entity-1="ent0005" data-entity-2="ent0007" data-link-type="dependency" data-source-line="14" id="lnk9"><path d="M105.28,276.12 C100.97,291.3 98.23,312.21 109.4,326 C132.4,354.39 230.3773,366.5844 290.7973,371.6244" fill="none" id="Pending_Payment-to-Processing" style="stroke:#181818;stroke-width:1;"/><polygon fill="#181818" points="295.78,372.04,287.1437,367.3057,290.7973,371.6244,286.4786,375.278,295.78,372.04" style="stroke:#181818;stroke-width:1;stroke-linejoin:miter;stroke-miterlimit:10;"/><text fill="#000000" font-family="Inter" font-size="15" lengthAdjust="spacing" textLength="203.3057" x="110.4" y="321.5313">IPN Success (&#272;&#227; thanh to&#225;n)</text></g><!--link Pending_Payment to Cancelled--><g class="link" data-entity-1="ent0005" data-entity-2="ent0010" data-link-type="dependency" data-source-line="15" id="lnk11"><path d="M93.17,276.05 C62.08,309.27 6,380.49 24.4,446 C41.3,506.21 83.0411,562.3789 107.6011,592.0389" fill="none" id="Pending_Payment-to-Cancelled" style="stroke:#181818;stroke-width:1;"/><polygon fill="#181818" points="110.79,595.89,108.1309,586.4069,107.6011,592.0389,101.9691,591.5092,110.79,595.89" style="stroke:#181818;stroke-width:1;stroke-linejoin:miter;stroke-miterlimit:10;"/><text fill="#000000" font-family="Inter" font-size="15" lengthAdjust="spacing" textLength="143.4155" x="25.4" y="441.5313">IPN Failed / Timeout</text></g><!--link Processing to Shipped--><g class="link" data-entity-1="ent0007" data-entity-2="ent0012" data-link-type="dependency" data-source-line="17" id="lnk13"><path d="M385.12,386.95 C413.65,394.65 450.55,407.22 479.4,426 C499.95,439.38 515.513,456.6189 527.513,471.9889" fill="none" id="Processing-to-Shipped" style="stroke:#181818;stroke-width:1;"/><polygon fill="#181818" points="530.59,475.93,528.2043,466.3745,527.513,471.9889,521.8986,471.2976,530.59,475.93" style="stroke:#181818;stroke-width:1;stroke-linejoin:miter;stroke-miterlimit:10;"/><text fill="#000000" font-family="Inter" font-size="15" lengthAdjust="spacing" textLength="228.2886" x="504.4" y="441.5313">Nh&#226;n vi&#234;n kho qu&#233;t m&#227; xu&#7845;t kho</text></g><!--link Shipped to Delivered--><g class="link" data-entity-1="ent0012" data-entity-2="ent0014" data-link-type="dependency" data-source-line="18" id="lnk15"><path d="M578.54,514.23 C599.01,527.07 619.16,545.82 608.4,566 C601,579.87 592.0512,587.9875 578.8412,595.7475" fill="none" id="Shipped-to-Delivered" style="stroke:#181818;stroke-width:1;"/><polygon fill="#181818" points="574.53,598.28,584.3162,597.1704,578.8412,595.7475,580.2641,590.2725,574.53,598.28" style="stroke:#181818;stroke-width:1;stroke-linejoin:miter;stroke-miterlimit:10;"/><text fill="#000000" font-family="Inter" font-size="15" lengthAdjust="spacing" textLength="231.8262" x="611.4" y="561.5313">Kh&#225;ch h&#224;ng x&#225;c nh&#7853;n nh&#7853;n h&#224;ng</text></g><!--link Shipped to Returned--><g class="link" data-entity-1="ent0012" data-entity-2="ent0016" data-link-type="dependency" data-source-line="19" id="lnk17"><path d="M510,498.87 C450.16,502.93 330.83,514.82 305.4,546 C294.13,559.81 296.535,576.0061 302.005,591.1861" fill="none" id="Shipped-to-Returned" style="stroke:#181818;stroke-width:1;"/><polygon fill="#181818" points="303.7,595.89,304.4121,586.0669,302.005,591.1861,296.8858,588.779,303.7,595.89" style="stroke:#181818;stroke-width:1;stroke-linejoin:miter;stroke-miterlimit:10;"/><text fill="#000000" font-family="Inter" font-size="15" lengthAdjust="spacing" textLength="293.5767" x="306.4" y="561.5313">Kh&#225;ch h&#224;ng b&#7845;m Ho&#224;n tr&#7843; [Trong 7 ng&#224;y]</text></g><!--link Delivered to *end*--><g class="link" data-entity-1="ent0014" data-entity-2="ent0018" data-link-type="dependency" data-source-line="21" id="lnk19"><path d="M496.3,632.78 C443.58,654.05 357.4664,688.8083 327.1964,701.0283" fill="none" id="Delivered-to-*end*" style="stroke:#181818;stroke-width:1;"/><polygon fill="#181818" points="322.56,702.9,332.403,703.24,327.1964,701.0283,329.4082,695.8217,322.56,702.9" style="stroke:#181818;stroke-width:1;stroke-linejoin:miter;stroke-miterlimit:10;"/></g><!--link Returned to *end*--><g class="link" data-entity-1="ent0016" data-entity-2="ent0018" data-link-type="dependency" data-source-line="22" id="lnk20"><path d="M312.4,636.09 C312.4,654.66 312.4,677.17 312.4,691.87" fill="none" id="Returned-to-*end*" style="stroke:#181818;stroke-width:1;"/><polygon fill="#181818" points="312.4,696.87,316.4,687.87,312.4,691.87,308.4,687.87,312.4,696.87" style="stroke:#181818;stroke-width:1;stroke-linejoin:miter;stroke-miterlimit:10;"/></g><!--link Cancelled to *end*--><g class="link" data-entity-1="ent0010" data-entity-2="ent0018" data-link-type="dependency" data-source-line="23" id="lnk21"><path d="M166.63,636.09 C210.33,657.35 273.5935,688.1234 298.3935,700.1834" fill="none" id="Cancelled-to-*end*" style="stroke:#181818;stroke-width:1;"/><polygon fill="#181818" points="302.89,702.37,296.5456,694.8369,298.3935,700.1834,293.047,702.0313,302.89,702.37" style="stroke:#181818;stroke-width:1;stroke-linejoin:miter;stroke-miterlimit:10;"/></g><!--link Processing to CanCancel--><g class="link" data-entity-1="ent0007" data-entity-2="ent0002" data-link-type="dependency" data-source-line="27" id="lnk22"><path d="M350.45,396.08 C356.81,411.05 362.01,431.67 351.4,446 C315.56,494.36 238.1476,496.7756 207.3176,495.8156" fill="none" id="Processing-to-CanCancel" style="stroke:#181818;stroke-width:1;"/><polygon fill="#181818" points="202.32,495.66,211.1911,499.9382,207.3176,495.8156,211.4401,491.942,202.32,495.66" style="stroke:#181818;stroke-width:1;stroke-linejoin:miter;stroke-miterlimit:10;"/><text fill="#000000" font-family="Inter" font-size="15" lengthAdjust="spacing" textLength="112.4414" x="358.4" y="441.5313">Kh&#225;ch b&#7845;m H&#7911;y</text></g><!--link CanCancel to Processing--><g class="link" data-entity-1="ent0002" data-entity-2="ent0007" data-link-type="dependency" data-source-line="29" id="lnk24"><path d="M186.54,487.28 C180.26,473.51 169.84,444.43 183.4,426 C208.94,391.27 253.9868,380.8695 290.7368,377.8495" fill="none" id="CanCancel-to-Processing" style="stroke:#181818;stroke-width:1;"/><polygon fill="#181818" points="295.72,377.44,286.4226,374.1905,290.7368,377.8495,287.0778,382.1637,295.72,377.44" style="stroke:#181818;stroke-width:1;stroke-linejoin:miter;stroke-miterlimit:10;"/><text fill="#000000" font-family="Inter" font-size="15" lengthAdjust="spacing" textLength="158.1592" x="184.4" y="441.5313">[&#272;&#227; xu&#7845;t kho - B&#225;o l&#7895;i]</text></g><!--link CanCancel to Cancelled--><g class="link" data-entity-1="ent0002" data-entity-2="ent0010" data-link-type="dependency" data-source-line="28" id="lnk23"><path d="M182.39,500.07 C167.68,506.2 136.71,521.52 124.4,546 C116.64,561.42 117.4925,576.4453 120.6525,590.9053" fill="none" id="CanCancel-to-Cancelled" style="stroke:#181818;stroke-width:1;"/><polygon fill="#181818" points="121.72,595.79,123.7063,586.1435,120.6525,590.9053,115.8908,587.8515,121.72,595.79" style="stroke:#181818;stroke-width:1;stroke-linejoin:miter;stroke-miterlimit:10;"/><text fill="#000000" font-family="Inter" font-size="15" lengthAdjust="spacing" textLength="143.877" x="125.4" y="561.5313">[&#272;&#417;n ch&#432;a xu&#7845;t kho]</text></g><?plantuml-src RL9DQnin4BthLmovz8CQqqCfXE137TA4WcjgqujhYYBBbl3kQAlLchYbvvuAwQdqK8XhIacWqBFtA9F_iV-aerqxTfoSTZNptfjXtal76XDkUGm3EUHPv8uCkXQF9PoWavQbz_Kx-gE4fy-OqWC9CaxSbBgfi3fnsY1ZlSTzgDKQS6ZvqC4-l59-9XIS5elVCJIL56EJESPInvrSWJwnpmmDFQqUAGTcMDNtONb-FKD0KaYUmF8Rnn48LUG_to6gOl4t0KUVl1vgNn4ITVsFyADGpIy5OvLwMAOjSQ1nzBxDfx74i5QpuhnjKMaRQ8sGQKhO3QRv-f2nNOKxu9Ds2pgP20Luk3ptSrg3em9d_0mVtSjlSXGoYkHWHJ_YEZpgqDMnBA-qDI4GEaedIGblAVyBOQBz5S9O6VYG-Ki7CKqzo-ZIBXJP6bxQ8ICzaROahonH_e9qp-WVodFY-bCsRh7VI9TPl4kkN3qsz01dYyKSUbrhgF4SSEGlfdqouMPm4A9qi1knTM5pXtM5FO2kybSnn4N-mvNIbR5-fkdAYRHG1QWEBoDpoYEG4xhgAbLxnqN-Pqg12UaX3-S9H4N-PGzu6cvUZOE30w6C5hBHs3tp1hCJtrANRTgx9lQgm0eA8jyoehz3kPMRNfcL3HXgyCBFJDZuk-wp_m00?></g></svg>