<svg xmlns="http://www.w3.org/2000/svg" xmlns:xlink="http://www.w3.org/1999/xlink" contentStyleType="text/css" data-diagram-type="DESCRIPTION" height="475px" preserveAspectRatio="none" style="width:1752px;height:475px;background:#FFFFFF;" version="1.1" viewBox="0 0 1095 297" width="1752px" zoomAndPan="magnify"><?plantuml 1.2026.6?><defs/><g><!--cluster ShopFlow - Order Management--><g class="cluster" data-qualified-name="ShopFlow - Order Management" data-source-line="9" id="ent0004"><rect fill="none" height="180" rx="2.5" ry="2.5" style="stroke:#181818;stroke-width:1;" width="684" x="137" y="7"/><text fill="#000000" font-family="Inter" font-size="15" font-weight="700" lengthAdjust="spacing" textLength="229.0723" x="364.4639" y="23.5313">ShopFlow - Order Management</text></g><!--entity UC_Checkout--><g class="entity" data-qualified-name="ShopFlow - Order Management.UC_Checkout" data-source-line="10" id="ent0005"><ellipse cx="261.3775" cy="68.0755" fill="#F1F1F1" rx="108.3775" ry="24.0755" style="stroke:#181818;stroke-width:0.5;"/><text fill="#000000" font-family="Inter" font-size="15" lengthAdjust="spacing" textLength="190.2173" x="166.2688" y="73.6502">SF-3: &#272;&#7863;t h&#224;ng (Checkout)</text></g><!--entity UC_Payment--><g class="entity" data-qualified-name="ShopFlow - Order Management.UC_Payment" data-source-line="11" id="ent0006"><ellipse cx="705.6475" cy="67.8295" fill="#F1F1F1" rx="99.6475" ry="22.3295" style="stroke:#181818;stroke-width:0.5;"/><text fill="#000000" font-family="Inter" font-size="15" lengthAdjust="spacing" textLength="170.6689" x="620.313" y="73.4042">SF-4: Thanh to&#225;n online</text></g><!--entity UC_Inventory--><g class="entity" data-qualified-name="ShopFlow - Order Management.UC_Inventory" data-source-line="12" id="ent0007"><ellipse cx="705.6473" cy="148.0295" fill="#F1F1F1" rx="98.1473" ry="22.0295" style="stroke:#181818;stroke-width:0.5;"/><text fill="#000000" font-family="Inter" font-size="15" lengthAdjust="spacing" textLength="167.2632" x="622.0157" y="153.6042">SF-11: C&#7853;p nh&#7853;t t&#7891;n kho</text></g><!--entity UC_Track--><g class="entity" data-qualified-name="ShopFlow - Order Management.UC_Track" data-source-line="13" id="ent0008"><ellipse cx="261.5868" cy="148.8174" fill="#F1F1F1" rx="97.0868" ry="21.8174" style="stroke:#181818;stroke-width:0.5;"/><text fill="#000000" font-family="Inter" font-size="15" lengthAdjust="spacing" textLength="164.8462" x="179.1637" y="154.3921">Theo d&#245;i tr&#7841;ng th&#225;i &#273;&#417;n</text></g><!--entity Customer--><g class="entity" data-qualified-name="Customer" data-source-line="5" id="ent0001"><ellipse cx="48.1912" cy="78.5" fill="#F1F1F1" rx="8" ry="8" style="stroke:#181818;stroke-width:0.5;"/><path d="M48.1912,86.5 L48.1912,113.5 M35.1912,94.5 L61.1912,94.5 M48.1912,113.5 L35.1912,128.5 M48.1912,113.5 L61.1912,128.5" fill="none" style="stroke:#181818;stroke-width:0.5;"/><text fill="#000000" font-family="Inter" font-size="15" lengthAdjust="spacing" textLength="84.3823" x="6" y="144.5313">Kh&#225;ch h&#224;ng</text></g><!--entity WarehouseStaff--><g class="entity" data-qualified-name="WarehouseStaff" data-source-line="6" id="ent0002"><ellipse cx="261.3301" cy="214.5" fill="#F1F1F1" rx="8" ry="8" style="stroke:#181818;stroke-width:0.5;"/><path d="M261.3301,222.5 L261.3301,249.5 M248.3301,230.5 L274.3301,230.5 M261.3301,249.5 L248.3301,264.5 M261.3301,249.5 L274.3301,264.5" fill="none" style="stroke:#181818;stroke-width:0.5;"/><text fill="#000000" font-family="Inter" font-size="15" lengthAdjust="spacing" textLength="101.6602" x="210.5" y="280.5313">Nh&#226;n vi&#234;n kho</text></g><!--entity PaymentGateway--><g class="entity" data-qualified-name="PaymentGateway" data-source-line="7" id="ent0003"><ellipse cx="974.2598" cy="46.6494" fill="#F1F1F1" rx="8" ry="8" style="stroke:#181818;stroke-width:0.5;"/><path d="M974.2598,54.6494 L974.2598,81.6494 M961.2598,62.6494 L987.2598,62.6494 M974.2598,81.6494 L961.2598,96.6494 M974.2598,81.6494 L987.2598,96.6494" fill="none" style="stroke:#181818;stroke-width:0.5;"/><text fill="#000000" font-family="Inter" font-size="15" lengthAdjust="spacing" textLength="212.5195" x="868" y="112.6807">H&#7879; th&#7889;ng Thanh to&#225;n (VNPay)</text><text fill="#000000" font-family="Inter" font-size="15" font-style="italic" lengthAdjust="spacing" textLength="75.6152" x="936.4521" y="34.5313">&#171;External&#187;</text></g><!--link UC_Checkout to UC_Inventory--><g class="link" data-entity-1="ent0005" data-entity-2="ent0007" data-link-type="dependency" data-source-line="15" id="lnk9"><path d="M340.95,84.42 C360.23,88.34 380.84,92.41 400,96 C476.44,110.31 559.0364,124.2779 620.5764,134.4079" fill="none" id="UC_Checkout-to-UC_Inventory" style="stroke:#181818;stroke-width:1;stroke-dasharray:7,7;"/><polygon fill="#181818" points="625.51,135.22,617.2792,129.8113,620.5764,134.4079,615.9798,137.7051,625.51,135.22" style="stroke:#181818;stroke-width:1;stroke-linejoin:miter;stroke-miterlimit:10;"/><text fill="#000000" font-family="Inter" font-size="15" lengthAdjust="spacing" textLength="68.9722" x="454" y="91.5313">&#171;include&#187;</text></g><!--reverse link UC_Checkout to UC_Payment--><g class="link" data-entity-1="ent0005" data-entity-2="ent0006" data-link-type="dependency" data-source-line="16" id="lnk10"><path d="M375.06,68 C446.99,68 535.92,68 605.92,68" fill="none" id="UC_Checkout-backto-UC_Payment" style="stroke:#181818;stroke-width:1;stroke-dasharray:7,7;"/><polygon fill="#181818" points="370.06,68,379.06,72,375.06,68,379.06,64,370.06,68" style="stroke:#181818;stroke-width:1;stroke-linejoin:miter;stroke-miterlimit:10;"/><text fill="#000000" font-family="Inter" font-size="15" lengthAdjust="spacing" textLength="174.0015" x="401" y="63.5313">&#171;extend&#187; (n&#7871;u ch&#7885;n th&#7867;)</text></g><!--link Customer to UC_Checkout--><g class="link" data-entity-1="ent0001" data-entity-2="ent0005" data-link-type="dependency" data-source-line="19" id="lnk11"><path d="M90.03,101.05 C115.38,96.13 143.8715,90.6121 174.3915,84.6921" fill="none" id="Customer-to-UC_Checkout" style="stroke:#181818;stroke-width:1;"/><polygon fill="#181818" points="179.3,83.74,169.703,81.527,174.3915,84.6921,171.2264,89.3806,179.3,83.74" style="stroke:#181818;stroke-width:1;stroke-linejoin:miter;stroke-miterlimit:10;"/></g><!--link Customer to UC_Track--><g class="link" data-entity-1="ent0001" data-entity-2="ent0008" data-link-type="dependency" data-source-line="20" id="lnk12"><path d="M90.03,116.76 C117.3,121.92 148.9872,127.9104 181.2772,134.0204" fill="none" id="Customer-to-UC_Track" style="stroke:#181818;stroke-width:1;"/><polygon fill="#181818" points="186.19,134.95,178.0906,129.3464,181.2772,134.0204,176.6032,137.2069,186.19,134.95" style="stroke:#181818;stroke-width:1;stroke-linejoin:miter;stroke-miterlimit:10;"/></g><!--link WarehouseStaff to UC_Inventory--><g class="link" data-entity-1="ent0002" data-entity-2="ent0007" data-link-type="dependency" data-source-line="21" id="lnk13"><path d="M312.77,233.97 C391.74,216.64 540.1762,184.0619 629.7962,164.3919" fill="none" id="WarehouseStaff-to-UC_Inventory" style="stroke:#181818;stroke-width:1;"/><polygon fill="#181818" points="634.68,163.32,625.0317,161.3424,629.7962,164.3919,626.7468,169.1564,634.68,163.32" style="stroke:#181818;stroke-width:1;stroke-linejoin:miter;stroke-miterlimit:10;"/></g><!--link UC_Payment to PaymentGateway--><g class="link" data-entity-1="ent0006" data-entity-2="ent0003" data-link-type="dependency" data-source-line="22" id="lnk14"><path d="M805.16,68 C825.51,68 842.03,68 862.62,68" fill="none" id="UC_Payment-to-PaymentGateway" style="stroke:#181818;stroke-width:1;"/><polygon fill="#181818" points="867.62,68,858.62,64,862.62,68,858.62,72,867.62,68" style="stroke:#181818;stroke-width:1;stroke-linejoin:miter;stroke-miterlimit:10;"/></g><?plantuml-src RP71YXD148Rl_HG_EMKF2GJr4i9SWj55Z4AY7gMOgKmtcLI7dfvTetZs9BZu0iQZu564vE1X5jzZtiIUP8VD1A5Xcgd_w_hhhtnfP4sELaXuGKNc9rRyb5QCI_7iLFw_-ioyPmmUgOmN7jx2cLHx9CPnx8qLfIZsrg7pJ9VRM4ENtoJjW7ACYzpRLNZsJZ3LvNV1bIb_29RQ7ZHloB6sHSupJuj5etnQxJ_1wsf_8odccaI7nkLMq7qzVKcRYmCQBYiM_uGyNzC6ez7ZTs46eIoAbAhDaQGPepFJTZt9x3LwUE4ITdXEGYdNR0SV512wnvJNoadlmH2tNwhTRt-S0zsnvdXf2t_i-Mhyjlbn1ZuSjenQoOnmmznPFKC6Wo76rUxd6gB39uHRxR_UHnEuIxaAc7MRKtAksI8fVnbuL-ssmQGFoHlStlpTIaFE7SNBG8LpuXdzVjHw5yEGcv4uAn8EiRN5etx_nFn1oY5YIQ88NQbsVmh4OKUVfLxLRd-XFYhLx1ozNjHAwxnmDDXUVrEx7_kaVLrhh_mV?></g></svg>