<svg xmlns="http://www.w3.org/2000/svg" xmlns:xlink="http://www.w3.org/1999/xlink" contentStyleType="text/css" data-diagram-type="DESCRIPTION" height="872px" preserveAspectRatio="none" style="width:910px;height:872px;background:#FFFFFF;" version="1.1" viewBox="0 0 569 545" width="910px" zoomAndPan="magnify"><?plantuml 1.2026.6?><defs/><g><!--entity Backlog--><g class="entity" data-qualified-name="Backlog" data-source-line="3" id="ent0001"><rect fill="#FFFFE0" height="56.2988" rx="2.5" ry="2.5" style="stroke:#181818;stroke-width:0.5;" width="139.6265" x="287" y="7"/><text fill="#000000" font-family="Inter" font-size="15" lengthAdjust="spacing" textLength="116.8359" x="297" y="31.5313">Product Backlog</text><text fill="#000000" font-family="Inter" font-size="15" lengthAdjust="spacing" textLength="119.6265" x="297" y="49.6807">(BA + PO duy tr&#236;)</text></g><!--entity Planning--><g class="entity" data-qualified-name="Planning" data-source-line="4" id="ent0002"><rect fill="#ADD8E6" height="56.2988" rx="2.5" ry="2.5" style="stroke:#181818;stroke-width:0.5;" width="189.7241" x="181" y="124"/><text fill="#000000" font-family="Inter" font-size="15" lengthAdjust="spacing" textLength="107.1313" x="191" y="148.5313">Sprint Planning</text><text fill="#000000" font-family="Inter" font-size="15" lengthAdjust="spacing" textLength="169.7241" x="191" y="166.6807">(BA l&#224;m r&#245; requirement)</text></g><!--entity Sprint--><g class="entity" data-qualified-name="Sprint" data-source-line="5" id="ent0003"><rect fill="#D3D3D3" height="56.2988" rx="2.5" ry="2.5" style="stroke:#181818;stroke-width:0.5;" width="212.9932" x="126.5" y="241"/><text fill="#000000" font-family="Inter" font-size="15" lengthAdjust="spacing" textLength="104.0479" x="136.5" y="265.5313">Sprint 1-4 tu&#7847;n</text><text fill="#000000" font-family="Inter" font-size="15" lengthAdjust="spacing" textLength="192.9932" x="136.5" y="283.6807">(BA tr&#7843; l&#7901;i c&#226;u h&#7887;i dev/test)</text></g><!--entity Standup--><g class="entity" data-qualified-name="Standup" data-source-line="6" id="ent0004"><rect fill="#D3D3D3" height="56.2988" rx="2.5" ry="2.5" style="stroke:#181818;stroke-width:0.5;" width="148.2251" x="7" y="358"/><text fill="#000000" font-family="Inter" font-size="15" lengthAdjust="spacing" textLength="98.2178" x="17" y="382.5313">Daily Standup</text><text fill="#000000" font-family="Inter" font-size="15" lengthAdjust="spacing" textLength="128.2251" x="17" y="400.6807">(BA nghe blocker)</text></g><!--entity Review--><g class="entity" data-qualified-name="Review" data-source-line="7" id="ent0005"><rect fill="#90EE90" height="56.2988" rx="2.5" ry="2.5" style="stroke:#181818;stroke-width:0.5;" width="186.9849" x="190.5" y="358"/><text fill="#000000" font-family="Inter" font-size="15" lengthAdjust="spacing" textLength="97.5586" x="200.5" y="382.5313">Sprint Review</text><text fill="#000000" font-family="Inter" font-size="15" lengthAdjust="spacing" textLength="166.9849" x="200.5" y="400.6807">(BA quan s&#225;t feedback)</text></g><!--entity Retro--><g class="entity" data-qualified-name="Retro" data-source-line="8" id="ent0006"><rect fill="#D3D3D3" height="56.2988" rx="2.5" ry="2.5" style="stroke:#181818;stroke-width:0.5;" width="178.3716" x="268" y="475"/><text fill="#000000" font-family="Inter" font-size="15" lengthAdjust="spacing" textLength="98.0786" x="278" y="499.5313">Retrospective</text><text fill="#000000" font-family="Inter" font-size="15" lengthAdjust="spacing" textLength="158.3716" x="278" y="517.6807">(BA &#273;&#243;ng g&#243;p c&#7843;i ti&#7871;n)</text></g><!--link Backlog to Planning--><g class="link" data-entity-1="ent0001" data-entity-2="ent0002" data-link-type="dependency" data-source-line="10" id="lnk7"><path d="M337.8,63.25 C324.89,81.59 310.8189,101.5619 297.9389,119.8519" fill="none" id="Backlog-to-Planning" style="stroke:#181818;stroke-width:1;"/><polygon fill="#181818" points="295.06,123.94,303.5124,118.8846,297.9389,119.8519,296.9715,114.2784,295.06,123.94" style="stroke:#181818;stroke-width:1;stroke-linejoin:miter;stroke-miterlimit:10;"/></g><!--link Planning to Sprint--><g class="link" data-entity-1="ent0002" data-entity-2="ent0003" data-link-type="dependency" data-source-line="11" id="lnk8"><path d="M265.81,180.25 C258.96,198.59 251.7114,217.9668 244.8714,236.2568" fill="none" id="Planning-to-Sprint" style="stroke:#181818;stroke-width:1;"/><polygon fill="#181818" points="243.12,240.94,250.0191,233.9113,244.8714,236.2568,242.526,231.1091,243.12,240.94" style="stroke:#181818;stroke-width:1;stroke-linejoin:miter;stroke-miterlimit:10;"/></g><!--link Sprint to Standup--><g class="link" data-entity-1="ent0003" data-entity-2="ent0004" data-link-type="dependency" data-source-line="12" id="lnk9"><path d="M185.95,297.25 C159.42,315.59 131.4548,336.4415 109.5948,354.7315" fill="none" id="Sprint-to-Standup" style="stroke:#181818;stroke-width:1;"/><polygon fill="#181818" points="105.76,357.94,115.2294,355.2325,109.5948,354.7315,110.0958,349.0969,105.76,357.94" style="stroke:#181818;stroke-width:1;stroke-linejoin:miter;stroke-miterlimit:10;"/></g><!--link Standup to Sprint--><g class="link" data-entity-1="ent0004" data-entity-2="ent0003" data-link-type="dependency" data-source-line="13" id="lnk10"><path d="M128.42,357.94 C155.05,339.65 183.0339,318.8088 204.8339,300.4688" fill="none" id="Standup-to-Sprint" style="stroke:#181818;stroke-width:1;"/><polygon fill="#181818" points="208.66,297.25,199.1979,299.983,204.8339,300.4688,204.3481,306.1048,208.66,297.25" style="stroke:#181818;stroke-width:1;stroke-linejoin:miter;stroke-miterlimit:10;"/></g><!--link Sprint to Review--><g class="link" data-entity-1="ent0003" data-entity-2="ent0005" data-link-type="dependency" data-source-line="14" id="lnk11"><path d="M245.09,297.25 C253.22,315.59 261.8633,335.0792 269.9733,353.3692" fill="none" id="Sprint-to-Review" style="stroke:#181818;stroke-width:1;"/><polygon fill="#181818" points="272,357.94,272.0085,348.0911,269.9733,353.3692,264.6952,351.3339,272,357.94" style="stroke:#181818;stroke-width:1;stroke-linejoin:miter;stroke-miterlimit:10;"/></g><!--link Review to Retro--><g class="link" data-entity-1="ent0005" data-entity-2="ent0006" data-link-type="dependency" data-source-line="15" id="lnk12"><path d="M301.3,414.25 C312.94,432.59 325.5304,452.4287 337.1404,470.7187" fill="none" id="Review-to-Retro" style="stroke:#181818;stroke-width:1;"/><polygon fill="#181818" points="339.82,474.94,338.3738,465.1979,337.1404,470.7187,331.6196,469.4853,339.82,474.94" style="stroke:#181818;stroke-width:1;stroke-linejoin:miter;stroke-miterlimit:10;"/></g><!--link Retro to Backlog--><g class="link" data-entity-1="ent0006" data-entity-2="ent0001" data-link-type="dependency" data-source-line="16" id="lnk13"><path d="M387.1,474.86 C407.59,453.3 431,421.19 431,387 C431,151 431,151 431,151 C431,116.81 411.0345,88.3243 390.5445,66.7643" fill="none" id="Retro-to-Backlog" style="stroke:#181818;stroke-width:1;"/><polygon fill="#181818" points="387.1,63.14,390.4006,72.4193,390.5445,66.7643,396.1995,66.9082,387.1,63.14" style="stroke:#181818;stroke-width:1;stroke-linejoin:miter;stroke-miterlimit:10;"/><text fill="#000000" font-family="Inter" font-size="15" lengthAdjust="spacing" textLength="121.9116" x="432" y="274.5313">c&#7853;p nh&#7853;t backlog</text></g><?plantuml-src TP6_IWD14CRxVOeXDee42MXZ8HX44KH3KWascxl9tPAzkSlUR49y2V411FyKDbe5cwImE5_atiIDUnUkYDMotyp-vljcyx6YJ1gPG8WZQJMVfyJNCa6u94OZyctrWRf7w1m9Wm5BYZH2gsVIq0OCNHcCTHhTqMxt5FQXTmEXdGERucEl1JAlwx1pfQAORr7hTDRa33AZYA6d9P6YYgEBvmHCyGK69rOPJ93Ou-g-YjVL5hVGEkr3O5iktydps9JBDz3bwab1KBnQYClLWt89fmUCUOMktdhmXP7p9lXCAZs7WRk6DlDGYcA4eKw3CPgAuCl_82f-7wSAPnuniP8WBruOHeZXqAtAWtpFXeD8JL0VsQHvvWGrHG_wUImMRYbHiSWWS5aLi2gNtrJZt8EcAr7_IhjzibcfsEnshNgteZBzf_XqeawvlSjR5rK2hxZfmdjOt-lPnskddnbGx0w6ePT_0G00?></g></svg>