<svg xmlns="http://www.w3.org/2000/svg" xmlns:xlink="http://www.w3.org/1999/xlink" contentStyleType="text/css" data-diagram-type="ACTIVITY" height="1360px" preserveAspectRatio="none" style="width:2853px;height:1360px;background:#FFFFFF;" version="1.1" viewBox="0 0 1783 850" width="2853px" zoomAndPan="magnify"><?plantuml 1.2026.6?><defs/><g><rect fill="none" height="16.9395" style="stroke:none;stroke-width:1;" width="1736.5376" x="20" y="16.877"/><ellipse cx="134.7827" cy="48.8164" fill="#222222" rx="10" ry="10" style="stroke:#222222;stroke-width:1;"/><rect fill="#F1F1F1" height="36.9395" rx="12.5" ry="12.5" style="stroke:#181818;stroke-width:0.5;" width="199.293" x="35.1362" y="78.8164"/><text fill="#000000" font-family="Inter" font-size="14" lengthAdjust="spacing" textLength="179.293" x="45.1362" y="102.3789">B&#7845;m "Ti&#7871;n h&#224;nh Checkout"</text><rect fill="#F1F1F1" height="36.9395" rx="12.5" ry="12.5" style="stroke:#181818;stroke-width:0.5;" width="217.5654" x="26" y="135.7559"/><text fill="#000000" font-family="Inter" font-size="14" lengthAdjust="spacing" textLength="197.5654" x="36" y="159.3184">Ch&#7885;n ph&#432;&#417;ng th&#7913;c thanh to&#225;n</text><rect fill="#F1F1F1" height="36.9395" rx="12.5" ry="12.5" style="stroke:#181818;stroke-width:0.5;" width="167.2734" x="253.5654" y="402.5742"/><text fill="#000000" font-family="Inter" font-size="14" lengthAdjust="spacing" textLength="147.2734" x="263.5654" y="426.1367">Th&#7921;c hi&#7879;n qu&#233;t m&#227; QR</text><line style="stroke:#000000;stroke-width:1.5;" x1="20" x2="20" y1="16.877" y2="829.2715"/><polygon fill="#F1F1F1" points="728.3763,192.6953,820.1078,192.6953,832.1078,204.6953,820.1078,216.6953,728.3763,216.6953,716.3763,204.6953,728.3763,192.6953" style="stroke:#181818;stroke-width:0.5;stroke-linejoin:miter;stroke-miterlimit:10;"/><text fill="#000000" font-family="Inter" font-size="14" lengthAdjust="spacing" textLength="91.7314" x="728.3763" y="209.7881">Ph&#432;&#417;ng th&#7913;c?</text><text fill="#000000" font-family="Inter" font-size="14" lengthAdjust="spacing" textLength="31.0352" x="685.3412" y="201.3184">COD</text><text fill="#000000" font-family="Inter" font-size="14" lengthAdjust="spacing" textLength="44.8779" x="832.1078" y="201.3184">VNPay</text><rect fill="#F1F1F1" height="36.9395" rx="12.5" ry="12.5" style="stroke:#181818;stroke-width:0.5;" width="254.7529" x="430.8389" y="236.6953"/><text fill="#000000" font-family="Inter" font-size="14" lengthAdjust="spacing" textLength="234.7529" x="440.8389" y="260.2578">T&#7841;o &#273;&#417;n h&#224;ng (Tr&#7841;ng th&#225;i: Pending)</text><rect fill="#555555" height="6" rx="2.5" ry="2.5" style="stroke:#555555;stroke-width:1;" width="483.7822" x="748.3777" y="236.6953"/><rect fill="#F1F1F1" height="36.9395" rx="12.5" ry="12.5" style="stroke:#181818;stroke-width:0.5;" width="233.5547" x="762.3777" y="262.6953"/><text fill="#000000" font-family="Inter" font-size="14" lengthAdjust="spacing" textLength="213.5547" x="772.3777" y="286.2578">T&#7841;o &#273;&#417;n h&#224;ng (Tr&#7841;ng th&#225;i: Draft)</text><rect fill="#F1F1F1" height="36.9395" rx="12.5" ry="12.5" style="stroke:#181818;stroke-width:0.5;" width="194.2275" x="1023.9324" y="262.6953"/><text fill="#000000" font-family="Inter" font-size="14" lengthAdjust="spacing" textLength="174.2275" x="1033.9324" y="286.2578">G&#7885;i API t&#7841;o link thanh to&#225;n</text><rect fill="#555555" height="6" rx="2.5" ry="2.5" style="stroke:#555555;stroke-width:1;" width="483.7822" x="748.3777" y="319.6348"/><rect fill="#F1F1F1" height="36.9395" rx="12.5" ry="12.5" style="stroke:#181818;stroke-width:0.5;" width="263.6191" x="715.5918" y="560.4531"/><text fill="#000000" font-family="Inter" font-size="14" lengthAdjust="spacing" textLength="243.6191" x="725.5918" y="584.0156">C&#7853;p nh&#7853;t &#273;&#417;n h&#224;ng (Tr&#7841;ng th&#225;i: Paid)</text><rect fill="#F1F1F1" height="36.9395" rx="12.5" ry="12.5" style="stroke:#181818;stroke-width:0.5;" width="267.8506" x="999.2109" y="560.4531"/><text fill="#000000" font-family="Inter" font-size="14" lengthAdjust="spacing" textLength="247.8506" x="1009.2109" y="584.0156">H&#7911;y &#273;&#417;n h&#224;ng (Tr&#7841;ng th&#225;i: Cancelled)</text><ellipse cx="1133.1362" cy="628.3926" fill="none" rx="11" ry="11" style="stroke:#222222;stroke-width:1;"/><ellipse cx="1133.1362" cy="628.3926" fill="#222222" rx="6" ry="6" style="stroke:#222222;stroke-width:1;"/><polygon fill="#F1F1F1" points="774.2421,649.3926,786.2421,661.3926,774.2421,673.3926,762.2421,661.3926,774.2421,649.3926" style="stroke:#181818;stroke-width:0.5;stroke-linejoin:miter;stroke-miterlimit:10;"/><rect fill="#F1F1F1" height="36.9395" rx="12.5" ry="12.5" style="stroke:#181818;stroke-width:0.5;" width="161.8525" x="693.3158" y="693.3926"/><text fill="#000000" font-family="Inter" font-size="14" lengthAdjust="spacing" textLength="141.8525" x="703.3158" y="716.9551">Tr&#7915; s&#7889; l&#432;&#7907;ng T&#7891;n kho</text><rect fill="#F1F1F1" height="36.9395" rx="12.5" ry="12.5" style="stroke:#181818;stroke-width:0.5;" width="145.8291" x="701.3275" y="750.332"/><text fill="#000000" font-family="Inter" font-size="14" lengthAdjust="spacing" textLength="125.8291" x="711.3275" y="773.8945">G&#7917;i Email x&#225;c nh&#7853;n</text><ellipse cx="774.2421" cy="818.2715" fill="none" rx="11" ry="11" style="stroke:#222222;stroke-width:1;"/><ellipse cx="774.2421" cy="818.2715" fill="#222222" rx="6" ry="6" style="stroke:#222222;stroke-width:1;"/><line style="stroke:#000000;stroke-width:1.5;" x1="424.8389" x2="424.8389" y1="16.877" y2="829.2715"/><rect fill="#F1F1F1" height="36.9395" rx="12.5" ry="12.5" style="stroke:#181818;stroke-width:0.5;" width="216.1504" x="1410.3792" y="345.6348"/><text fill="#000000" font-family="Inter" font-size="14" lengthAdjust="spacing" textLength="196.1504" x="1420.3792" y="369.1973">Hi&#7875;n th&#7883; m&#224;n h&#236;nh qu&#233;t m&#227; QR</text><polygon fill="#F1F1F1" points="1438.2927,459.5137,1598.616,459.5137,1610.616,471.5137,1598.616,483.5137,1438.2927,483.5137,1426.2927,471.5137,1438.2927,459.5137" style="stroke:#181818;stroke-width:0.5;stroke-linejoin:miter;stroke-miterlimit:10;"/><text fill="#000000" font-family="Inter" font-size="14" lengthAdjust="spacing" textLength="160.3232" x="1438.2927" y="476.6064">Thanh to&#225;n th&#224;nh c&#244;ng?</text><text fill="#000000" font-family="Inter" font-size="14" lengthAdjust="spacing" textLength="18.6211" x="1407.6716" y="468.1367">C&#243;</text><text fill="#000000" font-family="Inter" font-size="14" lengthAdjust="spacing" textLength="109.9629" x="1610.616" y="468.1367">Kh&#244;ng / Timeout</text><rect fill="#F1F1F1" height="36.9395" rx="12.5" ry="12.5" style="stroke:#181818;stroke-width:0.5;" width="197.0508" x="1277.0615" y="503.5137"/><text fill="#000000" font-family="Inter" font-size="14" lengthAdjust="spacing" textLength="177.0508" x="1287.0615" y="527.0762">G&#7917;i Webhook IPN Success</text><rect fill="#F1F1F1" height="36.9395" rx="12.5" ry="12.5" style="stroke:#181818;stroke-width:0.5;" width="180.4941" x="1571.0747" y="503.5137"/><text fill="#000000" font-family="Inter" font-size="14" lengthAdjust="spacing" textLength="160.4941" x="1581.0747" y="527.0762">G&#7917;i Webhook IPN Failed</text><line style="stroke:#000000;stroke-width:1.5;" x1="1271.0615" x2="1271.0615" y1="16.877" y2="829.2715"/><line style="stroke:#000000;stroke-width:1.5;" x1="1755.5688" x2="1755.5688" y1="16.877" y2="829.2715"/><line style="stroke:#181818;stroke-width:1;" x1="134.7827" x2="134.7827" y1="58.8164" y2="78.8164"/><polygon fill="#181818" points="130.7827,68.8164,134.7827,78.8164,138.7827,68.8164,134.7827,72.8164" style="stroke:#181818;stroke-width:1;stroke-linejoin:miter;stroke-miterlimit:10;"/><line style="stroke:#181818;stroke-width:1;" x1="134.7827" x2="134.7827" y1="115.7559" y2="135.7559"/><polygon fill="#181818" points="130.7827,125.7559,134.7827,135.7559,138.7827,125.7559,134.7827,129.7559" style="stroke:#181818;stroke-width:1;stroke-linejoin:miter;stroke-miterlimit:10;"/><line style="stroke:#181818;stroke-width:1;" x1="879.155" x2="879.155" y1="242.6953" y2="262.6953"/><polygon fill="#181818" points="875.155,252.6953,879.155,262.6953,883.155,252.6953,879.155,256.6953" style="stroke:#181818;stroke-width:1;stroke-linejoin:miter;stroke-miterlimit:10;"/><line style="stroke:#181818;stroke-width:1;" x1="1121.0461" x2="1121.0461" y1="242.6953" y2="262.6953"/><polygon fill="#181818" points="1117.0461,252.6953,1121.0461,262.6953,1125.0461,252.6953,1121.0461,256.6953" style="stroke:#181818;stroke-width:1;stroke-linejoin:miter;stroke-miterlimit:10;"/><line style="stroke:#181818;stroke-width:1;" x1="879.155" x2="879.155" y1="299.6348" y2="319.6348"/><polygon fill="#181818" points="875.155,309.6348,879.155,319.6348,883.155,309.6348,879.155,313.6348" style="stroke:#181818;stroke-width:1;stroke-linejoin:miter;stroke-miterlimit:10;"/><line style="stroke:#181818;stroke-width:1;" x1="1121.0461" x2="1121.0461" y1="299.6348" y2="319.6348"/><polygon fill="#181818" points="1117.0461,309.6348,1121.0461,319.6348,1125.0461,309.6348,1121.0461,313.6348" style="stroke:#181818;stroke-width:1;stroke-linejoin:miter;stroke-miterlimit:10;"/><line style="stroke:#181818;stroke-width:1;" x1="1133.1362" x2="1133.1362" y1="597.3926" y2="617.3926"/><polygon fill="#181818" points="1129.1362,607.3926,1133.1362,617.3926,1137.1362,607.3926,1133.1362,611.3926" style="stroke:#181818;stroke-width:1;stroke-linejoin:miter;stroke-miterlimit:10;"/><line style="stroke:#181818;stroke-width:1;" x1="716.3763" x2="558.2153" y1="204.6953" y2="204.6953"/><line style="stroke:#181818;stroke-width:1;" x1="558.2153" x2="558.2153" y1="204.6953" y2="236.6953"/><polygon fill="#181818" points="554.2153,226.6953,558.2153,236.6953,562.2153,226.6953,558.2153,230.6953" style="stroke:#181818;stroke-width:1;stroke-linejoin:miter;stroke-miterlimit:10;"/><line style="stroke:#181818;stroke-width:1;" x1="832.1078" x2="990.2688" y1="204.6953" y2="204.6953"/><line style="stroke:#181818;stroke-width:1;" x1="990.2688" x2="990.2688" y1="204.6953" y2="236.6953"/><polygon fill="#181818" points="986.2688,226.6953,990.2688,236.6953,994.2688,226.6953,990.2688,230.6953" style="stroke:#181818;stroke-width:1;stroke-linejoin:miter;stroke-miterlimit:10;"/><line style="stroke:#181818;stroke-width:1;" x1="558.2153" x2="558.2153" y1="273.6348" y2="661.3926"/><line style="stroke:#181818;stroke-width:1;" x1="558.2153" x2="762.2421" y1="661.3926" y2="661.3926"/><polygon fill="#181818" points="752.2421,657.3926,762.2421,661.3926,752.2421,665.3926,756.2421,661.3926" style="stroke:#181818;stroke-width:1;stroke-linejoin:miter;stroke-miterlimit:10;"/><line style="stroke:#181818;stroke-width:1;" x1="774.2421" x2="774.2421" y1="673.3926" y2="693.3926"/><polygon fill="#181818" points="770.2421,683.3926,774.2421,693.3926,778.2421,683.3926,774.2421,687.3926" style="stroke:#181818;stroke-width:1;stroke-linejoin:miter;stroke-miterlimit:10;"/><line style="stroke:#181818;stroke-width:1;" x1="774.2421" x2="774.2421" y1="730.332" y2="750.332"/><polygon fill="#181818" points="770.2421,740.332,774.2421,750.332,778.2421,740.332,774.2421,744.332" style="stroke:#181818;stroke-width:1;stroke-linejoin:miter;stroke-miterlimit:10;"/><line style="stroke:#181818;stroke-width:1;" x1="774.2421" x2="774.2421" y1="787.2715" y2="807.2715"/><polygon fill="#181818" points="770.2421,797.2715,774.2421,807.2715,778.2421,797.2715,774.2421,801.2715" style="stroke:#181818;stroke-width:1;stroke-linejoin:miter;stroke-miterlimit:10;"/><line style="stroke:#181818;stroke-width:1;" x1="1426.2927" x2="1375.5869" y1="471.5137" y2="471.5137"/><line style="stroke:#181818;stroke-width:1;" x1="1375.5869" x2="1375.5869" y1="471.5137" y2="503.5137"/><polygon fill="#181818" points="1371.5869,493.5137,1375.5869,503.5137,1379.5869,493.5137,1375.5869,497.5137" style="stroke:#181818;stroke-width:1;stroke-linejoin:miter;stroke-miterlimit:10;"/><line style="stroke:#181818;stroke-width:1;" x1="1610.616" x2="1661.3218" y1="471.5137" y2="471.5137"/><line style="stroke:#181818;stroke-width:1;" x1="1661.3218" x2="1661.3218" y1="471.5137" y2="503.5137"/><polygon fill="#181818" points="1657.3218,493.5137,1661.3218,503.5137,1665.3218,493.5137,1661.3218,497.5137" style="stroke:#181818;stroke-width:1;stroke-linejoin:miter;stroke-miterlimit:10;"/><line style="stroke:#181818;stroke-width:1;" x1="990.2688" x2="990.2688" y1="325.6348" y2="330.6348"/><line style="stroke:#181818;stroke-width:1;" x1="990.2688" x2="1518.4543" y1="330.6348" y2="330.6348"/><line style="stroke:#181818;stroke-width:1;" x1="1518.4543" x2="1518.4543" y1="330.6348" y2="345.6348"/><polygon fill="#181818" points="1514.4543,335.6348,1518.4543,345.6348,1522.4543,335.6348,1518.4543,339.6348" style="stroke:#181818;stroke-width:1;stroke-linejoin:miter;stroke-miterlimit:10;"/><line style="stroke:#181818;stroke-width:1;" x1="1518.4543" x2="1518.4543" y1="382.5742" y2="387.5742"/><line style="stroke:#181818;stroke-width:1;" x1="1518.4543" x2="337.2021" y1="387.5742" y2="387.5742"/><line style="stroke:#181818;stroke-width:1;" x1="337.2021" x2="337.2021" y1="387.5742" y2="402.5742"/><polygon fill="#181818" points="333.2021,392.5742,337.2021,402.5742,341.2021,392.5742,337.2021,396.5742" style="stroke:#181818;stroke-width:1;stroke-linejoin:miter;stroke-miterlimit:10;"/><line style="stroke:#181818;stroke-width:1;" x1="1375.5869" x2="1375.5869" y1="540.4531" y2="545.4531"/><line style="stroke:#181818;stroke-width:1;" x1="1375.5869" x2="847.4014" y1="545.4531" y2="545.4531"/><line style="stroke:#181818;stroke-width:1;" x1="847.4014" x2="847.4014" y1="545.4531" y2="560.4531"/><polygon fill="#181818" points="843.4014,550.4531,847.4014,560.4531,851.4014,550.4531,847.4014,554.4531" style="stroke:#181818;stroke-width:1;stroke-linejoin:miter;stroke-miterlimit:10;"/><line style="stroke:#181818;stroke-width:1;" x1="1661.3218" x2="1661.3218" y1="540.4531" y2="545.4531"/><line style="stroke:#181818;stroke-width:1;" x1="1661.3218" x2="1133.1362" y1="545.4531" y2="545.4531"/><line style="stroke:#181818;stroke-width:1;" x1="1133.1362" x2="1133.1362" y1="545.4531" y2="560.4531"/><polygon fill="#181818" points="1129.1362,550.4531,1133.1362,560.4531,1137.1362,550.4531,1133.1362,554.4531" style="stroke:#181818;stroke-width:1;stroke-linejoin:miter;stroke-miterlimit:10;"/><line style="stroke:#181818;stroke-width:1;" x1="847.4014" x2="847.4014" y1="597.3926" y2="661.3926"/><line style="stroke:#181818;stroke-width:1;" x1="847.4014" x2="786.2421" y1="661.3926" y2="661.3926"/><polygon fill="#181818" points="796.2421,657.3926,786.2421,661.3926,796.2421,665.3926,792.2421,661.3926" style="stroke:#181818;stroke-width:1;stroke-linejoin:miter;stroke-miterlimit:10;"/><line style="stroke:#181818;stroke-width:1;" x1="337.2021" x2="337.2021" y1="439.5137" y2="444.5137"/><line style="stroke:#181818;stroke-width:1;" x1="337.2021" x2="1518.4543" y1="444.5137" y2="444.5137"/><line style="stroke:#181818;stroke-width:1;" x1="1518.4543" x2="1518.4543" y1="444.5137" y2="459.5137"/><polygon fill="#181818" points="1514.4543,449.5137,1518.4543,459.5137,1522.4543,449.5137,1518.4543,453.5137" style="stroke:#181818;stroke-width:1;stroke-linejoin:miter;stroke-miterlimit:10;"/><line style="stroke:#181818;stroke-width:1;" x1="134.7827" x2="134.7827" y1="172.6953" y2="177.6953"/><line style="stroke:#181818;stroke-width:1;" x1="134.7827" x2="774.2421" y1="177.6953" y2="177.6953"/><line style="stroke:#181818;stroke-width:1;" x1="774.2421" x2="774.2421" y1="177.6953" y2="192.6953"/><polygon fill="#181818" points="770.2421,182.6953,774.2421,192.6953,778.2421,182.6953,774.2421,186.6953" style="stroke:#181818;stroke-width:1;stroke-linejoin:miter;stroke-miterlimit:10;"/><text fill="#000000" font-family="Inter" font-size="14" lengthAdjust="spacing" textLength="78.7568" x="183.041" y="30.4395">Kh&#225;ch h&#224;ng</text><text fill="#000000" font-family="Inter" font-size="14" lengthAdjust="spacing" textLength="130.2861" x="782.8071" y="30.4395">H&#7879; th&#7889;ng ShopFlow</text><text fill="#000000" font-family="Inter" font-size="14" lengthAdjust="spacing" textLength="84.2939" x="1471.1682" y="30.4395">C&#7893;ng VNPay</text><?plantuml-src ZLD1YzGm6BtdLtpiQNeImLDx4EqwxY2CrIbwZfsq2MsJscRGbTuyx44yBEBTieWikh2Yf-d1GsN-H_w9NnDr6PrT5ahIvijxUUzxQPCBMT6Qbh1aALqLUggadjEImKngLfDcLtqXNZ6uUOkGzW4VkeG37px8h2MDfhKc_bsp_bZ2NYpC-eUqDGuXPqckLdel87x8JVzMGiKtvvjEPg3n-pJ1YU96hOPE1aXzOFeZMph6BGkkgccXNhH4f329jf6tFNnX4YRXmtsF0FYnMNSAVXxZ7YSD9d6DQnOnTCA7YCcba9aN45Oq32PFvX4z7B6fgdEShaMoNzDK8uL30Ssea0vx7mqAk1FDG5kMGiXysny0AlXp6ZvjQFhtI6s5jAE90s7wrz9QV0Cb2a0LNv3W-MeurRXm0eyU1x_1sp6CuX7rDG6E74To9-JVyyQ-nXSAHuzZRidmNMON3Hw-UNyTdWbuofvnfNAOHNDOh9A4DKrWwtQuB49B49hrMGMIuwIlZegAfMsoImgjeYAu0R4e6Luef-S_EpibJgaesFAw2h7swV1AQI6L2IkGqdESZLQLIrQan8sNtcCVkVhFqE0w59jpqvzWEJRzEmavL_YNEFdtIjGCBp5UrokyElQKNm00?></g></svg>