<svg xmlns="http://www.w3.org/2000/svg" xmlns:xlink="http://www.w3.org/1999/xlink" contentStyleType="text/css" data-diagram-type="DESCRIPTION" height="595px" preserveAspectRatio="none" style="width:1014px;height:595px;background:#FFFFFF;" version="1.1" viewBox="0 0 634 372" width="1014px" zoomAndPan="magnify"><?plantuml 1.2026.6?><defs/><g><!--entity PO--><g class="entity" data-qualified-name="PO" data-source-line="3" id="ent0001"><ellipse cx="33.5281" cy="14" fill="#F1F1F1" rx="8" ry="8" style="stroke:#181818;stroke-width:0.5;"/><path d="M33.5281,22 L33.5281,49 M20.5281,30 L46.5281,30 M33.5281,49 L20.5281,64 M33.5281,49 L46.5281,64" fill="none" style="stroke:#181818;stroke-width:0.5;"/><text fill="#000000" font-family="Inter" font-size="15" lengthAdjust="spacing" textLength="55.0562" x="6" y="80.0313">PO / BA</text></g><!--entity Team--><g class="entity" data-qualified-name="Team" data-source-line="4" id="ent0002"><ellipse cx="587.3311" cy="153" fill="#F1F1F1" rx="8" ry="8" style="stroke:#181818;stroke-width:0.5;"/><path d="M587.3311,161 L587.3311,188 M574.3311,169 L600.3311,169 M587.3311,188 L574.3311,203 M587.3311,188 L600.3311,203" fill="none" style="stroke:#181818;stroke-width:0.5;"/><text fill="#000000" font-family="Inter" font-size="15" lengthAdjust="spacing" textLength="63.6621" x="555.5" y="219.0313">Dev / QA</text></g><!--entity Raw--><g class="entity" data-qualified-name="Raw" data-source-line="5" id="ent0003"><rect fill="#FFB6C1" height="56.2988" rx="2.5" ry="2.5" style="stroke:#181818;stroke-width:0.5;" width="154.1357" x="242.5" y="16.5"/><text fill="#000000" font-family="Inter" font-size="15" lengthAdjust="spacing" textLength="65.3906" x="252.5" y="41.0313">Raw Item</text><text fill="#000000" font-family="Inter" font-size="15" lengthAdjust="spacing" textLength="134.1357" x="252.5" y="59.1807">(Idea/Vague Story)</text></g><!--entity Meet--><g class="entity" data-qualified-name="Meet" data-source-line="6" id="ent0004"><rect fill="#ADD8E6" height="56.2988" rx="2.5" ry="2.5" style="stroke:#181818;stroke-width:0.5;" width="239.624" x="199.5" y="155.5"/><text fill="#000000" font-family="Inter" font-size="15" lengthAdjust="spacing" textLength="142.7051" x="209.5" y="180.0313">Refinement Meeting</text><text fill="#000000" font-family="Inter" font-size="15" lengthAdjust="spacing" textLength="219.624" x="209.5" y="198.1807">(Th&#7843;o lu&#7853;n, chia nh&#7887;, th&#234;m AC)</text></g><!--entity Ready--><g class="entity" data-qualified-name="Ready" data-source-line="7" id="ent0005"><rect fill="#90EE90" height="56.2988" rx="2.5" ry="2.5" style="stroke:#181818;stroke-width:0.5;" width="134.9243" x="124" y="302.5"/><text fill="#000000" font-family="Inter" font-size="15" lengthAdjust="spacing" textLength="114.9243" x="134" y="327.0313">Ready for Sprint</text><text fill="#000000" font-family="Inter" font-size="15" lengthAdjust="spacing" textLength="68.7891" x="134" y="345.1807">(&#272;&#7841;t DoR)</text></g><!--entity NeedInfo--><g class="entity" data-qualified-name="NeedInfo" data-source-line="8" id="ent0006"><rect fill="#FFFFE0" height="56.2988" rx="2.5" ry="2.5" style="stroke:#181818;stroke-width:0.5;" width="160.1929" x="352.5" y="302.5"/><text fill="#000000" font-family="Inter" font-size="15" lengthAdjust="spacing" textLength="118.7036" x="362.5" y="327.0313">Needs More Info</text><text fill="#000000" font-family="Inter" font-size="15" lengthAdjust="spacing" textLength="140.1929" x="362.5" y="345.1807">(BA/PO &#273;i h&#7887;i th&#234;m)</text></g><!--link PO to Raw--><g class="link" data-entity-1="ent0001" data-entity-2="ent0003" data-link-type="dependency" data-source-line="10" id="lnk7"><path d="M61.18,44.5 C102.61,44.5 177.26,44.5 237.22,44.5" fill="none" id="PO-to-Raw" style="stroke:#181818;stroke-width:1;"/><polygon fill="#181818" points="242.22,44.5,233.22,40.5,237.22,44.5,233.22,48.5,242.22,44.5" style="stroke:#181818;stroke-width:1;stroke-linejoin:miter;stroke-miterlimit:10;"/><text fill="#000000" font-family="Inter" font-size="15" lengthAdjust="spacing" textLength="145.7813" x="79.25" y="37.0313">&#272;&#432;a l&#234;n &#273;&#7847;u Backlog</text></g><!--link Raw to Meet--><g class="link" data-entity-1="ent0003" data-entity-2="ent0004" data-link-type="dependency" data-source-line="11" id="lnk8"><path d="M319.5,72.57 C319.5,96.58 319.5,126.49 319.5,150.49" fill="none" id="Raw-to-Meet" style="stroke:#181818;stroke-width:1;"/><polygon fill="#181818" points="319.5,155.49,323.5,146.49,319.5,150.49,315.5,146.49,319.5,155.49" style="stroke:#181818;stroke-width:1;stroke-linejoin:miter;stroke-miterlimit:10;"/></g><!--link Meet to Team--><g class="link" data-entity-1="ent0004" data-entity-2="ent0002" data-link-type="dependency" data-source-line="12" id="lnk9"><path d="M444.78,183.5 C487.22,183.5 521.52,183.5 550.4,183.5" fill="none" id="Meet-Team" style="stroke:#181818;stroke-width:1;"/><polygon fill="#181818" points="439.78,183.5,448.78,187.5,444.78,183.5,448.78,179.5,439.78,183.5" style="stroke:#181818;stroke-width:1;stroke-linejoin:miter;stroke-miterlimit:10;"/><polygon fill="#181818" points="555.4,183.5,546.4,179.5,550.4,183.5,546.4,187.5,555.4,183.5" style="stroke:#181818;stroke-width:1;stroke-linejoin:miter;stroke-miterlimit:10;"/><text fill="#000000" font-family="Inter" font-size="15" lengthAdjust="spacing" textLength="79.9512" x="458" y="176.0313">&#272;&#7863;t c&#226;u h&#7887;i</text></g><!--link Meet to Ready--><g class="link" data-entity-1="ent0004" data-entity-2="ent0005" data-link-type="dependency" data-source-line="13" id="lnk10"><path d="M261.16,211.58 C243.69,222.17 225.89,235.83 213.5,252.5 C202.72,267 198.085,281.7072 195.275,297.5172" fill="none" id="Meet-to-Ready" style="stroke:#181818;stroke-width:1;"/><polygon fill="#181818" points="194.4,302.44,199.9132,294.2788,195.275,297.5172,192.0367,292.8789,194.4,302.44" style="stroke:#181818;stroke-width:1;stroke-linejoin:miter;stroke-miterlimit:10;"/><text fill="#000000" font-family="Inter" font-size="15" lengthAdjust="spacing" textLength="86.3672" x="214.5" y="268.0313">&#272;&#7911; th&#244;ng tin</text></g><!--link Meet to NeedInfo--><g class="link" data-entity-1="ent0004" data-entity-2="ent0006" data-link-type="dependency" data-source-line="14" id="lnk11"><path d="M311.15,211.54 C307.12,230.07 305.27,254.46 316.5,272.5 C325.1,286.31 333.7738,294.4157 348.0438,302.4557" fill="none" id="Meet-to-NeedInfo" style="stroke:#181818;stroke-width:1;"/><polygon fill="#181818" points="352.4,304.91,346.5224,297.0072,348.0438,302.4557,342.5954,303.9771,352.4,304.91" style="stroke:#181818;stroke-width:1;stroke-linejoin:miter;stroke-miterlimit:10;"/><text fill="#000000" font-family="Inter" font-size="15" lengthAdjust="spacing" textLength="130.144" x="317.5" y="268.0313">Thi&#7871;u requirement</text></g><!--link NeedInfo to Meet--><g class="link" data-entity-1="ent0006" data-entity-2="ent0004" data-link-type="dependency" data-source-line="15" id="lnk12"><path d="M449.42,302.31 C456.73,286.83 461.73,267.58 452.5,252.5 C441.67,234.8 429.0188,223.9071 410.6988,214.0071" fill="none" id="NeedInfo-to-Meet" style="stroke:#181818;stroke-width:1;"/><polygon fill="#181818" points="406.3,211.63,412.3162,219.4278,410.6988,214.0071,416.1195,212.3897,406.3,211.63" style="stroke:#181818;stroke-width:1;stroke-linejoin:miter;stroke-miterlimit:10;"/><text fill="#000000" font-family="Inter" font-size="15" lengthAdjust="spacing" textLength="73.8062" x="458.5" y="268.0313">(V&#242;ng l&#7863;p)</text></g><?plantuml-src RP3HIW9158RlzoaETgEWI1VTI0IQ54AfgGX1DyFksTt1sHaRPn9xYUmHgWj122A2OBteOgNts3TfPbSjeSivy_t_-Sy_6L4-9f94uA5FD5DdWgisYH1QNA5q9l_zz-azmk6HGrmb91Iw7QX2eru0Ce5kPpjjufqPN-NZ0PB8aUWgmWE6KEYHARGKHZUysFAGL8Saq0Xz8voLCe453Yve4AekvQCzAVgKOuHSmIMYeZmm9eCmZLy4C9t6hxmCRaW9y31TFPH1XSaoWlffxcib6-C6qxXlJBmP-2PxVomfLyPsFK_Z9mLDqTkaof1SVYuH-Lzz6z4p2uIqtVd2o1lrgkbc_KZ1Hg5vbDp9mfRQc5qZOsBgE0Qld6J7rs0z_tuZm98bDnPflD3G8Ew8YS2n_nN3sMESxA9Zyx8TPx8q_bJW9iywNviJbi_ZPyXgOTDyy01CWx_4BbOD1Y5DuoyD4cyrbLdXpkvxkzrmnM7oRcoOsJek_G00?></g></svg>