<svg xmlns="http://www.w3.org/2000/svg" xmlns:xlink="http://www.w3.org/1999/xlink" contentStyleType="text/css" data-diagram-type="DESCRIPTION" height="1304px" preserveAspectRatio="none" style="width:1794px;height:1304px;background:#FFFFFF;" version="1.1" viewBox="0 0 1121 815" width="1794px" zoomAndPan="magnify"><?plantuml 1.2026.6?><defs/><g><!--cluster ShopFlow MVP--><g class="cluster" data-qualified-name="ShopFlow MVP" data-source-line="11" id="ent0004"><rect fill="none" height="627" rx="2.5" ry="2.5" style="stroke:#181818;stroke-width:1;" width="952" x="155" y="174.69"/><text fill="#000000" font-family="Inter" font-size="15" font-weight="700" lengthAdjust="spacing" textLength="111.0791" x="575.4604" y="191.2213">ShopFlow MVP</text></g><!--entity SF2--><g class="entity" data-qualified-name="ShopFlow MVP.SF2" data-source-line="12" id="ent0005"><ellipse cx="288.482" cy="237.5682" fill="#F1F1F1" rx="111.482" ry="25.8782" style="stroke:#181818;stroke-width:0.5;"/><text fill="#000000" font-family="Inter" font-size="15" lengthAdjust="spacing" textLength="53.3936" x="202.4224" y="238.2889">Browse</text><text fill="#000000" font-family="Inter" font-size="15" lengthAdjust="spacing" textLength="4.2188" x="255.816" y="238.2889">&#160;</text><text fill="#000000" font-family="Inter" font-size="15" lengthAdjust="spacing" textLength="55.752" x="260.0347" y="238.2889">Product</text><text fill="#000000" font-family="Inter" font-size="15" lengthAdjust="spacing" textLength="4.2188" x="315.7867" y="238.2889">&#160;</text><text fill="#000000" font-family="Inter" font-size="15" lengthAdjust="spacing" textLength="54.5361" x="320.0054" y="238.2889">Catalog</text><text fill="#000000" font-family="Inter" font-size="15" lengthAdjust="spacing" textLength="45.4688" x="265.7476" y="256.4383">(SF-2)</text></g><!--entity SF3--><g class="entity" data-qualified-name="ShopFlow MVP.SF3" data-source-line="13" id="ent0006"><ellipse cx="288.5307" cy="324.5844" fill="#F1F1F1" rx="107.5307" ry="25.8944" style="stroke:#181818;stroke-width:0.5;"/><text fill="#000000" font-family="Inter" font-size="15" lengthAdjust="spacing" textLength="47.4243" x="205.6645" y="325.2785">Create</text><text fill="#000000" font-family="Inter" font-size="15" lengthAdjust="spacing" textLength="4.2188" x="253.0888" y="325.2785">&#160;</text><text fill="#000000" font-family="Inter" font-size="15" lengthAdjust="spacing" textLength="69.1772" x="257.3075" y="325.2785">Customer</text><text fill="#000000" font-family="Inter" font-size="15" lengthAdjust="spacing" textLength="4.2188" x="326.4848" y="325.2785">&#160;</text><text fill="#000000" font-family="Inter" font-size="15" lengthAdjust="spacing" textLength="40.6934" x="330.7035" y="325.2785">Order</text><text fill="#000000" font-family="Inter" font-size="15" lengthAdjust="spacing" textLength="45.5859" x="265.7377" y="343.4279">(SF-3)</text></g><!--entity SF4--><g class="entity" data-qualified-name="ShopFlow MVP.SF4" data-source-line="14" id="ent0007"><ellipse cx="288.5493" cy="411.5726" fill="#F1F1F1" rx="111.5493" ry="25.8826" style="stroke:#181818;stroke-width:0.5;"/><text fill="#000000" font-family="Inter" font-size="15" lengthAdjust="spacing" textLength="60.9741" x="202.4531" y="412.286">Simulate</text><text fill="#000000" font-family="Inter" font-size="15" lengthAdjust="spacing" textLength="4.2188" x="263.4272" y="412.286">&#160;</text><text fill="#000000" font-family="Inter" font-size="15" lengthAdjust="spacing" textLength="40.6934" x="267.646" y="412.286">Order</text><text fill="#000000" font-family="Inter" font-size="15" lengthAdjust="spacing" textLength="4.2188" x="308.3393" y="412.286">&#160;</text><text fill="#000000" font-family="Inter" font-size="15" lengthAdjust="spacing" textLength="62.0874" x="312.5581" y="412.286">Payment</text><text fill="#000000" font-family="Inter" font-size="15" lengthAdjust="spacing" textLength="46.0107" x="265.5439" y="430.4354">(SF-4)</text></g><!--entity SF5--><g class="entity" data-qualified-name="ShopFlow MVP.SF5" data-source-line="15" id="ent0008"><ellipse cx="288.6971" cy="498.5907" fill="#F1F1F1" rx="105.6971" ry="25.9007" style="stroke:#181818;stroke-width:0.5;"/><text fill="#000000" font-family="Inter" font-size="15" lengthAdjust="spacing" textLength="51.6064" x="207.3067" y="499.2744">Update</text><text fill="#000000" font-family="Inter" font-size="15" lengthAdjust="spacing" textLength="4.2188" x="258.9132" y="499.2744">&#160;</text><text fill="#000000" font-family="Inter" font-size="15" lengthAdjust="spacing" textLength="58.0884" x="263.1319" y="499.2744">Delivery</text><text fill="#000000" font-family="Inter" font-size="15" lengthAdjust="spacing" textLength="4.2188" x="321.2203" y="499.2744">&#160;</text><text fill="#000000" font-family="Inter" font-size="15" lengthAdjust="spacing" textLength="44.6484" x="325.4391" y="499.2744">Status</text><text fill="#000000" font-family="Inter" font-size="15" lengthAdjust="spacing" textLength="45.4395" x="265.9774" y="517.4239">(SF-5)</text></g><!--entity SF6--><g class="entity" data-qualified-name="ShopFlow MVP.SF6" data-source-line="16" id="ent0009"><ellipse cx="288.4556" cy="759.5678" fill="#F1F1F1" rx="111.9556" ry="25.8778" style="stroke:#181818;stroke-width:0.5;"/><text fill="#000000" font-family="Inter" font-size="15" lengthAdjust="spacing" textLength="57.2021" x="202.0189" y="760.2891">Manage</text><text fill="#000000" font-family="Inter" font-size="15" lengthAdjust="spacing" textLength="4.2188" x="259.221" y="760.2891">&#160;</text><text fill="#000000" font-family="Inter" font-size="15" lengthAdjust="spacing" textLength="66.9067" x="263.4398" y="760.2891">Inventory</text><text fill="#000000" font-family="Inter" font-size="15" lengthAdjust="spacing" textLength="4.2188" x="330.3465" y="760.2891">&#160;</text><text fill="#000000" font-family="Inter" font-size="15" lengthAdjust="spacing" textLength="40.3271" x="334.5652" y="760.2891">Stock</text><text fill="#000000" font-family="Inter" font-size="15" lengthAdjust="spacing" textLength="45.6226" x="265.6443" y="778.4385">(SF-6)</text></g><!--entity SF7--><g class="entity" data-qualified-name="ShopFlow MVP.SF7" data-source-line="17" id="ent0010"><ellipse cx="288.3055" cy="672.5821" fill="#F1F1F1" rx="106.3055" ry="25.8921" style="stroke:#181818;stroke-width:0.5;"/><text fill="#000000" font-family="Inter" font-size="15" lengthAdjust="spacing" textLength="56.521" x="206.4024" y="673.2799">Receive</text><text fill="#000000" font-family="Inter" font-size="15" lengthAdjust="spacing" textLength="4.2188" x="262.9234" y="673.2799">&#160;</text><text fill="#000000" font-family="Inter" font-size="15" lengthAdjust="spacing" textLength="58.5205" x="267.1421" y="673.2799">Supplier</text><text fill="#000000" font-family="Inter" font-size="15" lengthAdjust="spacing" textLength="4.2188" x="325.6626" y="673.2799">&#160;</text><text fill="#000000" font-family="Inter" font-size="15" lengthAdjust="spacing" textLength="40.3271" x="329.8814" y="673.2799">Stock</text><text fill="#000000" font-family="Inter" font-size="15" lengthAdjust="spacing" textLength="44.8096" x="265.9007" y="691.4293">(SF-7)</text></g><!--entity SF8--><g class="entity" data-qualified-name="ShopFlow MVP.SF8" data-source-line="18" id="ent0011"><ellipse cx="288.342" cy="585.5584" fill="#F1F1F1" rx="117.342" ry="25.8684" style="stroke:#181818;stroke-width:0.5;"/><text fill="#000000" font-family="Inter" font-size="15" lengthAdjust="spacing" textLength="57.3706" x="197.507" y="586.3181">Process</text><text fill="#000000" font-family="Inter" font-size="15" lengthAdjust="spacing" textLength="4.2188" x="254.8776" y="586.3181">&#160;</text><text fill="#000000" font-family="Inter" font-size="15" lengthAdjust="spacing" textLength="69.1772" x="259.0963" y="586.3181">Customer</text><text fill="#000000" font-family="Inter" font-size="15" lengthAdjust="spacing" textLength="4.2188" x="328.2736" y="586.3181">&#160;</text><text fill="#000000" font-family="Inter" font-size="15" lengthAdjust="spacing" textLength="46.6846" x="332.4923" y="586.3181">Return</text><text fill="#000000" font-family="Inter" font-size="15" lengthAdjust="spacing" textLength="45.6006" x="265.5417" y="604.4675">(SF-8)</text></g><!--entity SF9--><g class="entity" data-qualified-name="ShopFlow MVP.SF9" data-source-line="19" id="ent0012"><ellipse cx="992.4299" cy="280.6276" fill="#F1F1F1" rx="98.4299" ry="25.9376" style="stroke:#181818;stroke-width:0.5;"/><text fill="#000000" font-family="Inter" font-size="15" lengthAdjust="spacing" textLength="35.0024" x="916.9209" y="281.2509">View</text><text fill="#000000" font-family="Inter" font-size="15" lengthAdjust="spacing" textLength="4.2188" x="951.9233" y="281.2509">&#160;</text><text fill="#000000" font-family="Inter" font-size="15" lengthAdjust="spacing" textLength="29.751" x="956.1421" y="281.2509">Low</text><text fill="#000000" font-family="Inter" font-size="15" lengthAdjust="spacing" textLength="4.2188" x="985.8931" y="281.2509">&#160;</text><text fill="#000000" font-family="Inter" font-size="15" lengthAdjust="spacing" textLength="40.3271" x="990.1118" y="281.2509">Stock</text><text fill="#000000" font-family="Inter" font-size="15" lengthAdjust="spacing" textLength="4.2188" x="1030.439" y="281.2509">&#160;</text><text fill="#000000" font-family="Inter" font-size="15" lengthAdjust="spacing" textLength="33.2813" x="1034.6577" y="281.2509">Alert</text><text fill="#000000" font-family="Inter" font-size="15" lengthAdjust="spacing" textLength="45.6226" x="969.6187" y="299.4003">(SF-9)</text></g><!--entity UC9--><g class="entity" data-qualified-name="ShopFlow MVP.UC9" data-source-line="21" id="ent0013"><ellipse cx="651.0563" cy="541.8588" fill="#F1F1F1" rx="115.0563" ry="47.6688" style="stroke:#181818;stroke-width:0.5;"/><text fill="#000000" font-family="Inter" font-size="15" lengthAdjust="spacing" textLength="44.8608" x="573.61" y="524.225">Adjust</text><text fill="#000000" font-family="Inter" font-size="15" lengthAdjust="spacing" textLength="4.2188" x="618.4708" y="524.225">&#160;</text><text fill="#000000" font-family="Inter" font-size="15" lengthAdjust="spacing" textLength="40.3271" x="622.6896" y="524.225">Stock</text><text fill="#000000" font-family="Inter" font-size="15" lengthAdjust="spacing" textLength="4.2188" x="663.0167" y="524.225">&#160;</text><text fill="#000000" font-family="Inter" font-size="15" lengthAdjust="spacing" textLength="59.502" x="667.2355" y="524.225">Quantity</text><line style="stroke:#181818;stroke-width:1;" x1="542.0856" x2="760.0269" y1="527.8432" y2="527.8432"/><text fill="#000000" font-family="Inter" font-size="15" font-weight="700" lengthAdjust="spacing" textLength="72.583" x="589.13" y="546.3745">Extension</text><text fill="#000000" font-family="Inter" font-size="15" font-weight="700" lengthAdjust="spacing" textLength="3.5522" x="661.713" y="546.3745">&#160;</text><text fill="#000000" font-family="Inter" font-size="15" font-weight="700" lengthAdjust="spacing" textLength="45.9521" x="665.2653" y="546.3745">points</text><text fill="#000000" font-family="Inter" font-size="15" lengthAdjust="spacing" textLength="38.6206" x="571.8448" y="564.5239">stock</text><text fill="#000000" font-family="Inter" font-size="15" lengthAdjust="spacing" textLength="4.2188" x="610.4654" y="564.5239">&#160;</text><text fill="#000000" font-family="Inter" font-size="15" lengthAdjust="spacing" textLength="42.832" x="614.6842" y="564.5239">below</text><text fill="#000000" font-family="Inter" font-size="15" lengthAdjust="spacing" textLength="4.2188" x="657.5162" y="564.5239">&#160;</text><text fill="#000000" font-family="Inter" font-size="15" lengthAdjust="spacing" textLength="66.7676" x="661.735" y="564.5239">threshold</text></g><!--entity Customer--><g class="entity" data-qualified-name="Customer" data-source-line="7" id="ent0001"><ellipse cx="57.1912" cy="147.19" fill="#F1F1F1" rx="8" ry="8" style="stroke:#181818;stroke-width:0.5;"/><path d="M57.1912,155.19 L57.1912,182.19 M44.1912,163.19 L70.1912,163.19 M57.1912,182.19 L44.1912,197.19 M57.1912,182.19 L70.1912,197.19" fill="none" style="stroke:#181818;stroke-width:0.5;"/><text fill="#000000" font-family="Inter" font-size="15" lengthAdjust="spacing" textLength="44.8096" x="15" y="213.2213">Kh&#225;ch</text><text fill="#000000" font-family="Inter" font-size="15" lengthAdjust="spacing" textLength="4.2188" x="59.8096" y="213.2213">&#160;</text><text fill="#000000" font-family="Inter" font-size="15" lengthAdjust="spacing" textLength="35.354" x="64.0283" y="213.2213">h&#224;ng</text></g><!--entity Owner--><g class="entity" data-qualified-name="Owner" data-source-line="8" id="ent0002"><ellipse cx="56.9404" cy="468.19" fill="#F1F1F1" rx="8" ry="8" style="stroke:#181818;stroke-width:0.5;"/><path d="M56.9404,476.19 L56.9404,503.19 M43.9404,484.19 L69.9404,484.19 M56.9404,503.19 L43.9404,518.19 M56.9404,503.19 L69.9404,518.19" fill="none" style="stroke:#181818;stroke-width:0.5;"/><text fill="#000000" font-family="Inter" font-size="15" lengthAdjust="spacing" textLength="28.6963" x="23" y="534.2213">Ch&#7911;</text><text fill="#000000" font-family="Inter" font-size="15" lengthAdjust="spacing" textLength="4.2188" x="51.6963" y="534.2213">&#160;</text><text fill="#000000" font-family="Inter" font-size="15" lengthAdjust="spacing" textLength="34.9658" x="55.915" y="534.2213">shop</text></g><!--entity Warehouse--><g class="entity" data-qualified-name="Warehouse" data-source-line="9" id="ent0003"><ellipse cx="56.8301" cy="618.19" fill="#F1F1F1" rx="8" ry="8" style="stroke:#181818;stroke-width:0.5;"/><path d="M56.8301,626.19 L56.8301,653.19 M43.8301,634.19 L69.8301,634.19 M56.8301,653.19 L43.8301,668.19 M56.8301,653.19 L69.8301,668.19" fill="none" style="stroke:#181818;stroke-width:0.5;"/><text fill="#000000" font-family="Inter" font-size="15" lengthAdjust="spacing" textLength="37.4561" x="6" y="684.2213">Nh&#226;n</text><text fill="#000000" font-family="Inter" font-size="15" lengthAdjust="spacing" textLength="4.2188" x="43.4561" y="684.2213">&#160;</text><text fill="#000000" font-family="Inter" font-size="15" lengthAdjust="spacing" textLength="29.6704" x="47.6748" y="684.2213">vi&#234;n</text><text fill="#000000" font-family="Inter" font-size="15" lengthAdjust="spacing" textLength="4.2188" x="77.3452" y="684.2213">&#160;</text><text fill="#000000" font-family="Inter" font-size="15" lengthAdjust="spacing" textLength="26.0962" x="81.564" y="684.2213">kho</text></g><!--link Customer to SF2--><g class="link" data-entity-1="ent0001" data-entity-2="ent0005" data-link-type="dependency" data-source-line="29" id="lnk14"><path d="M99.26,160.33 C112.02,157.02 126.11,155.47 139,158.69 C180.93,169.15 219.8456,191.1679 248.7256,210.2079" fill="none" id="Customer-to-SF2" style="stroke:#181818;stroke-width:1;"/><polygon fill="#181818" points="252.9,212.96,247.5877,204.6666,248.7256,210.2079,243.1843,211.3457,252.9,212.96" style="stroke:#181818;stroke-width:1;stroke-linejoin:miter;stroke-miterlimit:10;"/></g><!--link Customer to SF3--><g class="link" data-entity-1="ent0001" data-entity-2="ent0006" data-link-type="dependency" data-source-line="30" id="lnk15"><path d="M99.41,179.51 C114.01,182.32 129.21,188.12 139,199.69 C162.36,227.31 124.17,252.63 147,280.69 C159.1,295.56 171.474,303.7832 189.554,310.3932" fill="none" id="Customer-to-SF3" style="stroke:#181818;stroke-width:1;"/><polygon fill="#181818" points="194.25,312.11,187.1707,305.2629,189.554,310.3932,184.4237,312.7765,194.25,312.11" style="stroke:#181818;stroke-width:1;stroke-linejoin:miter;stroke-miterlimit:10;"/></g><!--link Customer to SF4--><g class="link" data-entity-1="ent0001" data-entity-2="ent0007" data-link-type="dependency" data-source-line="31" id="lnk16"><path d="M66.38,216.88 C77.56,259.83 101.47,327.91 147,367.69 C161.72,380.56 175.4743,388.0265 194.1343,394.4765" fill="none" id="Customer-to-SF4" style="stroke:#181818;stroke-width:1;"/><polygon fill="#181818" points="198.86,396.11,191.6606,389.3892,194.1343,394.4765,189.0471,396.9503,198.86,396.11" style="stroke:#181818;stroke-width:1;stroke-linejoin:miter;stroke-miterlimit:10;"/></g><!--link Owner to SF5--><g class="link" data-entity-1="ent0002" data-entity-2="ent0008" data-link-type="dependency" data-source-line="33" id="lnk17"><path d="M91.37,498.69 C115.61,498.69 144.84,498.69 177.93,498.69" fill="none" id="Owner-to-SF5" style="stroke:#181818;stroke-width:1;"/><polygon fill="#181818" points="182.93,498.69,173.93,494.69,177.93,498.69,173.93,502.69,182.93,498.69" style="stroke:#181818;stroke-width:1;stroke-linejoin:miter;stroke-miterlimit:10;"/></g><!--link Owner to SF8--><g class="link" data-entity-1="ent0002" data-entity-2="ent0011" data-link-type="dependency" data-source-line="34" id="lnk18"><path d="M91.29,516.21 C107.79,524.52 128.17,534.24 147,541.69 C168.87,550.34 188.383,556.9834 210.543,563.8334" fill="none" id="Owner-to-SF8" style="stroke:#181818;stroke-width:1;"/><polygon fill="#181818" points="215.32,565.31,207.9027,558.8305,210.543,563.8334,205.5401,566.4736,215.32,565.31" style="stroke:#181818;stroke-width:1;stroke-linejoin:miter;stroke-miterlimit:10;"/></g><!--link Owner to SF9--><g class="link" data-entity-1="ent0002" data-entity-2="ent0012" data-link-type="dependency" data-source-line="35" id="lnk19"><path d="M63.56,459.62 C75.08,384.8 104.14,225.83 147,193.69 C397.28,6 808.5978,187.0842 943.4078,255.2342" fill="none" id="Owner-to-SF9" style="stroke:#181818;stroke-width:1;"/><polygon fill="#181818" points="947.87,257.49,941.6426,249.8598,943.4078,255.2342,938.0334,256.9994,947.87,257.49" style="stroke:#181818;stroke-width:1;stroke-linejoin:miter;stroke-miterlimit:10;"/></g><!--link Warehouse to SF5--><g class="link" data-entity-1="ent0003" data-entity-2="ent0008" data-link-type="dependency" data-source-line="37" id="lnk20"><path d="M82.09,609.61 C97.96,586.83 120.65,559.22 147,541.69 C164.63,529.96 180.8271,522.8098 201.1071,516.4798" fill="none" id="Warehouse-to-SF5" style="stroke:#181818;stroke-width:1;"/><polygon fill="#181818" points="205.88,514.99,196.097,513.8533,201.1071,516.4798,198.4806,521.4899,205.88,514.99" style="stroke:#181818;stroke-width:1;stroke-linejoin:miter;stroke-miterlimit:10;"/></g><!--link Warehouse to SF6--><g class="link" data-entity-1="ent0003" data-entity-2="ent0009" data-link-type="dependency" data-source-line="38" id="lnk21"><path d="M103.02,688 C116.51,698.39 131.78,708.87 147,716.69 C166.4,726.66 183.7282,733.3091 204.5782,739.6791" fill="none" id="Warehouse-to-SF6" style="stroke:#181818;stroke-width:1;"/><polygon fill="#181818" points="209.36,741.14,201.9215,734.6849,204.5782,739.6791,199.584,742.3358,209.36,741.14" style="stroke:#181818;stroke-width:1;stroke-linejoin:miter;stroke-miterlimit:10;"/></g><!--link Warehouse to SF7--><g class="link" data-entity-1="ent0003" data-entity-2="ent0010" data-link-type="dependency" data-source-line="39" id="lnk22"><path d="M108.08,653.93 C132.22,656.45 157.0471,659.0506 185.3871,662.0106" fill="none" id="Warehouse-to-SF7" style="stroke:#181818;stroke-width:1;"/><polygon fill="#181818" points="190.36,662.53,181.8242,657.6167,185.3871,662.0106,180.9932,665.5734,190.36,662.53" style="stroke:#181818;stroke-width:1;stroke-linejoin:miter;stroke-miterlimit:10;"/></g><!--link Warehouse to SF8--><g class="link" data-entity-1="ent0003" data-entity-2="ent0011" data-link-type="dependency" data-source-line="40" id="lnk23"><path d="M108.08,634.94 C139.08,626.43 174.5984,616.6836 209.1684,607.1936" fill="none" id="Warehouse-to-SF8" style="stroke:#181818;stroke-width:1;"/><polygon fill="#181818" points="213.99,605.87,204.2522,604.3952,209.1684,607.1936,206.37,612.1098,213.99,605.87" style="stroke:#181818;stroke-width:1;stroke-linejoin:miter;stroke-miterlimit:10;"/></g><!--link SF3 to UC9--><g class="link" data-entity-1="ent0006" data-entity-2="ent0013" data-link-type="dependency" data-source-line="42" id="lnk24"><path d="M354.62,345.26 C371.73,351.59 389.9,359.17 406,367.69 C477.06,405.27 547.3184,457.7431 594.9584,495.9231" fill="none" id="SF3-to-UC9" style="stroke:#181818;stroke-width:1;stroke-dasharray:7,7;"/><polygon fill="#181818" points="598.86,499.05,594.3386,490.3003,594.9584,495.9231,589.3356,496.5429,598.86,499.05" style="stroke:#181818;stroke-width:1;stroke-linejoin:miter;stroke-miterlimit:10;"/><text fill="#000000" font-family="Inter" font-size="15" lengthAdjust="spacing" textLength="68.9722" x="437" y="384.2213">&#171;include&#187;</text></g><!--link SF5 to UC9--><g class="link" data-entity-1="ent0008" data-entity-2="ent0013" data-link-type="dependency" data-source-line="43" id="lnk25"><path d="M383.75,509.93 C431.73,515.65 485.3653,522.0472 535.3653,528.0172" fill="none" id="SF5-to-UC9" style="stroke:#181818;stroke-width:1;stroke-dasharray:7,7;"/><polygon fill="#181818" points="540.33,528.61,531.8677,523.5712,535.3653,528.0172,530.9192,531.5148,540.33,528.61" style="stroke:#181818;stroke-width:1;stroke-linejoin:miter;stroke-miterlimit:10;"/><text fill="#000000" font-family="Inter" font-size="15" lengthAdjust="spacing" textLength="68.9722" x="437" y="512.2213">&#171;include&#187;</text></g><!--link SF6 to UC9--><g class="link" data-entity-1="ent0009" data-entity-2="ent0013" data-link-type="dependency" data-source-line="44" id="lnk26"><path d="M355.14,738.73 C372.07,732.44 390.02,724.98 406,716.69 C477.72,679.46 548.1615,626.3155 595.6415,587.6855" fill="none" id="SF6-to-UC9" style="stroke:#181818;stroke-width:1;stroke-dasharray:7,7;"/><polygon fill="#181818" points="599.52,584.53,590.0143,587.1072,595.6415,587.6855,595.0632,593.3128,599.52,584.53" style="stroke:#181818;stroke-width:1;stroke-linejoin:miter;stroke-miterlimit:10;"/><text fill="#000000" font-family="Inter" font-size="15" lengthAdjust="spacing" textLength="68.9722" x="437" y="652.2213">&#171;include&#187;</text></g><!--link SF7 to UC9--><g class="link" data-entity-1="ent0010" data-entity-2="ent0013" data-link-type="dependency" data-source-line="45" id="lnk27"><path d="M350.26,651.39 C393.71,636.09 453.54,614.85 506,595.69 C525.31,588.64 541.347,582.6919 560.887,575.3819" fill="none" id="SF7-to-UC9" style="stroke:#181818;stroke-width:1;stroke-dasharray:7,7;"/><polygon fill="#181818" points="565.57,573.63,555.739,573.0371,560.887,575.3819,558.5421,580.5299,565.57,573.63" style="stroke:#181818;stroke-width:1;stroke-linejoin:miter;stroke-miterlimit:10;"/><text fill="#000000" font-family="Inter" font-size="15" lengthAdjust="spacing" textLength="68.9722" x="437" y="591.2213">&#171;include&#187;</text></g><!--link SF8 to UC9--><g class="link" data-entity-1="ent0011" data-entity-2="ent0013" data-link-type="dependency" data-source-line="46" id="lnk28"><path d="M391.84,573.2 C438.26,567.53 488.2569,561.4361 535.5069,555.6661" fill="none" id="SF8-to-UC9" style="stroke:#181818;stroke-width:1;stroke-dasharray:7,7;"/><polygon fill="#181818" points="540.47,555.06,531.0515,552.1804,535.5069,555.6661,532.0212,560.1214,540.47,555.06" style="stroke:#181818;stroke-width:1;stroke-linejoin:miter;stroke-miterlimit:10;"/><text fill="#000000" font-family="Inter" font-size="15" lengthAdjust="spacing" textLength="68.9722" x="437" y="556.2213">&#171;include&#187;</text></g><!--reverse link UC9 to SF9--><g class="link" data-entity-1="ent0013" data-entity-2="ent0012" data-link-type="dependency" data-source-line="48" id="lnk29"><path d="M710.5138,496.7124 C782.1138,441.6624 901.53,349.86 959.57,305.24" fill="none" id="UC9-backto-SF9" style="stroke:#181818;stroke-width:1;stroke-dasharray:7,7;"/><polygon fill="#181818" points="706.55,499.76,716.123,497.4454,710.5138,496.7124,711.2468,491.1032,706.55,499.76" style="stroke:#181818;stroke-width:1;stroke-linejoin:miter;stroke-miterlimit:10;"/><text fill="#000000" font-family="Inter" font-size="15" lengthAdjust="spacing" textLength="66.1084" x="797" y="376.2213">&#171;extend&#187;</text></g><?plantuml-src TPBDRXCn4CVlVefHJd3OgEGxA5gf128XI1kwQdi03kxkD3RnsYlRcpH5l0jmGU8LEEP9U1EyJZPrKtAoPlxp6y-NMN1PK4rpoF2Mbi9EbBHdD4TuAorgOlwd9_mUuKKt47DwDqLZw1ozrZev2SILfiKrpoppVe6t5gm2pUVCGiOrffOhIGXDhTBGUCSsFr86RFDTpXj03OnBOrNkQja5ZDdVFx_0C5Lu-Nmb7xGpjlafOSatloKicF81rrGZKwL1Ggg_g9mBX4RY-8bGAvXUpHhmbG2uY9GQ9xtIQkNUcLPPcLeOKqk5cd-Ipv99r7hkSoQJLaYCDLAB-qhXN6Uejq2x1jeXaF2y51NY8s56rpbAkoKwDT49YSiYg-9Ve-1Br6j8BBMbsHBTckY6n9HAjm-tnwLBhJoYqiMMwDL4BoGkC4MN7PAoA0HtTGL4loRw8U5cbBgzFtH-WRRKSeiCQcGG8bSSL_3U3TudXrE1UjVui8uVaW2u70_XexC1JhClxfiTzw6aqdAxzaeKHVuTtSHlxYnAumuA2iMbDTvlF7A3rRujq-YEHsHE-Ko-4RAlFOfYlzW3H_lGqI747ztEx3wo1eyiryd-_FRXXvxU4q__YMT0YAi4citO3-GbZ4PSfgBCC8wTqZsgz8ug_QFAu8X2AjUesQmQyn9MmyxY-1y0?></g></svg>